<?xml version="1.0" standalone="no"?>
<!DOCTYPE svg PUBLIC "-//W3C//DTD SVG 1.1//EN"
"http://www.w3.org/Graphics/SVG/1.1/DTD/svg11.dtd">
<svg width="291.78" height="253.984" viewBox="0 0 6078.74 5291.34" version="1.1"
xmlns="http://www.w3.org/2000/svg"
xmlns:xlink="http://www.w3.org/1999/xlink">
<circle cx="1093.7" cy="4574.8" r="23.622" style=""/>
<circle cx="893.701" cy="4374.8" r="23.622" style=""/>
<circle cx="1093.7" cy="4174.8" r="23.622" style=""/>
<circle cx="893.701" cy="3974.8" r="23.622" style=""/>
<circle cx="943.701" cy="2574.8" r="23.622" style=""/>
<circle cx="593.701" cy="1524.8" r="23.622" style=""/>
<circle cx="2693.7" cy="2974.8" r="23.622" style=""/>
<circle cx="3793.7" cy="1314.8" r="23.622" style=""/>
<circle cx="3593.7" cy="844.803" r="23.622" style=""/>
<circle cx="4003.7" cy="844.803" r="23.622" style=""/>
<circle cx="4393.7" cy="844.803" r="23.622" style=""/>
<circle cx="4393.7" cy="674.803" r="23.622" style=""/>
<circle cx="4393.7" cy="424.803" r="23.622" style=""/>
<circle cx="4543.7" cy="424.803" r="23.622" style=""/>
<circle cx="4543.7" cy="674.803" r="23.622" style=""/>
<circle cx="4794.72" cy="722.835" r="23.622" style=""/>
<circle cx="4794.72" cy="868.819" r="23.622" style=""/>
<circle cx="5063.7" cy="1364.8" r="23.622" style=""/>
<circle cx="5193.7" cy="2474.8" r="23.622" style=""/>
<circle cx="5093.7" cy="2374.8" r="23.622" style=""/>
<circle cx="4993.7" cy="2474.8" r="23.622" style=""/>
<circle cx="4893.7" cy="2374.8" r="23.622" style=""/>
<circle cx="4793.7" cy="2474.8" r="23.622" style=""/>
<circle cx="4693.7" cy="2374.8" r="23.622" style=""/>
<circle cx="4593.7" cy="2474.8" r="23.622" style=""/>
<circle cx="4493.7" cy="2374.8" r="23.622" style=""/>
<circle cx="3993.7" cy="2274.8" r="23.622" style=""/>
<circle cx="3693.7" cy="2074.8" r="23.622" style=""/>
<circle cx="3693.7" cy="2224.8" r="23.622" style=""/>
<circle cx="3493.7" cy="2474.8" r="23.622" style=""/>
<circle cx="3593.7" cy="2374.8" r="23.622" style=""/>
<circle cx="3693.7" cy="2474.8" r="23.622" style=""/>
<circle cx="4893.7" cy="3674.8" r="23.622" style=""/>
<circle cx="4693.7" cy="3674.8" r="23.622" style=""/>
<circle cx="4493.7" cy="3674.8" r="23.622" style=""/>
<circle cx="3193.7" cy="3374.8" r="29.5276" style=""/>
<circle cx="3093.7" cy="3374.8" r="29.5276" style=""/>
<circle cx="2993.7" cy="3374.8" r="29.5276" style=""/>
<circle cx="1543.7" cy="3274.8" r="29.5276" style=""/>
<circle cx="1443.7" cy="3274.8" r="29.5276" style=""/>
<circle cx="1343.7" cy="3274.8" r="29.5276" style=""/>
<circle cx="593.701" cy="1274.8" r="29.5276" style=""/>
<circle cx="593.701" cy="1174.8" r="29.5276" style=""/>
<circle cx="593.701" cy="1074.8" r="29.5276" style=""/>
<circle cx="2893.7" cy="3074.8" r="35.4331" style=""/>
<circle cx="2893.7" cy="2681.1" r="35.4331" style=""/>
<circle cx="3287.4" cy="2877.95" r="35.4331" style=""/>
<circle cx="643.701" cy="4574.8" r="39.3701" style=""/>
<circle cx="643.701" cy="4374.8" r="39.3701" style=""/>
<circle cx="643.701" cy="4174.8" r="39.3701" style=""/>
<circle cx="643.701" cy="3974.8" r="39.3701" style=""/>
<circle cx="1443.7" cy="1474.8" r="39.3701" style=""/>
<circle cx="2821.65" cy="1474.8" r="39.3701" style=""/>
<circle cx="3893.7" cy="3074.8" r="40" style=""/>
<circle cx="3893.7" cy="2874.8" r="40" style=""/>
<circle cx="4093.7" cy="3074.8" r="40" style=""/>
<circle cx="4093.7" cy="2874.8" r="40" style=""/>
<circle cx="4293.7" cy="2874.8" r="40" style=""/>
<circle cx="4493.7" cy="2874.8" r="40" style=""/>
<circle cx="4293.7" cy="3074.8" r="40" style=""/>
<circle cx="4493.7" cy="3074.8" r="40" style=""/>
<circle cx="4693.7" cy="2874.8" r="40" style=""/>
<circle cx="4693.7" cy="3074.8" r="40" style=""/>
<circle cx="4893.7" cy="3074.8" r="40" style=""/>
<circle cx="4893.7" cy="2874.8" r="40" style=""/>
<circle cx="5093.7" cy="2874.8" r="40" style=""/>
<circle cx="5093.7" cy="3074.8" r="40" style=""/>
<circle cx="5293.7" cy="2874.8" r="40" style=""/>
<circle cx="5293.7" cy="3074.8" r="40" style=""/>
<circle cx="793.701" cy="3324.8" r="43.3071" style=""/>
<circle cx="793.701" cy="3124.8" r="43.3071" style=""/>
<circle cx="593.701" cy="3124.8" r="43.3071" style=""/>
<circle cx="593.701" cy="3324.8" r="43.3071" style=""/>
<circle cx="1493.7" cy="4374.8" r="59.0551" style=""/>
<circle cx="1993.7" cy="4174.8" r="59.0551" style=""/>
<circle cx="3093.7" cy="4374.8" r="59.0551" style=""/>
<circle cx="3593.7" cy="4174.8" r="59.0551" style=""/>
<circle cx="4693.7" cy="4374.8" r="59.0551" style=""/>
<circle cx="5193.7" cy="4174.8" r="59.0551" style=""/>
<circle cx="86.6142" cy="5204.72" r="86.6142" style=""/>
<circle cx="86.6142" cy="86.6142" r="86.6142" style=""/>
<circle cx="5992.13" cy="86.6142" r="86.6142" style=""/>
<circle cx="5992.13" cy="5204.72" r="86.6142" style=""/>
<circle cx="1793.7" cy="4574.8" r="157.48" style=""/>
<circle cx="3393.7" cy="4574.8" r="157.48" style=""/>
<circle cx="4993.7" cy="4574.8" r="157.48" style=""/>
</svg>
