<?xml version="1.0" standalone="no"?>
<!DOCTYPE svg PUBLIC "-//W3C//DTD SVG 1.1//EN"
"http://www.w3.org/Graphics/SVG/1.1/DTD/svg11.dtd">
<svg width="308.598" height="280.252" viewBox="0 0 6429.13 5838.58" version="1.1"
xmlns="http://www.w3.org/2000/svg"
xmlns:xlink="http://www.w3.org/1999/xlink">
<circle cx="3568.9" cy="4946.85" r="23.622" style=""/>
<circle cx="3268.9" cy="4746.85" r="23.622" style=""/>
<circle cx="3768.9" cy="4546.85" r="23.622" style=""/>
<circle cx="4868.9" cy="4746.85" r="23.622" style=""/>
<circle cx="5168.9" cy="4946.85" r="23.622" style=""/>
<circle cx="6167.32" cy="5576.77" r="23.622" style=""/>
<circle cx="5368.9" cy="4546.85" r="23.622" style=""/>
<circle cx="5068.9" cy="4046.85" r="23.622" style=""/>
<circle cx="4868.9" cy="4046.85" r="23.622" style=""/>
<circle cx="4668.9" cy="4046.85" r="23.622" style=""/>
<circle cx="4868.9" cy="3446.85" r="23.622" style=""/>
<circle cx="4668.9" cy="3446.85" r="23.622" style=""/>
<circle cx="4468.9" cy="3446.85" r="23.622" style=""/>
<circle cx="4268.9" cy="3446.85" r="23.622" style=""/>
<circle cx="4068.9" cy="3446.85" r="23.622" style=""/>
<circle cx="4068.9" cy="3246.85" r="23.622" style=""/>
<circle cx="4268.9" cy="3246.85" r="23.622" style=""/>
<circle cx="4468.9" cy="3246.85" r="23.622" style=""/>
<circle cx="4668.9" cy="3246.85" r="23.622" style=""/>
<circle cx="4868.9" cy="3246.85" r="23.622" style=""/>
<circle cx="5068.9" cy="3446.85" r="23.622" style=""/>
<circle cx="5268.9" cy="3446.85" r="23.622" style=""/>
<circle cx="5468.9" cy="3246.85" r="23.622" style=""/>
<circle cx="5468.9" cy="3446.85" r="23.622" style=""/>
<circle cx="5268.9" cy="3246.85" r="23.622" style=""/>
<circle cx="5068.9" cy="3246.85" r="23.622" style=""/>
<circle cx="5368.9" cy="2846.85" r="23.622" style=""/>
<circle cx="5268.9" cy="2746.85" r="23.622" style=""/>
<circle cx="5168.9" cy="2846.85" r="23.622" style=""/>
<circle cx="5068.9" cy="2746.85" r="23.622" style=""/>
<circle cx="4968.9" cy="2846.85" r="23.622" style=""/>
<circle cx="4868.9" cy="2746.85" r="23.622" style=""/>
<circle cx="4768.9" cy="2846.85" r="23.622" style=""/>
<circle cx="4668.9" cy="2746.85" r="23.622" style=""/>
<circle cx="5238.9" cy="1736.85" r="23.622" style=""/>
<circle cx="6167.32" cy="458.661" r="23.622" style=""/>
<circle cx="4969.92" cy="1240.87" r="23.622" style=""/>
<circle cx="4969.92" cy="1094.88" r="23.622" style=""/>
<circle cx="4718.9" cy="796.85" r="23.622" style=""/>
<circle cx="4568.9" cy="796.85" r="23.622" style=""/>
<circle cx="4718.9" cy="1046.85" r="23.622" style=""/>
<circle cx="4568.9" cy="1046.85" r="23.622" style=""/>
<circle cx="4568.9" cy="1216.85" r="23.622" style=""/>
<circle cx="4178.9" cy="1216.85" r="23.622" style=""/>
<circle cx="3968.9" cy="1686.85" r="23.622" style=""/>
<circle cx="3768.9" cy="1216.85" r="23.622" style=""/>
<circle cx="2996.85" cy="1846.85" r="23.622" style=""/>
<circle cx="3868.9" cy="2446.85" r="23.622" style=""/>
<circle cx="3868.9" cy="2596.85" r="23.622" style=""/>
<circle cx="4168.9" cy="2646.85" r="23.622" style=""/>
<circle cx="3868.9" cy="2846.85" r="23.622" style=""/>
<circle cx="3768.9" cy="2746.85" r="23.622" style=""/>
<circle cx="3668.9" cy="2846.85" r="23.622" style=""/>
<circle cx="3068.9" cy="3053.15" r="23.622" style=""/>
<circle cx="2868.9" cy="3346.85" r="23.622" style=""/>
<circle cx="3068.9" cy="3446.85" r="23.622" style=""/>
<circle cx="3462.6" cy="3250" r="23.622" style=""/>
<circle cx="3368.9" cy="3746.85" r="23.622" style=""/>
<circle cx="3268.9" cy="3746.85" r="23.622" style=""/>
<circle cx="3168.9" cy="3746.85" r="23.622" style=""/>
<circle cx="2168.9" cy="4546.85" r="23.622" style=""/>
<circle cx="1968.9" cy="4946.85" r="23.622" style=""/>
<circle cx="1668.9" cy="4746.85" r="23.622" style=""/>
<circle cx="1268.9" cy="4946.85" r="23.622" style=""/>
<circle cx="261.811" cy="5576.77" r="23.622" style=""/>
<circle cx="818.898" cy="4946.85" r="23.622" style=""/>
<circle cx="818.898" cy="4746.85" r="23.622" style=""/>
<circle cx="1068.9" cy="4746.85" r="23.622" style=""/>
<circle cx="1268.9" cy="4546.85" r="23.622" style=""/>
<circle cx="1068.9" cy="4346.85" r="23.622" style=""/>
<circle cx="818.898" cy="4546.85" r="23.622" style=""/>
<circle cx="818.898" cy="4346.85" r="23.622" style=""/>
<circle cx="968.898" cy="3696.85" r="23.622" style=""/>
<circle cx="768.898" cy="3696.85" r="23.622" style=""/>
<circle cx="768.898" cy="3496.85" r="23.622" style=""/>
<circle cx="968.898" cy="3496.85" r="23.622" style=""/>
<circle cx="1518.9" cy="3646.85" r="23.622" style=""/>
<circle cx="1618.9" cy="3646.85" r="23.622" style=""/>
<circle cx="1718.9" cy="3646.85" r="23.622" style=""/>
<circle cx="1118.9" cy="2946.85" r="23.622" style=""/>
<circle cx="768.898" cy="1896.85" r="23.622" style=""/>
<circle cx="768.898" cy="1646.85" r="23.622" style=""/>
<circle cx="768.898" cy="1546.85" r="23.622" style=""/>
<circle cx="768.898" cy="1446.85" r="23.622" style=""/>
<circle cx="1618.9" cy="1846.85" r="23.622" style=""/>
<circle cx="261.811" cy="458.661" r="23.622" style=""/>
</svg>
