<?xml version="1.0" standalone="no"?>
<!DOCTYPE svg PUBLIC "-//W3C//DTD SVG 1.1//EN"
"http://www.w3.org/Graphics/SVG/1.1/DTD/svg11.dtd">
<svg width="308.598" height="280.252" viewBox="0 0 6429.13 5838.58" version="1.1"
xmlns="http://www.w3.org/2000/svg"
xmlns:xlink="http://www.w3.org/1999/xlink">
<polyline points="33.4649,5773.62 33.4649,64.9608 34.0709,58.8148 35.8649,52.9068 38.7769,47.4588 42.6949,42.6868 47.4709,38.7688 52.9169,35.8588 58.8269,34.0688 64.9749,33.4648 4982.69,35.3548 4988.83,35.9628 4994.74,37.7568 5000.18,40.6688 5004.95,44.5848 5008.87,49.3568 5011.77,54.8008 5013.57,60.7088 5014.17,66.8508 5014.17,425.355 5423.62,425.355 5423.62,66.8508 5424.22,60.7148 5426.01,54.8148 5428.91,49.3748 5432.82,44.6048 5437.58,40.6868 5443.02,37.7728 5448.91,35.9728 5455.05,35.3568 6364.11,33.4668 6370.26,34.0588 6376.18,35.8448 6381.64,38.7508 6386.42,42.6668 6390.35,47.4428 6393.26,52.8928 6395.06,58.8088 6395.67,64.9608 6395.67,5773.62 6395.06,5779.77 6393.27,5785.68 6390.36,5791.12 6386.44,5795.89 6381.67,5799.81 6376.22,5802.72 6370.32,5804.51 6364.17,5805.12 64.9609,5805.12 58.8169,5804.51 52.9089,5802.72 47.4629,5799.81 42.6909,5795.89 38.7729,5791.12 35.8629,5785.68 34.0709,5779.77 33.4649,5773.62" style="stroke:rgb(103,198,105);stroke-width:62.992126;fill:none;stroke-opacity:0.5;stroke-linecap:round;stroke-linejoin:round;;fill:none"/>
<polyline points="33.4649,5773.62 33.4649,64.9608 34.0709,58.8148 35.8649,52.9068 38.7769,47.4588 42.6949,42.6868 47.4709,38.7688 52.9169,35.8588 58.8269,34.0688 64.9749,33.4648 4982.69,35.3548 4988.83,35.9628 4994.74,37.7568 5000.18,40.6688 5004.95,44.5848 5008.87,49.3568 5011.77,54.8008 5013.57,60.7088 5014.17,66.8508 5014.17,425.355 5423.62,425.355 5423.62,66.8508 5424.22,60.7148 5426.01,54.8148 5428.91,49.3748 5432.82,44.6048 5437.58,40.6868 5443.02,37.7728 5448.91,35.9728 5455.05,35.3568 6364.11,33.4668 6370.26,34.0588 6376.18,35.8448 6381.64,38.7508 6386.42,42.6668 6390.35,47.4428 6393.26,52.8928 6395.06,58.8088 6395.67,64.9608 6395.67,5773.62 6395.06,5779.77 6393.27,5785.68 6390.36,5791.12 6386.44,5795.89 6381.67,5799.81 6376.22,5802.72 6370.32,5804.51 6364.17,5805.12 64.9609,5805.12 58.8169,5804.51 52.9089,5802.72 47.4629,5799.81 42.6909,5795.89 38.7729,5791.12 35.8629,5785.68 34.0709,5779.77 33.4649,5773.62" style="stroke:rgb(0,0,0);stroke-width:1px;fill:none;stroke-opacity:1;stroke-linecap:round;stroke-linejoin:round;;fill:none"/>
</svg>
