<?xml version="1.0" standalone="no"?>
 <!DOCTYPE svg PUBLIC "-//W3C//DTD SVG 1.1//EN" 
 "http://www.w3.org/Graphics/SVG/1.1/DTD/svg11.dtd"> 
<svg xmlns="http://www.w3.org/2000/svg" version="1.1" 
    width="29.7002cm" height="21.0007cm" viewBox="0 0 116930 82680 ">
<title>SVG Picture created as powerstage-F_Mask.svg date 2020/04/27 01:12:34 </title>
  <desc>Picture generated by PCBNEW </desc>
<g style="fill:#000000; fill-opacity:1;stroke:#000000; stroke-opacity:1;
stroke-linecap:round; stroke-linejoin:round; "
 transform="translate(0 0) scale(1 1)">
</g>
<g style="fill:#000000; fill-opacity:0.0; 
stroke:#000000; stroke-width:-0.000393701; stroke-opacity:1; 
stroke-linecap:round; stroke-linejoin:round;">
</g>
<g style="fill:#000000; fill-opacity:1.0; 
stroke:#000000; stroke-width:0; stroke-opacity:1; 
stroke-linecap:round; stroke-linejoin:round;">
<path style="fill:#000000; fill-opacity:1.0; 
stroke:#000000; stroke-width:0; stroke-opacity:1; 
stroke-linecap:round; stroke-linejoin:round;fill-rule:evenodd;"
d="M 12572.2,11151.2
12631,11162.8
12695.6,11189.6
12753.7,11228.4
12803.1,11277.8
12841.9,11335.9
12868.7,11400.5
12882.3,11469
12882.3,11538.9
12868.7,11607.4
12841.9,11672
12803.1,11730.1
12753.7,11779.5
12695.6,11818.3
12631,11845
12572.2,11856.7
12562.5,11858.7
12492.6,11858.7
12482.9,11856.7
12424.1,11845
12359.5,11818.3
12301.4,11779.5
12252,11730.1
12213.2,11672
12186.5,11607.4
12172.8,11538.9
12172.8,11469
12186.5,11400.5
12213.2,11335.9
12252,11277.8
12301.4,11228.4
12359.5,11189.6
12424.1,11162.8
12482.9,11151.2
12492.6,11149.2
12562.5,11149.2
Z" /> 
<path style="fill:#000000; fill-opacity:1.0; 
stroke:#000000; stroke-width:0; stroke-opacity:1; 
stroke-linecap:round; stroke-linejoin:round;fill-rule:evenodd;"
d="M 11882.3,11858.7
11172.8,11858.7
11172.8,11149.2
11882.3,11149.2
Z" /> 
<path style="fill:#000000; fill-opacity:1.0; 
stroke:#000000; stroke-width:0; stroke-opacity:1; 
stroke-linecap:round; stroke-linejoin:round;fill-rule:evenodd;"
d="M 7557.09,11858.7
6847.64,11858.7
6847.64,11149.2
7557.09,11149.2
Z" /> 
<path style="fill:#000000; fill-opacity:1.0; 
stroke:#000000; stroke-width:0; stroke-opacity:1; 
stroke-linecap:round; stroke-linejoin:round;fill-rule:evenodd;"
d="M 8247.05,11151.2
8305.83,11162.8
8370.39,11189.6
8428.49,11228.4
8477.89,11277.8
8516.71,11335.9
8543.46,11400.5
8557.09,11469
8557.09,11538.9
8543.46,11607.4
8516.71,11672
8477.89,11730.1
8428.49,11779.5
8370.39,11818.3
8305.83,11845
8247.05,11856.7
8237.3,11858.7
8167.42,11858.7
8157.67,11856.7
8098.89,11845
8034.34,11818.3
7976.24,11779.5
7926.83,11730.1
7888.01,11672
7861.27,11607.4
7847.64,11538.9
7847.64,11469
7861.27,11400.5
7888.01,11335.9
7926.83,11277.8
7976.24,11228.4
8034.34,11189.6
8098.89,11162.8
8157.67,11151.2
8167.42,11149.2
8237.3,11149.2
Z" /> 
<path style="fill:#000000; fill-opacity:1.0; 
stroke:#000000; stroke-width:0; stroke-opacity:1; 
stroke-linecap:round; stroke-linejoin:round;fill-rule:evenodd;"
d="M 15340.4,10811.5
15384.1,10820.2
15466.6,10854.3
15540.8,10903.9
15604,10967
15653.5,11041.3
15687.7,11123.7
15705.1,11211.3
15705.1,11300.5
15687.7,11388.1
15653.5,11470.6
15604,11544.8
15540.8,11607.9
15466.6,11657.5
15384.1,11691.6
15340.4,11700.3
15296.6,11709.1
15207.3,11709.1
15163.6,11700.3
15119.8,11691.6
15037.3,11657.5
14963.1,11607.9
14900,11544.8
14850.4,11470.6
14816.2,11388.1
14798.8,11300.5
14798.8,11211.3
14816.2,11123.7
14850.4,11041.3
14900,10967
14963.1,10903.9
15037.3,10854.3
15119.8,10820.2
15163.6,10811.5
15207.3,10802.8
15296.6,10802.8
Z" /> 
<path style="fill:#000000; fill-opacity:1.0; 
stroke:#000000; stroke-width:0; stroke-opacity:1; 
stroke-linecap:round; stroke-linejoin:round;fill-rule:evenodd;"
d="M 4590.37,10811.5
4634.15,10820.2
4716.62,10854.3
4790.83,10903.9
4853.95,10967
4903.54,11041.3
4937.7,11123.7
4955.12,11211.3
4955.12,11300.5
4937.7,11388.1
4903.54,11470.6
4853.95,11544.8
4790.83,11607.9
4716.62,11657.5
4634.15,11691.6
4590.37,11700.3
4546.6,11709.1
4457.34,11709.1
4413.56,11700.3
4369.79,11691.6
4287.32,11657.5
4213.1,11607.9
4149.98,11544.8
4100.39,11470.6
4066.23,11388.1
4048.82,11300.5
4048.82,11211.3
4066.23,11123.7
4100.39,11041.3
4149.98,10967
4213.1,10903.9
4287.32,10854.3
4369.79,10820.2
4413.56,10811.5
4457.34,10802.8
4546.6,10802.8
Z" /> 
<path style="fill:#000000; fill-opacity:1.0; 
stroke:#000000; stroke-width:0; stroke-opacity:1; 
stroke-linecap:round; stroke-linejoin:round;fill-rule:evenodd;"
d="M 9235.83,9498.03
7817.72,9498.03
7817.72,7213.78
9235.83,7213.78
Z" /> 
<path style="fill:#000000; fill-opacity:1.0; 
stroke:#000000; stroke-width:0; stroke-opacity:1; 
stroke-linecap:round; stroke-linejoin:round;fill-rule:evenodd;"
d="M 11086.2,9498.03
9668.11,9498.03
9668.11,7213.78
11086.2,7213.78
Z" /> 
<path style="fill:#000000; fill-opacity:1.0; 
stroke:#000000; stroke-width:0; stroke-opacity:1; 
stroke-linecap:round; stroke-linejoin:round;fill-rule:evenodd;"
d="M 7205.82,8116.26
7220.01,8120.56
7233.08,8127.55
7244.54,8136.96
7253.95,8148.42
7260.93,8161.49
7265.24,8175.68
7266.93,8192.85
7266.93,9415.03
7265.24,9432.2
7260.93,9446.38
7253.95,9459.46
7244.54,9470.92
7233.08,9480.32
7220.01,9487.31
7205.82,9491.62
7188.65,9493.31
6793.24,9493.31
6776.07,9491.62
6761.88,9487.31
6748.81,9480.32
6737.35,9470.92
6727.94,9459.46
6720.96,9446.38
6716.65,9432.2
6714.96,9415.03
6714.96,8192.85
6716.65,8175.68
6720.96,8161.49
6727.94,8148.42
6737.35,8136.96
6748.81,8127.55
6761.88,8120.56
6776.07,8116.26
6793.24,8114.57
7188.65,8114.57
Z" /> 
<path style="fill:#000000; fill-opacity:1.0; 
stroke:#000000; stroke-width:0; stroke-opacity:1; 
stroke-linecap:round; stroke-linejoin:round;fill-rule:evenodd;"
d="M 5453.85,8116.26
5468.04,8120.56
5481.11,8127.55
5492.57,8136.96
5501.98,8148.42
5508.97,8161.49
5513.27,8175.68
5514.96,8192.85
5514.96,9415.03
5513.27,9432.2
5508.97,9446.38
5501.98,9459.46
5492.57,9470.92
5481.11,9480.32
5468.04,9487.31
5453.85,9491.62
5436.68,9493.31
5041.27,9493.31
5024.1,9491.62
5009.91,9487.31
4996.84,9480.32
4985.38,9470.92
4975.98,9459.46
4968.99,9446.38
4964.68,9432.2
4962.99,9415.03
4962.99,8192.85
4964.68,8175.68
4968.99,8161.49
4975.98,8148.42
4985.38,8136.96
4996.84,8127.55
5009.91,8120.56
5024.1,8116.26
5041.27,8114.57
5436.68,8114.57
Z" /> 
<path style="fill:#000000; fill-opacity:1.0; 
stroke:#000000; stroke-width:0; stroke-opacity:1; 
stroke-linecap:round; stroke-linejoin:round;fill-rule:evenodd;"
d="M 12900.2,8643.98
12918.6,8649.58
12935.6,8658.66
12950.5,8670.88
12962.7,8685.77
12971.8,8702.76
12977.4,8721.19
12979.5,8742.78
12979.5,9181.1
12977.4,9202.68
12971.8,9221.12
12962.7,9238.1
12950.5,9253
12935.6,9265.22
12918.6,9274.3
12900.2,9279.89
12878.6,9282.02
12351.3,9282.02
12329.7,9279.89
12311.3,9274.3
12294.3,9265.22
12279.4,9253
12267.2,9238.1
12258.1,9221.12
12252.5,9202.68
12250.4,9181.1
12250.4,8742.78
12252.5,8721.19
12258.1,8702.76
12267.2,8685.77
12279.4,8670.88
12294.3,8658.66
12311.3,8649.58
12329.7,8643.98
12351.3,8641.86
12878.6,8641.86
Z" /> 
<path style="fill:#000000; fill-opacity:1.0; 
stroke:#000000; stroke-width:0; stroke-opacity:1; 
stroke-linecap:round; stroke-linejoin:round;fill-rule:evenodd;"
d="M 15150,9038.98
14479.9,9038.98
14479.9,8368.9
15150,8368.9
Z" /> 
<path style="fill:#000000; fill-opacity:1.0; 
stroke:#000000; stroke-width:0; stroke-opacity:1; 
stroke-linecap:round; stroke-linejoin:round;fill-rule:evenodd;"
d="M 14912.7,7397.52
14973.7,7422.78
15028.5,7459.44
15075.2,7506.11
15111.9,7560.98
15137.1,7621.96
15150,7686.69
15150,7752.68
15137.1,7817.41
15111.9,7878.39
15075.2,7933.26
15028.5,7979.93
14973.7,8016.59
14912.7,8041.85
14848,8054.72
14782,8054.72
14717.2,8041.85
14656.3,8016.59
14601.4,7979.93
14554.7,7933.26
14518.1,7878.39
14492.8,7817.41
14479.9,7752.68
14479.9,7686.69
14492.8,7621.96
14518.1,7560.98
14554.7,7506.11
14601.4,7459.44
14656.3,7422.78
14717.2,7397.52
14782,7384.65
14848,7384.65
Z" /> 
<path style="fill:#000000; fill-opacity:1.0; 
stroke:#000000; stroke-width:0; stroke-opacity:1; 
stroke-linecap:round; stroke-linejoin:round;fill-rule:evenodd;"
d="M 12900.2,7327.98
12918.6,7333.58
12935.6,7342.66
12950.5,7354.88
12962.7,7369.77
12971.8,7386.76
12977.4,7405.19
12979.5,7426.78
12979.5,7865.1
12977.4,7886.68
12971.8,7905.12
12962.7,7922.1
12950.5,7937
12935.6,7949.22
12918.6,7958.3
12900.2,7963.89
12878.6,7966.02
12351.3,7966.02
12329.7,7963.89
12311.3,7958.3
12294.3,7949.22
12279.4,7937
12267.2,7922.1
12258.1,7905.12
12252.5,7886.68
12250.4,7865.1
12250.4,7426.78
12252.5,7405.19
12258.1,7386.76
12267.2,7369.77
12279.4,7354.88
12294.3,7342.66
12311.3,7333.58
12329.7,7327.98
12351.3,7325.86
12878.6,7325.86
Z" /> 
<path style="fill:#000000; fill-opacity:1.0; 
stroke:#000000; stroke-width:0; stroke-opacity:1; 
stroke-linecap:round; stroke-linejoin:round;fill-rule:evenodd;"
d="M 5662.6,7560.24
5268.11,7560.24
5268.11,7047.64
5662.6,7047.64
Z" /> 
<path style="fill:#000000; fill-opacity:1.0; 
stroke:#000000; stroke-width:0; stroke-opacity:1; 
stroke-linecap:round; stroke-linejoin:round;fill-rule:evenodd;"
d="M 6961.81,7560.24
6567.32,7560.24
6567.32,7047.64
6961.81,7047.64
Z" /> 
<path style="fill:#000000; fill-opacity:1.0; 
stroke:#000000; stroke-width:0; stroke-opacity:1; 
stroke-linecap:round; stroke-linejoin:round;fill-rule:evenodd;"
d="M 13243.2,6105.63
13257.4,6109.93
13270.5,6116.92
13281.9,6126.33
13291.3,6137.79
13298.3,6150.86
13302.6,6165.05
13304.3,6182.22
13304.3,6577.63
13302.6,6594.8
13298.3,6608.98
13291.3,6622.06
13281.9,6633.52
13270.5,6642.92
13257.4,6649.91
13243.2,6654.21
13226.1,6655.91
12003.9,6655.91
11986.7,6654.21
11972.5,6649.91
11959.4,6642.92
11948,6633.52
11938.6,6622.06
11931.6,6608.98
11927.3,6594.8
11925.6,6577.63
11925.6,6182.22
11927.3,6165.05
11931.6,6150.86
11938.6,6137.79
11948,6126.33
11959.4,6116.92
11972.5,6109.93
11986.7,6105.63
12003.9,6103.94
13226.1,6103.94
Z" /> 
<path style="fill:#000000; fill-opacity:1.0; 
stroke:#000000; stroke-width:0; stroke-opacity:1; 
stroke-linecap:round; stroke-linejoin:round;fill-rule:evenodd;"
d="M 14172.6,5806.25
14247.9,5837.43
14247.9,5837.43
14315.6,5882.69
14373.2,5940.3
14402,5983.3
14418.5,6008.03
14449.7,6083.3
14465.5,6163.2
14465.5,6244.67
14449.7,6324.57
14431.8,6367.58
14418.5,6399.84
14373.2,6467.58
14315.6,6525.18
14247.9,6570.45
14247.9,6570.45
14247.9,6570.45
14172.6,6601.62
14092.7,6617.52
14011.2,6617.52
13931.3,6601.62
13856.1,6570.45
13856.1,6570.45
13856.1,6570.45
13788.3,6525.18
13730.7,6467.58
13685.5,6399.84
13672.1,6367.58
13654.3,6324.57
13638.4,6244.67
13638.4,6163.2
13654.3,6083.3
13685.5,6008.03
13702,5983.3
13730.7,5940.3
13788.3,5882.69
13856.1,5837.43
13856.1,5837.43
13931.3,5806.25
14011.2,5790.36
14092.7,5790.36
Z" /> 
<path style="fill:#000000; fill-opacity:1.0; 
stroke:#000000; stroke-width:0; stroke-opacity:1; 
stroke-linecap:round; stroke-linejoin:round;fill-rule:evenodd;"
d="M 6235.6,5706.25
6310.86,5737.43
6310.86,5737.43
6378.6,5782.69
6436.21,5840.3
6481.47,5908.03
6512.65,5983.3
6528.54,6063.2
6528.54,6144.67
6512.65,6224.57
6504.32,6244.67
6481.47,6299.84
6436.21,6367.58
6378.6,6425.18
6310.86,6470.45
6310.86,6470.45
6310.86,6470.45
6235.6,6501.62
6155.7,6517.52
6074.23,6517.52
5994.32,6501.62
5919.06,6470.45
5919.06,6470.45
5919.06,6470.45
5851.32,6425.18
5793.71,6367.58
5748.45,6299.84
5725.6,6244.67
5717.28,6224.57
5701.38,6144.67
5701.38,6063.2
5717.28,5983.3
5748.45,5908.03
5793.71,5840.3
5851.32,5782.69
5919.06,5737.43
5919.06,5737.43
5994.32,5706.25
6074.23,5690.36
6155.7,5690.36
Z" /> 
<path style="fill:#000000; fill-opacity:1.0; 
stroke:#000000; stroke-width:0; stroke-opacity:1; 
stroke-linecap:round; stroke-linejoin:round;fill-rule:evenodd;"
d="M 10535.6,5706.25
10610.9,5737.43
10610.9,5737.43
10678.6,5782.69
10736.2,5840.3
10781.5,5908.03
10812.6,5983.3
10828.5,6063.2
10828.5,6144.67
10812.6,6224.57
10804.3,6244.67
10781.5,6299.84
10736.2,6367.58
10678.6,6425.18
10610.9,6470.45
10610.9,6470.45
10610.9,6470.45
10535.6,6501.62
10455.7,6517.52
10374.2,6517.52
10294.3,6501.62
10219.1,6470.45
10219.1,6470.45
10219.1,6470.45
10151.3,6425.18
10093.7,6367.58
10048.5,6299.84
10025.6,6244.67
10017.3,6224.57
10001.4,6144.67
10001.4,6063.2
10017.3,5983.3
10048.5,5908.03
10093.7,5840.3
10151.3,5782.69
10219.1,5737.43
10219.1,5737.43
10294.3,5706.25
10374.2,5690.36
10455.7,5690.36
Z" /> 
<path style="fill:#000000; fill-opacity:1.0; 
stroke:#000000; stroke-width:0; stroke-opacity:1; 
stroke-linecap:round; stroke-linejoin:round;fill-rule:evenodd;"
d="M 8635.6,5706.25
8710.86,5737.43
8710.86,5737.43
8778.6,5782.69
8836.21,5840.3
8881.47,5908.03
8912.65,5983.3
8928.54,6063.2
8928.54,6144.67
8912.65,6224.57
8904.32,6244.67
8881.47,6299.84
8836.21,6367.58
8778.6,6425.18
8710.86,6470.45
8710.86,6470.45
8710.86,6470.45
8635.6,6501.62
8555.7,6517.52
8474.23,6517.52
8394.32,6501.62
8319.06,6470.45
8319.06,6470.45
8319.06,6470.45
8251.32,6425.18
8193.71,6367.58
8148.45,6299.84
8125.6,6244.67
8117.28,6224.57
8101.38,6144.67
8101.38,6063.2
8117.28,5983.3
8148.45,5908.03
8193.71,5840.3
8251.32,5782.69
8319.06,5737.43
8319.06,5737.43
8394.32,5706.25
8474.23,5690.36
8555.7,5690.36
Z" /> 
<path style="fill:#000000; fill-opacity:1.0; 
stroke:#000000; stroke-width:0; stroke-opacity:1; 
stroke-linecap:round; stroke-linejoin:round;fill-rule:evenodd;"
d="M 15769.7,5958.66
15060.2,5958.66
15060.2,5249.21
15769.7,5249.21
Z" /> 
<path style="fill:#000000; fill-opacity:1.0; 
stroke:#000000; stroke-width:0; stroke-opacity:1; 
stroke-linecap:round; stroke-linejoin:round;fill-rule:evenodd;"
d="M 6384.02,5242.91
5339.92,5242.91
5339.92,4415.35
6384.02,4415.35
Z" /> 
<path style="fill:#000000; fill-opacity:1.0; 
stroke:#000000; stroke-width:0; stroke-opacity:1; 
stroke-linecap:round; stroke-linejoin:round;fill-rule:evenodd;"
d="M 14172.6,4406.25
14247.9,4437.43
14247.9,4437.43
14311.1,4479.66
14315.6,4482.69
14373.2,4540.3
14418.5,4608.03
14449.7,4683.3
14465.5,4763.2
14465.5,4844.67
14449.7,4924.57
14418.5,4999.84
14418.5,4999.84
14373.2,5067.58
14315.6,5125.18
14247.9,5170.45
14247.9,5170.45
14247.9,5170.45
14172.6,5201.62
14092.7,5217.52
14011.2,5217.52
13931.3,5201.62
13856.1,5170.45
13856.1,5170.45
13856.1,5170.45
13788.3,5125.18
13730.7,5067.58
13685.5,4999.84
13685.5,4999.84
13654.3,4924.57
13638.4,4844.67
13638.4,4763.2
13654.3,4683.3
13685.5,4608.03
13730.7,4540.3
13788.3,4482.69
13792.9,4479.66
13856.1,4437.43
13856.1,4437.43
13931.3,4406.25
14011.2,4390.36
14092.7,4390.36
Z" /> 
<path style="fill:#000000; fill-opacity:1.0; 
stroke:#000000; stroke-width:0; stroke-opacity:1; 
stroke-linecap:round; stroke-linejoin:round;fill-rule:evenodd;"
d="M 9737.2,4495.95
9755.64,4501.54
9772.62,4510.63
9787.52,4522.85
9799.74,4537.74
9808.82,4554.73
9814.41,4573.16
9816.54,4594.75
9816.54,5033.06
9814.41,5054.65
9808.82,5073.08
9799.74,5090.07
9787.52,5104.96
9772.62,5117.19
9755.64,5126.27
9737.2,5131.86
9715.61,5133.98
9188.32,5133.98
9166.73,5131.86
9148.3,5126.27
9131.31,5117.19
9116.42,5104.96
9104.2,5090.07
9095.12,5073.08
9089.53,5054.65
9087.4,5033.06
9087.4,4594.75
9089.53,4573.16
9095.12,4554.73
9104.2,4537.74
9116.42,4522.85
9131.31,4510.63
9148.3,4501.54
9166.73,4495.95
9188.32,4493.83
9715.61,4493.83
Z" /> 
<path style="fill:#000000; fill-opacity:1.0; 
stroke:#000000; stroke-width:0; stroke-opacity:1; 
stroke-linecap:round; stroke-linejoin:round;fill-rule:evenodd;"
d="M 8508.27,5002.76
7995.67,5002.76
7995.67,4608.27
8508.27,4608.27
Z" /> 
<path style="fill:#000000; fill-opacity:1.0; 
stroke:#000000; stroke-width:0; stroke-opacity:1; 
stroke-linecap:round; stroke-linejoin:round;fill-rule:evenodd;"
d="M 15459.7,4251.15
15518.4,4262.84
15583,4289.58
15641.1,4328.4
15690.5,4377.81
15729.3,4435.91
15756.1,4500.47
15769.7,4569
15769.7,4638.87
15756.1,4707.41
15729.3,4771.96
15690.5,4830.06
15641.1,4879.47
15583,4918.29
15518.4,4945.03
15459.7,4956.72
15449.9,4958.66
15380,4958.66
15370.3,4956.72
15311.5,4945.03
15246.9,4918.29
15188.8,4879.47
15139.4,4830.06
15100.6,4771.96
15073.9,4707.41
15060.2,4638.87
15060.2,4569
15073.9,4500.47
15100.6,4435.91
15139.4,4377.81
15188.8,4328.4
15246.9,4289.58
15311.5,4262.84
15370.3,4251.15
15380,4249.21
15449.9,4249.21
Z" /> 
<path style="fill:#000000; fill-opacity:1.0; 
stroke:#000000; stroke-width:0; stroke-opacity:1; 
stroke-linecap:round; stroke-linejoin:round;fill-rule:evenodd;"
d="M 4537.2,4295.95
4555.64,4301.54
4572.62,4310.63
4587.52,4322.85
4599.74,4337.74
4608.82,4354.73
4614.41,4373.16
4616.54,4394.75
4616.54,4833.06
4614.41,4854.65
4608.82,4873.08
4599.74,4890.07
4587.52,4904.96
4572.62,4917.19
4555.64,4926.27
4537.2,4931.86
4515.61,4933.98
3988.32,4933.98
3966.73,4931.86
3948.3,4926.27
3931.31,4917.19
3916.42,4904.96
3904.2,4890.07
3895.12,4873.08
3889.53,4854.65
3887.4,4833.06
3887.4,4394.75
3889.53,4373.16
3895.12,4354.73
3904.2,4337.74
3916.42,4322.85
3931.31,4310.63
3948.3,4301.54
3966.73,4295.95
3988.32,4293.83
4515.61,4293.83
Z" /> 
<path style="fill:#000000; fill-opacity:1.0; 
stroke:#000000; stroke-width:0; stroke-opacity:1; 
stroke-linecap:round; stroke-linejoin:round;fill-rule:evenodd;"
d="M 7458.7,4373.32
7479.38,4379.59
7498.43,4389.78
7515.12,4403.48
7528.83,4420.18
7539.01,4439.23
7545.28,4459.9
7547.64,4483.82
7547.64,4798.27
7545.28,4822.19
7539.01,4842.86
7528.83,4861.91
7515.12,4878.61
7498.43,4892.32
7479.38,4902.5
7458.7,4908.77
7434.79,4911.12
7069.15,4911.12
7045.24,4908.77
7024.56,4902.5
7005.51,4892.32
6988.81,4878.61
6975.11,4861.91
6964.93,4842.86
6958.65,4822.19
6956.3,4798.27
6956.3,4483.82
6958.65,4459.9
6964.93,4439.23
6975.11,4420.18
6988.81,4403.48
7005.51,4389.78
7024.56,4379.59
7045.24,4373.32
7069.15,4370.97
7434.79,4370.97
Z" /> 
<path style="fill:#000000; fill-opacity:1.0; 
stroke:#000000; stroke-width:0; stroke-opacity:1; 
stroke-linecap:round; stroke-linejoin:round;fill-rule:evenodd;"
d="M 13243.2,4353.66
13257.4,4357.96
13270.5,4364.95
13281.9,4374.36
13291.3,4385.82
13298.3,4398.89
13302.6,4413.08
13304.3,4430.25
13304.3,4825.66
13302.6,4842.83
13298.3,4857.01
13291.3,4870.09
13281.9,4881.55
13270.5,4890.95
13257.4,4897.94
13243.2,4902.25
13226.1,4903.94
12003.9,4903.94
11986.7,4902.25
11972.5,4897.94
11959.4,4890.95
11948,4881.55
11938.6,4870.09
11931.6,4857.01
11927.3,4842.83
11925.6,4825.66
11925.6,4430.25
11927.3,4413.08
11931.6,4398.89
11938.6,4385.82
11948,4374.36
11959.4,4364.95
11972.5,4357.96
11986.7,4353.66
12003.9,4351.97
13226.1,4351.97
Z" /> 
<path style="fill:#000000; fill-opacity:1.0; 
stroke:#000000; stroke-width:0; stroke-opacity:1; 
stroke-linecap:round; stroke-linejoin:round;fill-rule:evenodd;"
d="M 10658.7,4173.32
10679.4,4179.59
10698.4,4189.78
10715.1,4203.48
10728.8,4220.18
10739,4239.23
10745.3,4259.9
10747.6,4283.82
10747.6,4598.27
10745.3,4622.19
10739,4642.86
10728.8,4661.91
10715.1,4678.61
10698.4,4692.32
10679.4,4702.5
10658.7,4708.77
10634.8,4711.12
10269.1,4711.12
10245.2,4708.77
10224.6,4702.5
10205.5,4692.32
10188.8,4678.61
10175.1,4661.91
10164.9,4642.86
10158.7,4622.19
10156.3,4598.27
10156.3,4283.82
10158.7,4259.9
10164.9,4239.23
10175.1,4220.18
10188.8,4203.48
10205.5,4189.78
10224.6,4179.59
10245.2,4173.32
10269.1,4170.97
10634.8,4170.97
Z" /> 
<path style="fill:#000000; fill-opacity:1.0; 
stroke:#000000; stroke-width:0; stroke-opacity:1; 
stroke-linecap:round; stroke-linejoin:round;fill-rule:evenodd;"
d="M 15459.7,3251.15
15518.4,3262.84
15583,3289.58
15641.1,3328.4
15690.5,3377.81
15729.3,3435.91
15756.1,3500.47
15769.7,3569
15769.7,3638.87
15756.1,3707.41
15729.3,3771.96
15690.5,3830.06
15641.1,3879.47
15583,3918.29
15518.4,3945.03
15459.7,3956.72
15449.9,3958.66
15380,3958.66
15370.3,3956.72
15311.5,3945.03
15246.9,3918.29
15188.8,3879.47
15139.4,3830.06
15100.6,3771.96
15073.9,3707.41
15060.2,3638.87
15060.2,3569
15073.9,3500.47
15100.6,3435.91
15139.4,3377.81
15188.8,3328.4
15246.9,3289.58
15311.5,3262.84
15370.3,3251.15
15380,3249.21
15449.9,3249.21
Z" /> 
<path style="fill:#000000; fill-opacity:1.0; 
stroke:#000000; stroke-width:0; stroke-opacity:1; 
stroke-linecap:round; stroke-linejoin:round;fill-rule:evenodd;"
d="M 7458.7,3403.04
7479.38,3409.31
7498.43,3419.5
7515.12,3433.2
7528.83,3449.9
7539.01,3468.95
7545.28,3489.62
7547.64,3513.54
7547.64,3827.99
7545.28,3851.91
7539.01,3872.58
7528.83,3891.63
7515.12,3908.33
7498.43,3922.04
7479.38,3932.22
7458.7,3938.49
7434.79,3940.84
7069.15,3940.84
7045.24,3938.49
7024.56,3932.22
7005.51,3922.04
6988.81,3908.33
6975.11,3891.63
6964.93,3872.58
6958.65,3851.91
6956.3,3827.99
6956.3,3513.54
6958.65,3489.62
6964.93,3468.95
6975.11,3449.9
6988.81,3433.2
7005.51,3419.5
7024.56,3409.31
7045.24,3403.04
7069.15,3400.69
7434.79,3400.69
Z" /> 
<path style="fill:#000000; fill-opacity:1.0; 
stroke:#000000; stroke-width:0; stroke-opacity:1; 
stroke-linecap:round; stroke-linejoin:round;fill-rule:evenodd;"
d="M 6384.02,3896.46
5339.92,3896.46
5339.92,3068.9
6384.02,3068.9
Z" /> 
<path style="fill:#000000; fill-opacity:1.0; 
stroke:#000000; stroke-width:0; stroke-opacity:1; 
stroke-linecap:round; stroke-linejoin:round;fill-rule:evenodd;"
d="M 9737.2,3179.95
9755.64,3185.54
9772.62,3194.63
9787.52,3206.85
9799.74,3221.74
9808.82,3238.73
9814.41,3257.16
9816.54,3278.75
9816.54,3717.06
9814.41,3738.65
9808.82,3757.08
9799.74,3774.07
9787.52,3788.96
9772.62,3801.19
9755.64,3810.27
9737.2,3815.86
9715.61,3817.98
9188.32,3817.98
9166.73,3815.86
9148.3,3810.27
9131.31,3801.19
9116.42,3788.96
9104.2,3774.07
9095.12,3757.08
9089.53,3738.65
9087.4,3717.06
9087.4,3278.75
9089.53,3257.16
9095.12,3238.73
9104.2,3221.74
9116.42,3206.85
9131.31,3194.63
9148.3,3185.54
9166.73,3179.95
9188.32,3177.83
9715.61,3177.83
Z" /> 
<path style="fill:#000000; fill-opacity:1.0; 
stroke:#000000; stroke-width:0; stroke-opacity:1; 
stroke-linecap:round; stroke-linejoin:round;fill-rule:evenodd;"
d="M 10658.7,3203.04
10679.4,3209.31
10698.4,3219.5
10715.1,3233.2
10728.8,3249.9
10739,3268.95
10745.3,3289.62
10747.6,3313.54
10747.6,3627.99
10745.3,3651.91
10739,3672.58
10728.8,3691.63
10715.1,3708.33
10698.4,3722.04
10679.4,3732.22
10658.7,3738.49
10634.8,3740.84
10269.1,3740.84
10245.2,3738.49
10224.6,3732.22
10205.5,3722.04
10188.8,3708.33
10175.1,3691.63
10164.9,3672.58
10158.7,3651.91
10156.3,3627.99
10156.3,3313.54
10158.7,3289.62
10164.9,3268.95
10175.1,3249.9
10188.8,3233.2
10205.5,3219.5
10224.6,3209.31
10245.2,3203.04
10269.1,3200.69
10634.8,3200.69
Z" /> 
<path style="fill:#000000; fill-opacity:1.0; 
stroke:#000000; stroke-width:0; stroke-opacity:1; 
stroke-linecap:round; stroke-linejoin:round;fill-rule:evenodd;"
d="M 8508.27,3703.54
7995.67,3703.54
7995.67,3309.06
8508.27,3309.06
Z" /> 
<path style="fill:#000000; fill-opacity:1.0; 
stroke:#000000; stroke-width:0; stroke-opacity:1; 
stroke-linecap:round; stroke-linejoin:round;fill-rule:evenodd;"
d="M 4537.2,2979.95
4555.64,2985.54
4572.62,2994.63
4587.52,3006.85
4599.74,3021.74
4608.82,3038.73
4614.41,3057.16
4616.54,3078.75
4616.54,3517.06
4614.41,3538.65
4608.82,3557.08
4599.74,3574.07
4587.52,3588.96
4572.62,3601.19
4555.64,3610.27
4537.2,3615.86
4515.61,3617.98
3988.32,3617.98
3966.73,3615.86
3948.3,3610.27
3931.31,3601.19
3916.42,3588.96
3904.2,3574.07
3895.12,3557.08
3889.53,3538.65
3887.4,3517.06
3887.4,3078.75
3889.53,3057.16
3895.12,3038.73
3904.2,3021.74
3916.42,3006.85
3931.31,2994.63
3948.3,2985.54
3966.73,2979.95
3988.32,2977.83
4515.61,2977.83
Z" /> 
<path style="fill:#000000; fill-opacity:1.0; 
stroke:#000000; stroke-width:0; stroke-opacity:1; 
stroke-linecap:round; stroke-linejoin:round;fill-rule:evenodd;"
d="M 12999.6,3412.2
12605.1,3412.2
12605.1,2899.61
12999.6,2899.61
Z" /> 
<path style="fill:#000000; fill-opacity:1.0; 
stroke:#000000; stroke-width:0; stroke-opacity:1; 
stroke-linecap:round; stroke-linejoin:round;fill-rule:evenodd;"
d="M 14298.8,3412.2
13904.3,3412.2
13904.3,2899.61
14298.8,2899.61
Z" /> 
<path style="fill:#000000; fill-opacity:1.0; 
stroke:#000000; stroke-width:0; stroke-opacity:1; 
stroke-linecap:round; stroke-linejoin:round;fill-rule:evenodd;"
d="M 15459.7,2251.15
15518.4,2262.84
15583,2289.58
15641.1,2328.4
15690.5,2377.81
15729.3,2435.91
15756.1,2500.47
15769.7,2569
15769.7,2638.87
15756.1,2707.41
15729.3,2771.96
15690.5,2830.06
15641.1,2879.47
15583,2918.29
15518.4,2945.03
15459.7,2956.72
15449.9,2958.66
15380,2958.66
15370.3,2956.72
15311.5,2945.03
15246.9,2918.29
15188.8,2879.47
15139.4,2830.06
15100.6,2771.96
15073.9,2707.41
15060.2,2638.87
15060.2,2569
15073.9,2500.47
15100.6,2435.91
15139.4,2377.81
15188.8,2328.4
15246.9,2289.58
15311.5,2262.84
15370.3,2251.15
15380,2249.21
15449.9,2249.21
Z" /> 
<path style="fill:#000000; fill-opacity:1.0; 
stroke:#000000; stroke-width:0; stroke-opacity:1; 
stroke-linecap:round; stroke-linejoin:round;fill-rule:evenodd;"
d="M 7572.6,1558.22
7615.73,1576.09
7647.87,1589.4
7715.61,1634.66
7773.22,1692.26
7784.08,1708.53
7818.48,1760
7849.65,1835.27
7865.55,1915.17
7865.55,1996.64
7849.65,2076.54
7818.48,2151.81
7818.48,2151.81
7773.22,2219.55
7715.61,2277.15
7647.87,2322.41
7647.87,2322.41
7647.87,2322.41
7572.6,2353.59
7492.7,2369.48
7411.23,2369.48
7331.33,2353.59
7256.07,2322.41
7256.07,2322.41
7256.07,2322.41
7188.33,2277.15
7130.72,2219.55
7085.46,2151.81
7085.46,2151.81
7054.28,2076.54
7038.39,1996.64
7038.39,1915.17
7054.28,1835.27
7085.46,1760
7119.85,1708.53
7130.72,1692.26
7188.33,1634.66
7256.07,1589.4
7288.2,1576.09
7331.33,1558.22
7411.23,1542.33
7492.7,1542.33
Z" /> 
<path style="fill:#000000; fill-opacity:1.0; 
stroke:#000000; stroke-width:0; stroke-opacity:1; 
stroke-linecap:round; stroke-linejoin:round;fill-rule:evenodd;"
d="M 5705.12,1209.06
5325.19,1209.06
5315.59,1210
5306.36,1212.8
5297.85,1217.35
5290.4,1223.47
5284.28,1230.93
5279.73,1239.43
5276.93,1248.67
5275.98,1258.27
5276.93,1267.87
5279.73,1277.1
5284.28,1285.61
5290.4,1293.07
5297.85,1299.19
5306.36,1303.73
5315.59,1306.53
5384.15,1320.17
5466.62,1354.33
5540.83,1403.92
5603.95,1467.04
5653.54,1541.26
5687.7,1623.73
5695.3,1661.91
5705.09,1711.12
5705.12,1711.27
5705.12,1800.54
5687.7,1888.08
5653.54,1970.55
5603.95,2044.77
5540.83,2107.89
5466.62,2157.48
5384.15,2191.64
5340.37,2200.35
5296.6,2209.06
5207.34,2209.06
5163.56,2200.35
5119.79,2191.64
5037.32,2157.48
4963.1,2107.89
4899.98,2044.77
4850.39,1970.55
4816.23,1888.08
4798.82,1800.54
4798.82,1711.27
4798.85,1711.12
4808.64,1661.91
4816.23,1623.73
4850.39,1541.26
4899.98,1467.04
4963.1,1403.92
5037.32,1354.33
5119.79,1320.17
5188.34,1306.53
5197.58,1303.73
5206.08,1299.19
5213.54,1293.07
5219.66,1285.61
5224.21,1277.1
5227.01,1267.87
5227.96,1258.27
5227.01,1248.67
5224.21,1239.43
5219.66,1230.93
5213.54,1223.47
5206.08,1217.35
5197.58,1212.8
5188.34,1210
5178.74,1209.06
4798.82,1209.06
4798.82,302.756
5705.12,302.756
Z" /> 
<path style="fill:#000000; fill-opacity:1.0; 
stroke:#000000; stroke-width:0; stroke-opacity:1; 
stroke-linecap:round; stroke-linejoin:round;fill-rule:evenodd;"
d="M 4304.9,1525.18
4320.99,1528.38
4333.6,1533.61
4364.05,1546.22
4402.8,1572.12
4435.76,1605.07
4461.65,1643.83
4473.15,1671.57
4479.49,1686.89
4480.57,1692.32
4488.58,1732.6
4488.58,1779.21
4479.49,1824.92
4461.65,1867.98
4435.76,1906.74
4402.8,1939.7
4364.05,1965.59
4333.6,1978.2
4320.99,1983.43
4305.75,1986.46
4275.27,1992.52
4228.66,1992.52
4198.19,1986.46
4182.95,1983.43
4170.34,1978.2
4139.89,1965.59
4101.14,1939.7
4068.18,1906.74
4042.28,1867.98
4024.45,1824.92
4015.35,1779.21
4015.35,1732.6
4023.37,1692.32
4024.45,1686.89
4030.79,1671.57
4042.28,1643.83
4068.18,1605.07
4101.14,1572.12
4139.89,1546.22
4170.34,1533.61
4182.95,1528.38
4199.04,1525.18
4228.66,1519.29
4275.27,1519.29
Z" /> 
<path style="fill:#000000; fill-opacity:1.0; 
stroke:#000000; stroke-width:0; stroke-opacity:1; 
stroke-linecap:round; stroke-linejoin:round;fill-rule:evenodd;"
d="M 9137.2,1295.95
9155.64,1301.54
9172.62,1310.63
9187.52,1322.85
9199.74,1337.74
9208.82,1354.73
9214.41,1373.16
9216.54,1394.75
9216.54,1833.06
9214.41,1854.65
9208.82,1873.08
9199.74,1890.07
9187.52,1904.96
9172.62,1917.19
9155.64,1926.27
9137.2,1931.86
9115.61,1933.98
8588.32,1933.98
8566.73,1931.86
8548.3,1926.27
8531.31,1917.19
8516.42,1904.96
8504.2,1890.07
8495.12,1873.08
8489.53,1854.65
8487.4,1833.06
8487.4,1394.75
8489.53,1373.16
8495.12,1354.73
8504.2,1337.74
8516.42,1322.85
8531.31,1310.63
8548.3,1301.54
8566.73,1295.95
8588.32,1293.83
9115.61,1293.83
Z" /> 
<path style="fill:#000000; fill-opacity:1.0; 
stroke:#000000; stroke-width:0; stroke-opacity:1; 
stroke-linecap:round; stroke-linejoin:round;fill-rule:evenodd;"
d="M 13104.3,897.939
13112.6,900.457
13120.3,904.546
13127,910.049
13132.5,916.754
13136.6,924.406
13139.1,932.706
13140.2,943.756
13140.2,1874.35
13139.1,1885.4
13136.6,1893.7
13132.5,1901.36
13127,1908.06
13120.3,1913.56
13112.6,1917.65
13104.3,1920.17
13093.3,1921.26
12910.7,1921.26
12899.6,1920.17
12891.3,1917.65
12883.7,1913.56
12877,1908.06
12871.5,1901.36
12867.4,1893.7
12864.9,1885.4
12863.8,1874.35
12863.8,943.756
12864.9,932.706
12867.4,924.406
12871.5,916.754
12877,910.049
12883.7,904.546
12891.3,900.457
12899.6,897.939
12910.7,896.85
13093.3,896.85
Z" /> 
<path style="fill:#000000; fill-opacity:1.0; 
stroke:#000000; stroke-width:0; stroke-opacity:1; 
stroke-linecap:round; stroke-linejoin:round;fill-rule:evenodd;"
d="M 14104.3,897.939
14112.6,900.457
14120.3,904.546
14127,910.049
14132.5,916.754
14136.6,924.406
14139.1,932.706
14140.2,943.756
14140.2,1874.35
14139.1,1885.4
14136.6,1893.7
14132.5,1901.36
14127,1908.06
14120.3,1913.56
14112.6,1917.65
14104.3,1920.17
14093.3,1921.26
13910.7,1921.26
13899.6,1920.17
13891.3,1917.65
13883.7,1913.56
13877,1908.06
13871.5,1901.36
13867.4,1893.7
13864.9,1885.4
13863.8,1874.35
13863.8,943.756
13864.9,932.706
13867.4,924.406
13871.5,916.754
13877,910.049
13883.7,904.546
13891.3,900.457
13899.6,897.939
13910.7,896.85
14093.3,896.85
Z" /> 
<path style="fill:#000000; fill-opacity:1.0; 
stroke:#000000; stroke-width:0; stroke-opacity:1; 
stroke-linecap:round; stroke-linejoin:round;fill-rule:evenodd;"
d="M 13604.3,897.939
13612.6,900.457
13620.3,904.546
13627,910.049
13632.5,916.754
13636.6,924.406
13639.1,932.706
13640.2,943.756
13640.2,1874.35
13639.1,1885.4
13636.6,1893.7
13632.5,1901.36
13627,1908.06
13620.3,1913.56
13612.6,1917.65
13604.3,1920.17
13593.3,1921.26
13410.7,1921.26
13399.6,1920.17
13391.3,1917.65
13383.7,1913.56
13377,1908.06
13371.5,1901.36
13367.4,1893.7
13364.9,1885.4
13363.8,1874.35
13363.8,943.756
13364.9,932.706
13367.4,924.406
13371.5,916.754
13377,910.049
13383.7,904.546
13391.3,900.457
13399.6,897.939
13410.7,896.85
13593.3,896.85
Z" /> 
<path style="fill:#000000; fill-opacity:1.0; 
stroke:#000000; stroke-width:0; stroke-opacity:1; 
stroke-linecap:round; stroke-linejoin:round;fill-rule:evenodd;"
d="M 12604.3,897.939
12612.6,900.457
12620.3,904.546
12627,910.049
12632.5,916.754
12636.6,924.406
12639.1,932.706
12640.2,943.756
12640.2,1874.35
12639.1,1885.4
12636.6,1893.7
12632.5,1901.36
12627,1908.06
12620.3,1913.56
12612.6,1917.65
12604.3,1920.17
12593.3,1921.26
12410.7,1921.26
12399.6,1920.17
12391.3,1917.65
12383.7,1913.56
12377,1908.06
12371.5,1901.36
12367.4,1893.7
12364.9,1885.4
12363.8,1874.35
12363.8,943.756
12364.9,932.706
12367.4,924.406
12371.5,916.754
12377,910.049
12383.7,904.546
12391.3,900.457
12399.6,897.939
12410.7,896.85
12593.3,896.85
Z" /> 
<path style="fill:#000000; fill-opacity:1.0; 
stroke:#000000; stroke-width:0; stroke-opacity:1; 
stroke-linecap:round; stroke-linejoin:round;fill-rule:evenodd;"
d="M 11508.3,1902.76
10995.7,1902.76
10995.7,1508.27
11508.3,1508.27
Z" /> 
<path style="fill:#000000; fill-opacity:1.0; 
stroke:#000000; stroke-width:0; stroke-opacity:1; 
stroke-linecap:round; stroke-linejoin:round;fill-rule:evenodd;"
d="M 10058.7,1173.32
10079.4,1179.59
10098.4,1189.78
10115.1,1203.48
10128.8,1220.18
10139,1239.23
10145.3,1259.9
10147.6,1283.82
10147.6,1598.27
10145.3,1622.19
10139,1642.86
10128.8,1661.91
10115.1,1678.61
10098.4,1692.32
10079.4,1702.5
10058.7,1708.77
10034.8,1711.12
9669.15,1711.12
9645.24,1708.77
9624.56,1702.5
9605.51,1692.32
9588.81,1678.61
9575.11,1661.91
9564.93,1642.86
9558.65,1622.19
9556.3,1598.27
9556.3,1283.82
9558.65,1259.9
9564.93,1239.23
9575.11,1220.18
9588.81,1203.48
9605.51,1189.78
9624.56,1179.59
9645.24,1173.32
9669.15,1170.97
10034.8,1170.97
Z" /> 
<path style="fill:#000000; fill-opacity:1.0; 
stroke:#000000; stroke-width:0; stroke-opacity:1; 
stroke-linecap:round; stroke-linejoin:round;fill-rule:evenodd;"
d="M 15635.6,806.252
15710.9,837.428
15710.9,837.428
15778.6,882.689
15836.2,940.296
15871.1,992.52
15881.5,1008.03
15912.6,1083.3
15928.5,1163.2
15928.5,1244.67
15912.6,1324.57
15892.6,1372.86
15881.5,1399.84
15836.2,1467.58
15778.6,1525.18
15710.9,1570.45
15710.9,1570.45
15710.9,1570.45
15635.6,1601.62
15555.7,1617.52
15474.2,1617.52
15394.3,1601.62
15319.1,1570.45
15319.1,1570.45
15319.1,1570.45
15251.3,1525.18
15193.7,1467.58
15148.5,1399.84
15137.3,1372.86
15117.3,1324.57
15101.4,1244.67
15101.4,1163.2
15117.3,1083.3
15148.5,1008.03
15158.8,992.52
15193.7,940.296
15251.3,882.689
15319.1,837.428
15319.1,837.428
15394.3,806.252
15474.2,790.358
15555.7,790.358
Z" /> 
<path style="fill:#000000; fill-opacity:1.0; 
stroke:#000000; stroke-width:0; stroke-opacity:1; 
stroke-linecap:round; stroke-linejoin:round;fill-rule:evenodd;"
d="M 4305.75,525.353
4320.99,528.384
4333.6,533.608
4364.05,546.22
4402.8,572.115
4435.76,605.073
4461.65,643.827
4479.49,686.888
4488.58,732.6
4488.58,779.211
4483.2,806.252
4480.56,819.546
4479.49,824.923
4461.65,867.984
4435.76,906.738
4402.8,939.696
4364.05,965.591
4333.6,978.203
4320.99,983.427
4305.75,986.458
4275.27,992.52
4228.66,992.52
4198.19,986.458
4182.95,983.427
4170.34,978.203
4139.89,965.591
4101.14,939.696
4068.18,906.738
4042.28,867.984
4024.45,824.923
4023.38,819.546
4020.73,806.252
4015.35,779.211
4015.35,732.6
4024.45,686.888
4042.28,643.827
4068.18,605.073
4101.14,572.115
4139.89,546.22
4170.34,533.608
4182.95,528.384
4198.19,525.353
4228.66,519.291
4275.27,519.291
Z" /> 
<path style="fill:#000000; fill-opacity:1.0; 
stroke:#000000; stroke-width:0; stroke-opacity:1; 
stroke-linecap:round; stroke-linejoin:round;fill-rule:evenodd;"
d="M 7572.6,158.22
7647.87,189.396
7647.87,189.397
7715.61,234.658
7773.22,292.265
7802.26,335.726
7818.48,360.003
7849.65,435.269
7865.55,515.171
7865.55,596.64
7849.65,676.542
7832.45,718.086
7818.48,751.809
7773.22,819.546
7715.61,877.153
7647.87,922.414
7647.87,922.415
7647.87,922.415
7572.6,953.591
7492.7,969.484
7411.23,969.484
7331.33,953.591
7256.07,922.415
7256.07,922.415
7256.07,922.414
7188.33,877.153
7130.72,819.546
7085.46,751.809
7071.49,718.086
7054.28,676.542
7038.39,596.64
7038.39,515.171
7054.28,435.269
7085.46,360.003
7101.68,335.726
7130.72,292.265
7188.33,234.658
7256.07,189.397
7256.07,189.396
7331.33,158.22
7411.23,142.327
7492.7,142.327
Z" /> 
<path style="fill:#000000; fill-opacity:1.0; 
stroke:#000000; stroke-width:0; stroke-opacity:1; 
stroke-linecap:round; stroke-linejoin:round;fill-rule:evenodd;"
d="M 10058.7,203.042
10079.4,209.313
10098.4,219.496
10115.1,233.2
10128.8,249.899
10139,268.948
10145.3,289.622
10147.6,313.537
10147.6,627.993
10145.3,651.908
10139,672.582
10128.8,691.631
10115.1,708.331
10098.4,722.035
10079.4,732.217
10058.7,738.489
10034.8,740.844
9669.15,740.844
9645.24,738.489
9624.56,732.217
9605.51,722.035
9588.81,708.331
9575.11,691.631
9564.93,672.582
9558.65,651.908
9556.3,627.993
9556.3,313.537
9558.65,289.622
9564.93,268.948
9575.11,249.899
9588.81,233.2
9605.51,219.496
9624.56,209.313
9645.24,203.042
9669.15,200.687
10034.8,200.687
Z" /> 
<path style="fill:#000000; fill-opacity:1.0; 
stroke:#000000; stroke-width:0; stroke-opacity:1; 
stroke-linecap:round; stroke-linejoin:round;fill-rule:evenodd;"
d="M 9137.2,-20.0472
9155.64,-14.4555
9172.62,-5.3748
9187.52,6.84606
9199.74,21.7378
9208.82,38.7264
9214.41,57.1594
9216.54,78.7472
9216.54,517.064
9214.41,538.652
9208.82,557.085
9199.74,574.073
9187.52,588.965
9172.62,601.186
9155.64,610.267
9137.2,615.858
9115.61,617.984
8588.32,617.984
8566.73,615.858
8548.3,610.267
8531.31,601.186
8516.42,588.965
8504.2,574.073
8495.12,557.085
8489.53,538.652
8487.4,517.064
8487.4,78.7472
8489.53,57.1594
8495.12,38.7264
8504.2,21.7378
8516.42,6.84606
8531.31,-5.3748
8548.3,-14.4555
8566.73,-20.0472
8588.32,-22.1732
9115.61,-22.1732
Z" /> 
<path style="fill:#000000; fill-opacity:1.0; 
stroke:#000000; stroke-width:0; stroke-opacity:1; 
stroke-linecap:round; stroke-linejoin:round;fill-rule:evenodd;"
d="M 11508.3,603.543
10995.7,603.543
10995.7,209.055
11508.3,209.055
Z" /> 
<path style="fill:#000000; fill-opacity:1.0; 
stroke:#000000; stroke-width:0; stroke-opacity:1; 
stroke-linecap:round; stroke-linejoin:round;fill-rule:evenodd;"
d="M 15635.6,-493.748
15710.9,-462.572
15710.9,-462.572
15778.6,-417.311
15836.2,-359.704
15881.5,-291.965
15912.6,-216.699
15928.5,-136.798
15928.5,-55.3283
15912.6,24.5732
15881.5,99.8394
15881.5,99.8402
15836.2,167.578
15778.6,225.185
15710.9,270.446
15710.9,270.446
15710.9,270.446
15635.6,301.622
15555.7,317.516
15474.2,317.516
15394.3,301.622
15319.1,270.446
15319.1,270.446
15319.1,270.446
15251.3,225.185
15193.7,167.578
15148.5,99.8402
15148.5,99.8394
15117.3,24.5732
15101.4,-55.3283
15101.4,-136.798
15117.3,-216.699
15148.5,-291.965
15193.7,-359.704
15251.3,-417.311
15319.1,-462.572
15319.1,-462.572
15394.3,-493.748
15474.2,-509.642
15555.7,-509.642
Z" /> 
<path style="fill:#000000; fill-opacity:1.0; 
stroke:#000000; stroke-width:0; stroke-opacity:1; 
stroke-linecap:round; stroke-linejoin:round;fill-rule:evenodd;"
d="M 14104.3,-1208.36
14112.6,-1205.84
14120.3,-1201.75
14127,-1196.25
14132.5,-1189.55
14136.6,-1181.89
14139.1,-1173.59
14140.2,-1162.54
14140.2,-231.945
14139.1,-220.894
14136.6,-212.595
14132.5,-204.943
14127,-198.238
14120.3,-192.735
14112.6,-188.646
14104.3,-186.128
14093.3,-185.039
13910.7,-185.039
13899.6,-186.128
13891.3,-188.646
13883.7,-192.735
13877,-198.238
13871.5,-204.943
13867.4,-212.595
13864.9,-220.894
13863.8,-231.945
13863.8,-1162.54
13864.9,-1173.59
13867.4,-1181.89
13871.5,-1189.55
13877,-1196.25
13883.7,-1201.75
13891.3,-1205.84
13899.6,-1208.36
13910.7,-1209.45
14093.3,-1209.45
Z" /> 
<path style="fill:#000000; fill-opacity:1.0; 
stroke:#000000; stroke-width:0; stroke-opacity:1; 
stroke-linecap:round; stroke-linejoin:round;fill-rule:evenodd;"
d="M 12604.3,-1208.36
12612.6,-1205.84
12620.3,-1201.75
12627,-1196.25
12632.5,-1189.55
12636.6,-1181.89
12639.1,-1173.59
12640.2,-1162.54
12640.2,-231.945
12639.1,-220.894
12636.6,-212.595
12632.5,-204.943
12627,-198.238
12620.3,-192.735
12612.6,-188.646
12604.3,-186.128
12593.3,-185.039
12410.7,-185.039
12399.6,-186.128
12391.3,-188.646
12383.7,-192.735
12377,-198.238
12371.5,-204.943
12367.4,-212.595
12364.9,-220.894
12363.8,-231.945
12363.8,-1162.54
12364.9,-1173.59
12367.4,-1181.89
12371.5,-1189.55
12377,-1196.25
12383.7,-1201.75
12391.3,-1205.84
12399.6,-1208.36
12410.7,-1209.45
12593.3,-1209.45
Z" /> 
<path style="fill:#000000; fill-opacity:1.0; 
stroke:#000000; stroke-width:0; stroke-opacity:1; 
stroke-linecap:round; stroke-linejoin:round;fill-rule:evenodd;"
d="M 13604.3,-1208.36
13612.6,-1205.84
13620.3,-1201.75
13627,-1196.25
13632.5,-1189.55
13636.6,-1181.89
13639.1,-1173.59
13640.2,-1162.54
13640.2,-231.945
13639.1,-220.894
13636.6,-212.595
13632.5,-204.943
13627,-198.238
13620.3,-192.735
13612.6,-188.646
13604.3,-186.128
13593.3,-185.039
13410.7,-185.039
13399.6,-186.128
13391.3,-188.646
13383.7,-192.735
13377,-198.238
13371.5,-204.943
13367.4,-212.595
13364.9,-220.894
13363.8,-231.945
13363.8,-1162.54
13364.9,-1173.59
13367.4,-1181.89
13371.5,-1189.55
13377,-1196.25
13383.7,-1201.75
13391.3,-1205.84
13399.6,-1208.36
13410.7,-1209.45
13593.3,-1209.45
Z" /> 
<path style="fill:#000000; fill-opacity:1.0; 
stroke:#000000; stroke-width:0; stroke-opacity:1; 
stroke-linecap:round; stroke-linejoin:round;fill-rule:evenodd;"
d="M 13104.3,-1208.36
13112.6,-1205.84
13120.3,-1201.75
13127,-1196.25
13132.5,-1189.55
13136.6,-1181.89
13139.1,-1173.59
13140.2,-1162.54
13140.2,-231.945
13139.1,-220.894
13136.6,-212.595
13132.5,-204.943
13127,-198.238
13120.3,-192.735
13112.6,-188.646
13104.3,-186.128
13093.3,-185.039
12910.7,-185.039
12899.6,-186.128
12891.3,-188.646
12883.7,-192.735
12877,-198.238
12871.5,-204.943
12867.4,-212.595
12864.9,-220.894
12863.8,-231.945
12863.8,-1162.54
12864.9,-1173.59
12867.4,-1181.89
12871.5,-1189.55
12877,-1196.25
12883.7,-1201.75
12891.3,-1205.84
12899.6,-1208.36
12910.7,-1209.45
13093.3,-1209.45
Z" /> 
<path style="fill:#000000; fill-opacity:1.0; 
stroke:#000000; stroke-width:0; stroke-opacity:1; 
stroke-linecap:round; stroke-linejoin:round;fill-rule:evenodd;"
d="M 4572.66,-1641.97
4647.97,-1610.78
4647.97,-1610.78
4715.74,-1565.5
4773.37,-1507.86
4808.09,-1455.91
4818.66,-1440.09
4849.85,-1364.79
4865.75,-1284.85
4865.75,-1203.34
4849.85,-1123.4
4818.69,-1048.19
4818.66,-1048.1
4773.37,-980.326
4715.74,-922.691
4647.97,-877.408
4647.97,-877.407
4647.97,-877.407
4572.66,-846.216
4492.72,-830.315
4411.21,-830.315
4331.27,-846.216
4255.97,-877.407
4255.97,-877.407
4255.97,-877.408
4188.2,-922.691
4130.56,-980.326
4085.28,-1048.1
4085.24,-1048.19
4054.09,-1123.4
4038.19,-1203.34
4038.19,-1284.85
4054.09,-1364.79
4085.28,-1440.09
4095.85,-1455.91
4130.56,-1507.86
4188.2,-1565.5
4255.97,-1610.78
4255.97,-1610.78
4331.27,-1641.97
4411.21,-1657.87
4492.72,-1657.87
Z" /> 
<path style="fill:#000000; fill-opacity:1.0; 
stroke:#000000; stroke-width:0; stroke-opacity:1; 
stroke-linecap:round; stroke-linejoin:round;fill-rule:evenodd;"
d="M 5972.6,-1641.78
6047.44,-1610.78
6047.87,-1610.6
6115.61,-1565.34
6173.22,-1507.74
6207.85,-1455.91
6218.48,-1440
6249.65,-1364.73
6265.55,-1284.83
6265.55,-1203.36
6249.65,-1123.46
6249.63,-1123.4
6218.48,-1048.19
6173.22,-980.454
6115.61,-922.847
6047.87,-877.586
6047.87,-877.585
6047.87,-877.585
5972.6,-846.409
5892.7,-830.516
5811.23,-830.516
5731.33,-846.409
5656.07,-877.585
5656.07,-877.585
5656.07,-877.586
5588.33,-922.847
5530.72,-980.454
5485.46,-1048.19
5454.31,-1123.4
5454.28,-1123.46
5438.39,-1203.36
5438.39,-1284.83
5454.28,-1364.73
5485.46,-1440
5496.09,-1455.91
5530.72,-1507.74
5588.33,-1565.34
5656.07,-1610.6
5656.49,-1610.78
5731.33,-1641.78
5811.23,-1657.67
5892.7,-1657.67
Z" /> 
<path style="fill:#000000; fill-opacity:1.0; 
stroke:#000000; stroke-width:0; stroke-opacity:1; 
stroke-linecap:round; stroke-linejoin:round;fill-rule:evenodd;"
d="M 11381.5,-1231.2
11389.8,-1228.68
11397.4,-1224.59
11404.1,-1219.09
11409.6,-1212.38
11413.7,-1204.73
11416.2,-1196.43
11417.3,-1185.38
11417.3,-1002.81
11416.2,-991.761
11413.7,-983.461
11409.6,-975.809
11404.1,-969.104
11397.4,-963.602
11389.8,-959.512
11381.5,-956.994
11370.4,-955.906
10439.8,-955.906
10428.8,-956.994
10420.5,-959.512
10412.8,-963.602
10406.1,-969.104
10400.6,-975.809
10396.5,-983.461
10394,-991.761
10392.9,-1002.81
10392.9,-1185.38
10394,-1196.43
10396.5,-1204.73
10400.6,-1212.38
10406.1,-1219.09
10412.8,-1224.59
10420.5,-1228.68
10428.8,-1231.2
10439.8,-1232.28
11370.4,-1232.28
Z" /> 
<path style="fill:#000000; fill-opacity:1.0; 
stroke:#000000; stroke-width:0; stroke-opacity:1; 
stroke-linecap:round; stroke-linejoin:round;fill-rule:evenodd;"
d="M 9275.17,-1231.2
9283.47,-1228.68
9291.12,-1224.59
9297.83,-1219.09
9303.33,-1212.38
9307.42,-1204.73
9309.94,-1196.43
9311.02,-1185.38
9311.02,-1002.81
9309.94,-991.761
9307.42,-983.461
9303.33,-975.809
9297.83,-969.104
9291.12,-963.602
9283.47,-959.512
9275.17,-956.994
9264.12,-955.906
8333.52,-955.906
8322.47,-956.994
8314.17,-959.512
8306.52,-963.602
8299.81,-969.104
8294.31,-975.809
8290.22,-983.461
8287.7,-991.761
8286.61,-1002.81
8286.61,-1185.38
8287.7,-1196.43
8290.22,-1204.73
8294.31,-1212.38
8299.81,-1219.09
8306.52,-1224.59
8314.17,-1228.68
8322.47,-1231.2
8333.52,-1232.28
9264.12,-1232.28
Z" /> 
<path style="fill:#000000; fill-opacity:1.0; 
stroke:#000000; stroke-width:0; stroke-opacity:1; 
stroke-linecap:round; stroke-linejoin:round;fill-rule:evenodd;"
d="M 7258.7,-1726.68
7279.38,-1720.41
7298.43,-1710.22
7315.12,-1696.52
7328.83,-1679.82
7339.01,-1660.77
7345.28,-1640.1
7347.64,-1616.18
7347.64,-1301.73
7345.28,-1277.81
7339.01,-1257.14
7328.83,-1238.09
7315.12,-1221.39
7298.43,-1207.68
7279.38,-1197.5
7258.7,-1191.23
7234.79,-1188.88
6869.15,-1188.88
6845.24,-1191.23
6824.56,-1197.5
6805.51,-1207.68
6788.81,-1221.39
6775.11,-1238.09
6764.93,-1257.14
6758.65,-1277.81
6756.3,-1301.73
6756.3,-1616.18
6758.65,-1640.1
6764.93,-1660.77
6775.11,-1679.82
6788.81,-1696.52
6805.51,-1710.22
6824.56,-1720.41
6845.24,-1726.68
6869.15,-1729.03
7234.79,-1729.03
Z" /> 
<path style="fill:#000000; fill-opacity:1.0; 
stroke:#000000; stroke-width:0; stroke-opacity:1; 
stroke-linecap:round; stroke-linejoin:round;fill-rule:evenodd;"
d="M 11381.5,-1731.2
11389.8,-1728.68
11397.4,-1724.59
11404.1,-1719.09
11409.6,-1712.38
11413.7,-1704.73
11416.2,-1696.43
11417.3,-1685.38
11417.3,-1502.81
11416.2,-1491.76
11413.7,-1483.46
11409.6,-1475.81
11404.1,-1469.1
11397.4,-1463.6
11389.8,-1459.51
11381.5,-1456.99
11370.4,-1455.91
10439.8,-1455.91
10428.8,-1456.99
10420.5,-1459.51
10412.8,-1463.6
10406.1,-1469.1
10400.6,-1475.81
10396.5,-1483.46
10394,-1491.76
10392.9,-1502.81
10392.9,-1685.38
10394,-1696.43
10396.5,-1704.73
10400.6,-1712.38
10406.1,-1719.09
10412.8,-1724.59
10420.5,-1728.68
10428.8,-1731.2
10439.8,-1732.28
11370.4,-1732.28
Z" /> 
<path style="fill:#000000; fill-opacity:1.0; 
stroke:#000000; stroke-width:0; stroke-opacity:1; 
stroke-linecap:round; stroke-linejoin:round;fill-rule:evenodd;"
d="M 9275.17,-1731.2
9283.47,-1728.68
9291.12,-1724.59
9297.83,-1719.09
9303.33,-1712.38
9307.42,-1704.73
9309.94,-1696.43
9311.02,-1685.38
9311.02,-1502.81
9309.94,-1491.76
9307.42,-1483.46
9303.33,-1475.81
9297.83,-1469.1
9291.12,-1463.6
9283.47,-1459.51
9275.17,-1456.99
9264.12,-1455.91
8333.52,-1455.91
8322.47,-1456.99
8314.17,-1459.51
8306.52,-1463.6
8299.81,-1469.1
8294.31,-1475.81
8290.22,-1483.46
8287.7,-1491.76
8286.61,-1502.81
8286.61,-1685.38
8287.7,-1696.43
8290.22,-1704.73
8294.31,-1712.38
8299.81,-1719.09
8306.52,-1724.59
8314.17,-1728.68
8322.47,-1731.2
8333.52,-1732.28
9264.12,-1732.28
Z" /> 
<path style="fill:#000000; fill-opacity:1.0; 
stroke:#000000; stroke-width:0; stroke-opacity:1; 
stroke-linecap:round; stroke-linejoin:round;fill-rule:evenodd;"
d="M 11381.5,-2231.2
11389.8,-2228.68
11397.4,-2224.59
11404.1,-2219.09
11409.6,-2212.38
11413.7,-2204.73
11416.2,-2196.43
11417.3,-2185.38
11417.3,-2002.81
11416.2,-1991.76
11413.7,-1983.46
11409.6,-1975.81
11404.1,-1969.1
11397.4,-1963.6
11389.8,-1959.51
11381.5,-1956.99
11370.4,-1955.91
10439.8,-1955.91
10428.8,-1956.99
10420.5,-1959.51
10412.8,-1963.6
10406.1,-1969.1
10400.6,-1975.81
10396.5,-1983.46
10394,-1991.76
10392.9,-2002.81
10392.9,-2185.38
10394,-2196.43
10396.5,-2204.73
10400.6,-2212.38
10406.1,-2219.09
10412.8,-2224.59
10420.5,-2228.68
10428.8,-2231.2
10439.8,-2232.28
11370.4,-2232.28
Z" /> 
<path style="fill:#000000; fill-opacity:1.0; 
stroke:#000000; stroke-width:0; stroke-opacity:1; 
stroke-linecap:round; stroke-linejoin:round;fill-rule:evenodd;"
d="M 9275.17,-2231.2
9283.47,-2228.68
9291.12,-2224.59
9297.83,-2219.09
9303.33,-2212.38
9307.42,-2204.73
9309.94,-2196.43
9311.02,-2185.38
9311.02,-2002.81
9309.94,-1991.76
9307.42,-1983.46
9303.33,-1975.81
9297.83,-1969.1
9291.12,-1963.6
9283.47,-1959.51
9275.17,-1956.99
9264.12,-1955.91
8333.52,-1955.91
8322.47,-1956.99
8314.17,-1959.51
8306.52,-1963.6
8299.81,-1969.1
8294.31,-1975.81
8290.22,-1983.46
8287.7,-1991.76
8286.61,-2002.81
8286.61,-2185.38
8287.7,-2196.43
8290.22,-2204.73
8294.31,-2212.38
8299.81,-2219.09
8306.52,-2224.59
8314.17,-2228.68
8322.47,-2231.2
8333.52,-2232.28
9264.12,-2232.28
Z" /> 
<path style="fill:#000000; fill-opacity:1.0; 
stroke:#000000; stroke-width:0; stroke-opacity:1; 
stroke-linecap:round; stroke-linejoin:round;fill-rule:evenodd;"
d="M 12734.7,-2806.54
12753.1,-2800.94
12770.1,-2791.86
12785,-2779.64
12797.2,-2764.75
12806.3,-2747.76
12811.9,-2729.33
12814,-2707.74
12814,-2180.45
12811.9,-2158.86
12806.3,-2140.43
12797.2,-2123.44
12785,-2108.55
12770.1,-2096.33
12753.1,-2087.25
12734.7,-2081.65
12713.1,-2079.53
12274.8,-2079.53
12253.2,-2081.65
12234.8,-2087.25
12217.8,-2096.33
12202.9,-2108.55
12190.7,-2123.44
12181.6,-2140.43
12176,-2158.86
12173.9,-2180.45
12173.9,-2707.74
12176,-2729.33
12181.6,-2747.76
12190.7,-2764.75
12202.9,-2779.64
12217.8,-2791.86
12234.8,-2800.94
12253.2,-2806.54
12274.8,-2808.66
12713.1,-2808.66
Z" /> 
<path style="fill:#000000; fill-opacity:1.0; 
stroke:#000000; stroke-width:0; stroke-opacity:1; 
stroke-linecap:round; stroke-linejoin:round;fill-rule:evenodd;"
d="M 14050.7,-2806.54
14069.1,-2800.94
14086.1,-2791.86
14101,-2779.64
14113.2,-2764.75
14122.3,-2747.76
14127.9,-2729.33
14130,-2707.74
14130,-2180.45
14127.9,-2158.86
14122.3,-2140.43
14113.2,-2123.44
14101,-2108.55
14086.1,-2096.33
14069.1,-2087.25
14050.7,-2081.65
14029.1,-2079.53
13590.8,-2079.53
13569.2,-2081.65
13550.8,-2087.25
13533.8,-2096.33
13518.9,-2108.55
13506.7,-2123.44
13497.6,-2140.43
13492,-2158.86
13489.9,-2180.45
13489.9,-2707.74
13492,-2729.33
13497.6,-2747.76
13506.7,-2764.75
13518.9,-2779.64
13533.8,-2791.86
13550.8,-2800.94
13569.2,-2806.54
13590.8,-2808.66
14029.1,-2808.66
Z" /> 
<path style="fill:#000000; fill-opacity:1.0; 
stroke:#000000; stroke-width:0; stroke-opacity:1; 
stroke-linecap:round; stroke-linejoin:round;fill-rule:evenodd;"
d="M 7258.7,-2696.96
7279.38,-2690.69
7298.43,-2680.5
7315.12,-2666.8
7328.83,-2650.1
7339.01,-2631.05
7345.28,-2610.38
7347.64,-2586.46
7347.64,-2272.01
7345.28,-2248.09
7339.01,-2227.42
7328.83,-2208.37
7315.12,-2191.67
7298.43,-2177.96
7279.38,-2167.78
7258.7,-2161.51
7234.79,-2159.16
6869.15,-2159.16
6845.24,-2161.51
6824.56,-2167.78
6805.51,-2177.96
6788.81,-2191.67
6775.11,-2208.37
6764.93,-2227.42
6758.65,-2248.09
6756.3,-2272.01
6756.3,-2586.46
6758.65,-2610.38
6764.93,-2631.05
6775.11,-2650.1
6788.81,-2666.8
6805.51,-2680.5
6824.56,-2690.69
6845.24,-2696.96
6869.15,-2699.31
7234.79,-2699.31
Z" /> 
<path style="fill:#000000; fill-opacity:1.0; 
stroke:#000000; stroke-width:0; stroke-opacity:1; 
stroke-linecap:round; stroke-linejoin:round;fill-rule:evenodd;"
d="M 4572.66,-3041.97
4647.97,-3010.78
4647.97,-3010.78
4648.23,-3010.6
4715.74,-2965.5
4773.37,-2907.86
4818.66,-2840.09
4849.85,-2764.79
4865.75,-2684.85
4865.75,-2603.34
4849.85,-2523.4
4823.38,-2459.51
4818.66,-2448.1
4773.37,-2380.33
4715.74,-2322.69
4647.97,-2277.41
4647.97,-2277.41
4647.97,-2277.41
4572.66,-2246.22
4492.72,-2230.31
4411.21,-2230.31
4331.27,-2246.22
4255.97,-2277.41
4255.97,-2277.41
4255.97,-2277.41
4188.2,-2322.69
4130.56,-2380.33
4085.28,-2448.1
4080.55,-2459.51
4054.09,-2523.4
4038.19,-2603.34
4038.19,-2684.85
4054.09,-2764.79
4085.28,-2840.09
4130.56,-2907.86
4188.2,-2965.5
4255.7,-3010.6
4255.97,-3010.78
4255.97,-3010.78
4331.27,-3041.97
4411.21,-3057.87
4492.72,-3057.87
Z" /> 
<path style="fill:#000000; fill-opacity:1.0; 
stroke:#000000; stroke-width:0; stroke-opacity:1; 
stroke-linecap:round; stroke-linejoin:round;fill-rule:evenodd;"
d="M 5972.6,-3041.78
6047.44,-3010.78
6047.87,-3010.6
6115.38,-2965.5
6115.61,-2965.34
6173.22,-2907.74
6218.48,-2840
6249.65,-2764.73
6265.55,-2684.83
6265.55,-2603.36
6249.65,-2523.46
6222.22,-2457.23
6218.48,-2448.19
6173.22,-2380.45
6115.61,-2322.85
6047.87,-2277.59
6047.87,-2277.59
6047.87,-2277.59
5972.6,-2246.41
5892.7,-2230.52
5811.23,-2230.52
5731.33,-2246.41
5656.07,-2277.59
5656.07,-2277.59
5656.07,-2277.59
5588.33,-2322.85
5530.72,-2380.45
5485.46,-2448.19
5481.71,-2457.23
5454.28,-2523.46
5438.39,-2603.36
5438.39,-2684.83
5454.28,-2764.73
5485.46,-2840
5530.72,-2907.74
5588.33,-2965.34
5588.56,-2965.5
5656.07,-3010.6
5656.49,-3010.78
5731.33,-3041.78
5811.23,-3057.67
5892.7,-3057.67
Z" /> 
<path style="fill:#000000; fill-opacity:1.0; 
stroke:#000000; stroke-width:0; stroke-opacity:1; 
stroke-linecap:round; stroke-linejoin:round;fill-rule:evenodd;"
d="M 11381.5,-2731.2
11389.8,-2728.68
11397.4,-2724.59
11404.1,-2719.09
11409.6,-2712.38
11413.7,-2704.73
11416.2,-2696.43
11417.3,-2685.38
11417.3,-2502.81
11416.2,-2491.76
11413.7,-2483.46
11409.6,-2475.81
11404.1,-2469.1
11397.4,-2463.6
11389.8,-2459.51
11381.5,-2456.99
11370.4,-2455.91
10439.8,-2455.91
10428.8,-2456.99
10420.5,-2459.51
10412.8,-2463.6
10406.1,-2469.1
10400.6,-2475.81
10396.5,-2483.46
10394,-2491.76
10392.9,-2502.81
10392.9,-2685.38
10394,-2696.43
10396.5,-2704.73
10400.6,-2712.38
10406.1,-2719.09
10412.8,-2724.59
10420.5,-2728.68
10428.8,-2731.2
10439.8,-2732.28
11370.4,-2732.28
Z" /> 
<path style="fill:#000000; fill-opacity:1.0; 
stroke:#000000; stroke-width:0; stroke-opacity:1; 
stroke-linecap:round; stroke-linejoin:round;fill-rule:evenodd;"
d="M 9275.17,-2731.2
9283.47,-2728.68
9291.12,-2724.59
9297.83,-2719.09
9303.33,-2712.38
9307.42,-2704.73
9309.94,-2696.43
9311.02,-2685.38
9311.02,-2502.81
9309.94,-2491.76
9307.42,-2483.46
9303.33,-2475.81
9297.83,-2469.1
9291.12,-2463.6
9283.47,-2459.51
9275.17,-2456.99
9264.12,-2455.91
8333.52,-2455.91
8322.47,-2456.99
8314.17,-2459.51
8306.52,-2463.6
8299.81,-2469.1
8294.31,-2475.81
8290.22,-2483.46
8287.7,-2491.76
8286.61,-2502.81
8286.61,-2685.38
8287.7,-2696.43
8290.22,-2704.73
8294.31,-2712.38
8299.81,-2719.09
8306.52,-2724.59
8314.17,-2728.68
8322.47,-2731.2
8333.52,-2732.28
9264.12,-2732.28
Z" /> 
<path style="fill:#000000; fill-opacity:1.0; 
stroke:#000000; stroke-width:0; stroke-opacity:1; 
stroke-linecap:round; stroke-linejoin:round;fill-rule:evenodd;"
d="M 4590.37,-4991.69
4634.15,-4982.98
4716.62,-4948.82
4790.83,-4899.23
4853.95,-4836.11
4903.54,-4761.89
4937.7,-4679.42
4955.12,-4591.88
4955.12,-4502.61
4937.7,-4415.07
4903.54,-4332.6
4853.95,-4258.38
4790.83,-4195.26
4716.62,-4145.67
4634.15,-4111.51
4590.37,-4102.8
4546.6,-4094.09
4457.34,-4094.09
4413.56,-4102.8
4369.79,-4111.51
4287.32,-4145.67
4213.1,-4195.26
4149.98,-4258.38
4100.39,-4332.6
4066.23,-4415.07
4048.82,-4502.61
4048.82,-4591.88
4066.23,-4679.42
4100.39,-4761.89
4149.98,-4836.11
4213.1,-4899.23
4287.32,-4948.82
4369.79,-4982.98
4413.56,-4991.69
4457.34,-5000.39
4546.6,-5000.39
Z" /> 
<path style="fill:#000000; fill-opacity:1.0; 
stroke:#000000; stroke-width:0; stroke-opacity:1; 
stroke-linecap:round; stroke-linejoin:round;fill-rule:evenodd;"
d="M 15340.4,-4991.69
15384.1,-4982.98
15466.6,-4948.82
15540.8,-4899.23
15604,-4836.11
15653.5,-4761.89
15687.7,-4679.42
15705.1,-4591.88
15705.1,-4502.61
15687.7,-4415.07
15653.5,-4332.6
15604,-4258.38
15540.8,-4195.26
15466.6,-4145.67
15384.1,-4111.51
15340.4,-4102.8
15296.6,-4094.09
15207.3,-4094.09
15163.6,-4102.8
15119.8,-4111.51
15037.3,-4145.67
14963.1,-4195.26
14900,-4258.38
14850.4,-4332.6
14816.2,-4415.07
14798.8,-4502.61
14798.8,-4591.88
14816.2,-4679.42
14850.4,-4761.89
14900,-4836.11
14963.1,-4899.23
15037.3,-4948.82
15119.8,-4982.98
15163.6,-4991.69
15207.3,-5000.39
15296.6,-5000.39
Z" /> 
</g> 
</svg>
