M48
; DRILL file {KiCad 5.1.5-1.fc31} date 2020-04-30T16:29:18 CEST
; FORMAT={-:-/ absolute / metric / decimal}
; #@! TF.CreationDate,2020-04-30T16:29:18+02:00
; #@! TF.GenerationSoftware,Kicad,Pcbnew,5.1.5-1.fc31
FMAT,2
METRIC
T1C0.600
T2C0.750
T3C0.900
T4C1.000
T5C1.016
T6C1.100
T7C1.500
T8C1.100
T9C2.200
T10C4.000
%
G90
G05
T1
X24.05Y26.43
X-30.56Y53.735
X10.08Y56.402
X18.97Y26.43
X21.51Y42.94
X7.54Y42.94
X17.7Y67.705
X17.7Y62.371
X7.54Y62.371
X20.24Y41.67
X22.793Y63.92
X-26.75Y22.62
X8.81Y46.75
X-24.21Y15.0
X17.7Y64.53
X-26.75Y17.54
X-24.21Y20.08
X21.51Y26.43
X19.605Y64.53
X12.747Y62.371
X8.81Y41.67
X18.97Y42.94
X12.62Y44.21
X-26.115Y40.4
X26.59Y42.94
X24.05Y42.94
X27.86Y41.67
X22.78Y41.67
X19.605Y67.705
X6.27Y41.67
X-3.89Y35.32
X22.793Y62.066
X25.32Y41.67
X8.81Y44.845
X26.209Y55.767
T2
X-30.56Y59.45
X-30.56Y58.18
X-30.56Y56.91
X-0.08Y30.24
X1.19Y30.24
X2.46Y30.24
X-21.035Y31.51
X-19.765Y31.51
X-18.495Y31.51
T3
X-1.35Y39.05
X-1.35Y34.05
X3.65Y36.55
T4
X-29.925Y22.62
X-29.925Y20.08
X-29.925Y17.54
X-29.925Y15.0
X-19.765Y54.37
X-2.265Y54.37
T5
X11.35Y36.59
X11.35Y34.05
X13.89Y36.59
X13.89Y34.05
X16.43Y36.59
X16.43Y34.05
X18.97Y36.59
X18.97Y34.05
X21.51Y36.59
X21.51Y34.05
X24.05Y36.59
X24.05Y34.05
X26.59Y36.59
X26.59Y34.05
X29.13Y36.59
X29.13Y34.05
T6
X-28.02Y33.415
X-28.02Y30.875
T7
X-19.13Y17.54
X-12.78Y20.08
X1.19Y17.54
X7.54Y20.08
X21.51Y17.54
X27.86Y20.08
T8
X-30.56Y33.415
X-30.56Y30.875
T9
X38.0Y72.0
X-37.0Y7.0
X38.0Y7.0
X-37.0Y72.0
T10
X-15.32Y15.0
X5.0Y15.0
X25.32Y15.0
T0
M30
