G04 #@! TF.GenerationSoftware,KiCad,Pcbnew,5.1.5-1.fc31*
G04 #@! TF.CreationDate,2020-05-08T16:11:04+02:00*
G04 #@! TF.ProjectId,mcu,6d63752e-6b69-4636-9164-5f7063625858,rev?*
G04 #@! TF.SameCoordinates,Original*
G04 #@! TF.FileFunction,Soldermask,Top*
G04 #@! TF.FilePolarity,Negative*
%FSLAX46Y46*%
G04 Gerber Fmt 4.6, Leading zero omitted, Abs format (unit mm)*
G04 Created by KiCad (PCBNEW 5.1.5-1.fc31) date 2020-05-08 16:11:04*
%MOMM*%
%LPD*%
G04 APERTURE LIST*
%ADD10C,0.150000*%
G04 APERTURE END LIST*
D10*
G36*
X91224549Y-52871116D02*
G01*
X91335734Y-52893232D01*
X91545203Y-52979997D01*
X91733720Y-53105960D01*
X91894040Y-53266280D01*
X92020003Y-53454797D01*
X92106768Y-53664266D01*
X92151000Y-53886636D01*
X92151000Y-54113364D01*
X92106768Y-54335734D01*
X92020003Y-54545203D01*
X91894040Y-54733720D01*
X91733720Y-54894040D01*
X91545203Y-55020003D01*
X91335734Y-55106768D01*
X91224549Y-55128884D01*
X91113365Y-55151000D01*
X90886635Y-55151000D01*
X90775451Y-55128884D01*
X90664266Y-55106768D01*
X90454797Y-55020003D01*
X90266280Y-54894040D01*
X90105960Y-54733720D01*
X89979997Y-54545203D01*
X89893232Y-54335734D01*
X89849000Y-54113364D01*
X89849000Y-53886636D01*
X89893232Y-53664266D01*
X89979997Y-53454797D01*
X90105960Y-53266280D01*
X90266280Y-53105960D01*
X90454797Y-52979997D01*
X90664266Y-52893232D01*
X90775451Y-52871116D01*
X90886635Y-52849000D01*
X91113365Y-52849000D01*
X91224549Y-52871116D01*
G37*
G36*
X46224549Y-52871116D02*
G01*
X46335734Y-52893232D01*
X46545203Y-52979997D01*
X46733720Y-53105960D01*
X46894040Y-53266280D01*
X47020003Y-53454797D01*
X47106768Y-53664266D01*
X47151000Y-53886636D01*
X47151000Y-54113364D01*
X47106768Y-54335734D01*
X47020003Y-54545203D01*
X46894040Y-54733720D01*
X46733720Y-54894040D01*
X46545203Y-55020003D01*
X46335734Y-55106768D01*
X46224549Y-55128884D01*
X46113365Y-55151000D01*
X45886635Y-55151000D01*
X45775451Y-55128884D01*
X45664266Y-55106768D01*
X45454797Y-55020003D01*
X45266280Y-54894040D01*
X45105960Y-54733720D01*
X44979997Y-54545203D01*
X44893232Y-54335734D01*
X44849000Y-54113364D01*
X44849000Y-53886636D01*
X44893232Y-53664266D01*
X44979997Y-53454797D01*
X45105960Y-53266280D01*
X45266280Y-53105960D01*
X45454797Y-52979997D01*
X45664266Y-52893232D01*
X45775451Y-52871116D01*
X45886635Y-52849000D01*
X46113365Y-52849000D01*
X46224549Y-52871116D01*
G37*
G36*
X88251512Y-47617927D02*
G01*
X88400812Y-47647624D01*
X88564784Y-47715544D01*
X88712354Y-47814147D01*
X88837853Y-47939646D01*
X88936456Y-48087216D01*
X89004376Y-48251188D01*
X89039000Y-48425259D01*
X89039000Y-48602741D01*
X89004376Y-48776812D01*
X88936456Y-48940784D01*
X88837853Y-49088354D01*
X88712354Y-49213853D01*
X88564784Y-49312456D01*
X88400812Y-49380376D01*
X88251512Y-49410073D01*
X88226742Y-49415000D01*
X88049258Y-49415000D01*
X88024488Y-49410073D01*
X87875188Y-49380376D01*
X87711216Y-49312456D01*
X87563646Y-49213853D01*
X87438147Y-49088354D01*
X87339544Y-48940784D01*
X87271624Y-48776812D01*
X87237000Y-48602741D01*
X87237000Y-48425259D01*
X87271624Y-48251188D01*
X87339544Y-48087216D01*
X87438147Y-47939646D01*
X87563646Y-47814147D01*
X87711216Y-47715544D01*
X87875188Y-47647624D01*
X88024488Y-47617927D01*
X88049258Y-47613000D01*
X88226742Y-47613000D01*
X88251512Y-47617927D01*
G37*
G36*
X80229059Y-47918860D02*
G01*
X80365732Y-47975472D01*
X80488735Y-48057660D01*
X80593340Y-48162265D01*
X80593341Y-48162267D01*
X80675529Y-48285270D01*
X80732140Y-48421941D01*
X80761000Y-48567032D01*
X80761000Y-48714968D01*
X80732140Y-48860059D01*
X80698703Y-48940784D01*
X80675528Y-48996732D01*
X80593340Y-49119735D01*
X80488735Y-49224340D01*
X80365732Y-49306528D01*
X80365731Y-49306529D01*
X80365730Y-49306529D01*
X80229059Y-49363140D01*
X80083968Y-49392000D01*
X79936032Y-49392000D01*
X79790941Y-49363140D01*
X79654270Y-49306529D01*
X79654269Y-49306529D01*
X79654268Y-49306528D01*
X79531265Y-49224340D01*
X79426660Y-49119735D01*
X79344472Y-48996732D01*
X79321298Y-48940784D01*
X79287860Y-48860059D01*
X79259000Y-48714968D01*
X79259000Y-48567032D01*
X79287860Y-48421941D01*
X79344471Y-48285270D01*
X79426659Y-48162267D01*
X79426660Y-48162265D01*
X79531265Y-48057660D01*
X79654268Y-47975472D01*
X79790941Y-47918860D01*
X79936032Y-47890000D01*
X80083968Y-47890000D01*
X80229059Y-47918860D01*
G37*
G36*
X88251512Y-45077927D02*
G01*
X88400812Y-45107624D01*
X88564784Y-45175544D01*
X88712354Y-45274147D01*
X88837853Y-45399646D01*
X88936456Y-45547216D01*
X89004376Y-45711188D01*
X89039000Y-45885259D01*
X89039000Y-46062741D01*
X89004376Y-46236812D01*
X88936456Y-46400784D01*
X88837853Y-46548354D01*
X88712354Y-46673853D01*
X88564784Y-46772456D01*
X88400812Y-46840376D01*
X88251512Y-46870073D01*
X88226742Y-46875000D01*
X88049258Y-46875000D01*
X88024488Y-46870073D01*
X87875188Y-46840376D01*
X87711216Y-46772456D01*
X87563646Y-46673853D01*
X87438147Y-46548354D01*
X87339544Y-46400784D01*
X87271624Y-46236812D01*
X87237000Y-46062741D01*
X87237000Y-45885259D01*
X87271624Y-45711188D01*
X87339544Y-45547216D01*
X87438147Y-45399646D01*
X87563646Y-45274147D01*
X87711216Y-45175544D01*
X87875188Y-45107624D01*
X88024488Y-45077927D01*
X88049258Y-45073000D01*
X88226742Y-45073000D01*
X88251512Y-45077927D01*
G37*
G36*
X48511143Y-44892087D02*
G01*
X48667838Y-44956992D01*
X48808853Y-45051215D01*
X48928785Y-45171147D01*
X49023008Y-45312162D01*
X49087913Y-45468857D01*
X49121000Y-45635198D01*
X49121000Y-45804802D01*
X49087913Y-45971143D01*
X49023008Y-46127838D01*
X48928785Y-46268853D01*
X48808853Y-46388785D01*
X48667838Y-46483008D01*
X48511143Y-46547913D01*
X48344802Y-46581000D01*
X48175198Y-46581000D01*
X48008857Y-46547913D01*
X47852162Y-46483008D01*
X47711147Y-46388785D01*
X47591215Y-46268853D01*
X47496992Y-46127838D01*
X47432087Y-45971143D01*
X47399000Y-45804802D01*
X47399000Y-45635198D01*
X47432087Y-45468857D01*
X47496992Y-45312162D01*
X47591215Y-45171147D01*
X47711147Y-45051215D01*
X47852162Y-44956992D01*
X48008857Y-44892087D01*
X48175198Y-44859000D01*
X48344802Y-44859000D01*
X48511143Y-44892087D01*
G37*
G36*
X65036778Y-43570547D02*
G01*
X65203224Y-43639491D01*
X65353022Y-43739583D01*
X65480417Y-43866978D01*
X65580509Y-44016776D01*
X65649453Y-44183222D01*
X65684600Y-44359918D01*
X65684600Y-44540082D01*
X65649453Y-44716778D01*
X65580509Y-44883224D01*
X65480417Y-45033022D01*
X65353022Y-45160417D01*
X65203224Y-45260509D01*
X65036778Y-45329453D01*
X64860082Y-45364600D01*
X64679918Y-45364600D01*
X64503222Y-45329453D01*
X64336776Y-45260509D01*
X64186978Y-45160417D01*
X64059583Y-45033022D01*
X63959491Y-44883224D01*
X63890547Y-44716778D01*
X63855400Y-44540082D01*
X63855400Y-44359918D01*
X63890547Y-44183222D01*
X63959491Y-44016776D01*
X64059583Y-43866978D01*
X64186978Y-43739583D01*
X64336776Y-43639491D01*
X64503222Y-43570547D01*
X64679918Y-43535400D01*
X64860082Y-43535400D01*
X65036778Y-43570547D01*
G37*
G36*
X75196778Y-43570547D02*
G01*
X75363224Y-43639491D01*
X75513022Y-43739583D01*
X75640417Y-43866978D01*
X75740509Y-44016776D01*
X75809453Y-44183222D01*
X75844600Y-44359918D01*
X75844600Y-44540082D01*
X75809453Y-44716778D01*
X75740509Y-44883224D01*
X75640417Y-45033022D01*
X75513022Y-45160417D01*
X75363224Y-45260509D01*
X75196778Y-45329453D01*
X75020082Y-45364600D01*
X74839918Y-45364600D01*
X74663222Y-45329453D01*
X74496776Y-45260509D01*
X74346978Y-45160417D01*
X74219583Y-45033022D01*
X74119491Y-44883224D01*
X74050547Y-44716778D01*
X74015400Y-44540082D01*
X74015400Y-44359918D01*
X74050547Y-44183222D01*
X74119491Y-44016776D01*
X74219583Y-43866978D01*
X74346978Y-43739583D01*
X74496776Y-43639491D01*
X74663222Y-43570547D01*
X74839918Y-43535400D01*
X75020082Y-43535400D01*
X75196778Y-43570547D01*
G37*
G36*
X72656778Y-43570547D02*
G01*
X72823224Y-43639491D01*
X72973022Y-43739583D01*
X73100417Y-43866978D01*
X73200509Y-44016776D01*
X73269453Y-44183222D01*
X73304600Y-44359918D01*
X73304600Y-44540082D01*
X73269453Y-44716778D01*
X73200509Y-44883224D01*
X73100417Y-45033022D01*
X72973022Y-45160417D01*
X72823224Y-45260509D01*
X72656778Y-45329453D01*
X72480082Y-45364600D01*
X72299918Y-45364600D01*
X72123222Y-45329453D01*
X71956776Y-45260509D01*
X71806978Y-45160417D01*
X71679583Y-45033022D01*
X71579491Y-44883224D01*
X71510547Y-44716778D01*
X71475400Y-44540082D01*
X71475400Y-44359918D01*
X71510547Y-44183222D01*
X71579491Y-44016776D01*
X71679583Y-43866978D01*
X71806978Y-43739583D01*
X71956776Y-43639491D01*
X72123222Y-43570547D01*
X72299918Y-43535400D01*
X72480082Y-43535400D01*
X72656778Y-43570547D01*
G37*
G36*
X70116778Y-43570547D02*
G01*
X70283224Y-43639491D01*
X70433022Y-43739583D01*
X70560417Y-43866978D01*
X70660509Y-44016776D01*
X70729453Y-44183222D01*
X70764600Y-44359918D01*
X70764600Y-44540082D01*
X70729453Y-44716778D01*
X70660509Y-44883224D01*
X70560417Y-45033022D01*
X70433022Y-45160417D01*
X70283224Y-45260509D01*
X70116778Y-45329453D01*
X69940082Y-45364600D01*
X69759918Y-45364600D01*
X69583222Y-45329453D01*
X69416776Y-45260509D01*
X69266978Y-45160417D01*
X69139583Y-45033022D01*
X69039491Y-44883224D01*
X68970547Y-44716778D01*
X68935400Y-44540082D01*
X68935400Y-44359918D01*
X68970547Y-44183222D01*
X69039491Y-44016776D01*
X69139583Y-43866978D01*
X69266978Y-43739583D01*
X69416776Y-43639491D01*
X69583222Y-43570547D01*
X69759918Y-43535400D01*
X69940082Y-43535400D01*
X70116778Y-43570547D01*
G37*
G36*
X63144600Y-45364600D02*
G01*
X61315400Y-45364600D01*
X61315400Y-43535400D01*
X63144600Y-43535400D01*
X63144600Y-45364600D01*
G37*
G36*
X77736778Y-43570547D02*
G01*
X77903224Y-43639491D01*
X78053022Y-43739583D01*
X78180417Y-43866978D01*
X78280509Y-44016776D01*
X78349453Y-44183222D01*
X78384600Y-44359918D01*
X78384600Y-44540082D01*
X78349453Y-44716778D01*
X78280509Y-44883224D01*
X78180417Y-45033022D01*
X78053022Y-45160417D01*
X77903224Y-45260509D01*
X77736778Y-45329453D01*
X77560082Y-45364600D01*
X77379918Y-45364600D01*
X77203222Y-45329453D01*
X77036776Y-45260509D01*
X76886978Y-45160417D01*
X76759583Y-45033022D01*
X76659491Y-44883224D01*
X76590547Y-44716778D01*
X76555400Y-44540082D01*
X76555400Y-44359918D01*
X76590547Y-44183222D01*
X76659491Y-44016776D01*
X76759583Y-43866978D01*
X76886978Y-43739583D01*
X77036776Y-43639491D01*
X77203222Y-43570547D01*
X77379918Y-43535400D01*
X77560082Y-43535400D01*
X77736778Y-43570547D01*
G37*
G36*
X80276778Y-43570547D02*
G01*
X80443224Y-43639491D01*
X80593022Y-43739583D01*
X80720417Y-43866978D01*
X80820509Y-44016776D01*
X80889453Y-44183222D01*
X80924600Y-44359918D01*
X80924600Y-44540082D01*
X80889453Y-44716778D01*
X80820509Y-44883224D01*
X80720417Y-45033022D01*
X80593022Y-45160417D01*
X80443224Y-45260509D01*
X80276778Y-45329453D01*
X80100082Y-45364600D01*
X79919918Y-45364600D01*
X79743222Y-45329453D01*
X79576776Y-45260509D01*
X79426978Y-45160417D01*
X79299583Y-45033022D01*
X79199491Y-44883224D01*
X79130547Y-44716778D01*
X79095400Y-44540082D01*
X79095400Y-44359918D01*
X79130547Y-44183222D01*
X79199491Y-44016776D01*
X79299583Y-43866978D01*
X79426978Y-43739583D01*
X79576776Y-43639491D01*
X79743222Y-43570547D01*
X79919918Y-43535400D01*
X80100082Y-43535400D01*
X80276778Y-43570547D01*
G37*
G36*
X67576778Y-43570547D02*
G01*
X67743224Y-43639491D01*
X67893022Y-43739583D01*
X68020417Y-43866978D01*
X68120509Y-44016776D01*
X68189453Y-44183222D01*
X68224600Y-44359918D01*
X68224600Y-44540082D01*
X68189453Y-44716778D01*
X68120509Y-44883224D01*
X68020417Y-45033022D01*
X67893022Y-45160417D01*
X67743224Y-45260509D01*
X67576778Y-45329453D01*
X67400082Y-45364600D01*
X67219918Y-45364600D01*
X67043222Y-45329453D01*
X66876776Y-45260509D01*
X66726978Y-45160417D01*
X66599583Y-45033022D01*
X66499491Y-44883224D01*
X66430547Y-44716778D01*
X66395400Y-44540082D01*
X66395400Y-44359918D01*
X66430547Y-44183222D01*
X66499491Y-44016776D01*
X66599583Y-43866978D01*
X66726978Y-43739583D01*
X66876776Y-43639491D01*
X67043222Y-43570547D01*
X67219918Y-43535400D01*
X67400082Y-43535400D01*
X67576778Y-43570547D01*
G37*
G36*
X55845059Y-43727860D02*
G01*
X55981732Y-43784472D01*
X56104735Y-43866660D01*
X56209340Y-43971265D01*
X56291528Y-44094268D01*
X56348140Y-44230941D01*
X56377000Y-44376033D01*
X56377000Y-44523967D01*
X56348140Y-44669059D01*
X56291528Y-44805732D01*
X56209340Y-44928735D01*
X56104735Y-45033340D01*
X55981732Y-45115528D01*
X55981731Y-45115529D01*
X55981730Y-45115529D01*
X55845059Y-45172140D01*
X55699968Y-45201000D01*
X55552032Y-45201000D01*
X55406941Y-45172140D01*
X55270270Y-45115529D01*
X55270269Y-45115529D01*
X55270268Y-45115528D01*
X55147265Y-45033340D01*
X55042660Y-44928735D01*
X54960472Y-44805732D01*
X54903860Y-44669059D01*
X54875000Y-44523967D01*
X54875000Y-44376033D01*
X54903860Y-44230941D01*
X54960472Y-44094268D01*
X55042660Y-43971265D01*
X55147265Y-43866660D01*
X55270268Y-43784472D01*
X55406941Y-43727860D01*
X55552032Y-43699000D01*
X55699968Y-43699000D01*
X55845059Y-43727860D01*
G37*
G36*
X88251512Y-42537927D02*
G01*
X88400812Y-42567624D01*
X88564784Y-42635544D01*
X88712354Y-42734147D01*
X88837853Y-42859646D01*
X88936456Y-43007216D01*
X89004376Y-43171188D01*
X89039000Y-43345259D01*
X89039000Y-43522741D01*
X89004376Y-43696812D01*
X88936456Y-43860784D01*
X88837853Y-44008354D01*
X88712354Y-44133853D01*
X88564784Y-44232456D01*
X88400812Y-44300376D01*
X88251512Y-44330073D01*
X88226742Y-44335000D01*
X88049258Y-44335000D01*
X88024488Y-44330073D01*
X87875188Y-44300376D01*
X87711216Y-44232456D01*
X87563646Y-44133853D01*
X87438147Y-44008354D01*
X87339544Y-43860784D01*
X87271624Y-43696812D01*
X87237000Y-43522741D01*
X87237000Y-43345259D01*
X87271624Y-43171188D01*
X87339544Y-43007216D01*
X87438147Y-42859646D01*
X87563646Y-42734147D01*
X87711216Y-42635544D01*
X87875188Y-42567624D01*
X88024488Y-42537927D01*
X88049258Y-42533000D01*
X88226742Y-42533000D01*
X88251512Y-42537927D01*
G37*
G36*
X53511143Y-42392087D02*
G01*
X53667838Y-42456992D01*
X53808853Y-42551215D01*
X53928785Y-42671147D01*
X54023008Y-42812162D01*
X54087913Y-42968857D01*
X54121000Y-43135198D01*
X54121000Y-43304802D01*
X54087913Y-43471143D01*
X54023008Y-43627838D01*
X53928785Y-43768853D01*
X53808853Y-43888785D01*
X53667838Y-43983008D01*
X53511143Y-44047913D01*
X53344802Y-44081000D01*
X53175198Y-44081000D01*
X53008857Y-44047913D01*
X52852162Y-43983008D01*
X52711147Y-43888785D01*
X52591215Y-43768853D01*
X52496992Y-43627838D01*
X52432087Y-43471143D01*
X52399000Y-43304802D01*
X52399000Y-43135198D01*
X52432087Y-42968857D01*
X52496992Y-42812162D01*
X52591215Y-42671147D01*
X52711147Y-42551215D01*
X52852162Y-42456992D01*
X53008857Y-42392087D01*
X53175198Y-42359000D01*
X53344802Y-42359000D01*
X53511143Y-42392087D01*
G37*
G36*
X75196778Y-41030547D02*
G01*
X75363224Y-41099491D01*
X75513022Y-41199583D01*
X75640417Y-41326978D01*
X75740509Y-41476776D01*
X75809453Y-41643222D01*
X75844600Y-41819918D01*
X75844600Y-42000082D01*
X75809453Y-42176778D01*
X75740509Y-42343224D01*
X75640417Y-42493022D01*
X75513022Y-42620417D01*
X75363224Y-42720509D01*
X75196778Y-42789453D01*
X75020082Y-42824600D01*
X74839918Y-42824600D01*
X74663222Y-42789453D01*
X74496776Y-42720509D01*
X74346978Y-42620417D01*
X74219583Y-42493022D01*
X74119491Y-42343224D01*
X74050547Y-42176778D01*
X74015400Y-42000082D01*
X74015400Y-41819918D01*
X74050547Y-41643222D01*
X74119491Y-41476776D01*
X74219583Y-41326978D01*
X74346978Y-41199583D01*
X74496776Y-41099491D01*
X74663222Y-41030547D01*
X74839918Y-40995400D01*
X75020082Y-40995400D01*
X75196778Y-41030547D01*
G37*
G36*
X67576778Y-41030547D02*
G01*
X67743224Y-41099491D01*
X67893022Y-41199583D01*
X68020417Y-41326978D01*
X68120509Y-41476776D01*
X68189453Y-41643222D01*
X68224600Y-41819918D01*
X68224600Y-42000082D01*
X68189453Y-42176778D01*
X68120509Y-42343224D01*
X68020417Y-42493022D01*
X67893022Y-42620417D01*
X67743224Y-42720509D01*
X67576778Y-42789453D01*
X67400082Y-42824600D01*
X67219918Y-42824600D01*
X67043222Y-42789453D01*
X66876776Y-42720509D01*
X66726978Y-42620417D01*
X66599583Y-42493022D01*
X66499491Y-42343224D01*
X66430547Y-42176778D01*
X66395400Y-42000082D01*
X66395400Y-41819918D01*
X66430547Y-41643222D01*
X66499491Y-41476776D01*
X66599583Y-41326978D01*
X66726978Y-41199583D01*
X66876776Y-41099491D01*
X67043222Y-41030547D01*
X67219918Y-40995400D01*
X67400082Y-40995400D01*
X67576778Y-41030547D01*
G37*
G36*
X65036778Y-41030547D02*
G01*
X65203224Y-41099491D01*
X65353022Y-41199583D01*
X65480417Y-41326978D01*
X65580509Y-41476776D01*
X65649453Y-41643222D01*
X65684600Y-41819918D01*
X65684600Y-42000082D01*
X65649453Y-42176778D01*
X65580509Y-42343224D01*
X65480417Y-42493022D01*
X65353022Y-42620417D01*
X65203224Y-42720509D01*
X65036778Y-42789453D01*
X64860082Y-42824600D01*
X64679918Y-42824600D01*
X64503222Y-42789453D01*
X64336776Y-42720509D01*
X64186978Y-42620417D01*
X64059583Y-42493022D01*
X63959491Y-42343224D01*
X63890547Y-42176778D01*
X63855400Y-42000082D01*
X63855400Y-41819918D01*
X63890547Y-41643222D01*
X63959491Y-41476776D01*
X64059583Y-41326978D01*
X64186978Y-41199583D01*
X64336776Y-41099491D01*
X64503222Y-41030547D01*
X64679918Y-40995400D01*
X64860082Y-40995400D01*
X65036778Y-41030547D01*
G37*
G36*
X70116778Y-41030547D02*
G01*
X70283224Y-41099491D01*
X70433022Y-41199583D01*
X70560417Y-41326978D01*
X70660509Y-41476776D01*
X70729453Y-41643222D01*
X70764600Y-41819918D01*
X70764600Y-42000082D01*
X70729453Y-42176778D01*
X70660509Y-42343224D01*
X70560417Y-42493022D01*
X70433022Y-42620417D01*
X70283224Y-42720509D01*
X70116778Y-42789453D01*
X69940082Y-42824600D01*
X69759918Y-42824600D01*
X69583222Y-42789453D01*
X69416776Y-42720509D01*
X69266978Y-42620417D01*
X69139583Y-42493022D01*
X69039491Y-42343224D01*
X68970547Y-42176778D01*
X68935400Y-42000082D01*
X68935400Y-41819918D01*
X68970547Y-41643222D01*
X69039491Y-41476776D01*
X69139583Y-41326978D01*
X69266978Y-41199583D01*
X69416776Y-41099491D01*
X69583222Y-41030547D01*
X69759918Y-40995400D01*
X69940082Y-40995400D01*
X70116778Y-41030547D01*
G37*
G36*
X62496778Y-41030547D02*
G01*
X62663224Y-41099491D01*
X62813022Y-41199583D01*
X62940417Y-41326978D01*
X63040509Y-41476776D01*
X63109453Y-41643222D01*
X63144600Y-41819918D01*
X63144600Y-42000082D01*
X63109453Y-42176778D01*
X63040509Y-42343224D01*
X62940417Y-42493022D01*
X62813022Y-42620417D01*
X62663224Y-42720509D01*
X62496778Y-42789453D01*
X62320082Y-42824600D01*
X62139918Y-42824600D01*
X61963222Y-42789453D01*
X61796776Y-42720509D01*
X61646978Y-42620417D01*
X61519583Y-42493022D01*
X61419491Y-42343224D01*
X61350547Y-42176778D01*
X61315400Y-42000082D01*
X61315400Y-41819918D01*
X61350547Y-41643222D01*
X61419491Y-41476776D01*
X61519583Y-41326978D01*
X61646978Y-41199583D01*
X61796776Y-41099491D01*
X61963222Y-41030547D01*
X62139918Y-40995400D01*
X62320082Y-40995400D01*
X62496778Y-41030547D01*
G37*
G36*
X80276778Y-41030547D02*
G01*
X80443224Y-41099491D01*
X80593022Y-41199583D01*
X80720417Y-41326978D01*
X80820509Y-41476776D01*
X80889453Y-41643222D01*
X80924600Y-41819918D01*
X80924600Y-42000082D01*
X80889453Y-42176778D01*
X80820509Y-42343224D01*
X80720417Y-42493022D01*
X80593022Y-42620417D01*
X80443224Y-42720509D01*
X80276778Y-42789453D01*
X80100082Y-42824600D01*
X79919918Y-42824600D01*
X79743222Y-42789453D01*
X79576776Y-42720509D01*
X79426978Y-42620417D01*
X79299583Y-42493022D01*
X79199491Y-42343224D01*
X79130547Y-42176778D01*
X79095400Y-42000082D01*
X79095400Y-41819918D01*
X79130547Y-41643222D01*
X79199491Y-41476776D01*
X79299583Y-41326978D01*
X79426978Y-41199583D01*
X79576776Y-41099491D01*
X79743222Y-41030547D01*
X79919918Y-40995400D01*
X80100082Y-40995400D01*
X80276778Y-41030547D01*
G37*
G36*
X77736778Y-41030547D02*
G01*
X77903224Y-41099491D01*
X78053022Y-41199583D01*
X78180417Y-41326978D01*
X78280509Y-41476776D01*
X78349453Y-41643222D01*
X78384600Y-41819918D01*
X78384600Y-42000082D01*
X78349453Y-42176778D01*
X78280509Y-42343224D01*
X78180417Y-42493022D01*
X78053022Y-42620417D01*
X77903224Y-42720509D01*
X77736778Y-42789453D01*
X77560082Y-42824600D01*
X77379918Y-42824600D01*
X77203222Y-42789453D01*
X77036776Y-42720509D01*
X76886978Y-42620417D01*
X76759583Y-42493022D01*
X76659491Y-42343224D01*
X76590547Y-42176778D01*
X76555400Y-42000082D01*
X76555400Y-41819918D01*
X76590547Y-41643222D01*
X76659491Y-41476776D01*
X76759583Y-41326978D01*
X76886978Y-41199583D01*
X77036776Y-41099491D01*
X77203222Y-41030547D01*
X77379918Y-40995400D01*
X77560082Y-40995400D01*
X77736778Y-41030547D01*
G37*
G36*
X72656778Y-41030547D02*
G01*
X72823224Y-41099491D01*
X72973022Y-41199583D01*
X73100417Y-41326978D01*
X73200509Y-41476776D01*
X73269453Y-41643222D01*
X73304600Y-41819918D01*
X73304600Y-42000082D01*
X73269453Y-42176778D01*
X73200509Y-42343224D01*
X73100417Y-42493022D01*
X72973022Y-42620417D01*
X72823224Y-42720509D01*
X72656778Y-42789453D01*
X72480082Y-42824600D01*
X72299918Y-42824600D01*
X72123222Y-42789453D01*
X71956776Y-42720509D01*
X71806978Y-42620417D01*
X71679583Y-42493022D01*
X71579491Y-42343224D01*
X71510547Y-42176778D01*
X71475400Y-42000082D01*
X71475400Y-41819918D01*
X71510547Y-41643222D01*
X71579491Y-41476776D01*
X71679583Y-41326978D01*
X71806978Y-41199583D01*
X71956776Y-41099491D01*
X72123222Y-41030547D01*
X72299918Y-40995400D01*
X72480082Y-40995400D01*
X72656778Y-41030547D01*
G37*
G36*
X88251512Y-39997927D02*
G01*
X88400812Y-40027624D01*
X88564784Y-40095544D01*
X88712354Y-40194147D01*
X88837853Y-40319646D01*
X88936456Y-40467216D01*
X89004376Y-40631188D01*
X89039000Y-40805259D01*
X89039000Y-40982741D01*
X89004376Y-41156812D01*
X88936456Y-41320784D01*
X88837853Y-41468354D01*
X88712354Y-41593853D01*
X88564784Y-41692456D01*
X88400812Y-41760376D01*
X88251512Y-41790073D01*
X88226742Y-41795000D01*
X88049258Y-41795000D01*
X88024488Y-41790073D01*
X87875188Y-41760376D01*
X87711216Y-41692456D01*
X87563646Y-41593853D01*
X87438147Y-41468354D01*
X87339544Y-41320784D01*
X87271624Y-41156812D01*
X87237000Y-40982741D01*
X87237000Y-40805259D01*
X87271624Y-40631188D01*
X87339544Y-40467216D01*
X87438147Y-40319646D01*
X87563646Y-40194147D01*
X87711216Y-40095544D01*
X87875188Y-40027624D01*
X88024488Y-39997927D01*
X88049258Y-39993000D01*
X88226742Y-39993000D01*
X88251512Y-39997927D01*
G37*
G36*
X48511143Y-39892087D02*
G01*
X48667838Y-39956992D01*
X48808853Y-40051215D01*
X48928785Y-40171147D01*
X49023008Y-40312162D01*
X49087913Y-40468857D01*
X49121000Y-40635198D01*
X49121000Y-40804802D01*
X49087913Y-40971143D01*
X49023008Y-41127838D01*
X48928785Y-41268853D01*
X48808853Y-41388785D01*
X48667838Y-41483008D01*
X48511143Y-41547913D01*
X48344802Y-41581000D01*
X48175198Y-41581000D01*
X48008857Y-41547913D01*
X47852162Y-41483008D01*
X47711147Y-41388785D01*
X47591215Y-41268853D01*
X47496992Y-41127838D01*
X47432087Y-40971143D01*
X47399000Y-40804802D01*
X47399000Y-40635198D01*
X47432087Y-40468857D01*
X47496992Y-40312162D01*
X47591215Y-40171147D01*
X47711147Y-40051215D01*
X47852162Y-39956992D01*
X48008857Y-39892087D01*
X48175198Y-39859000D01*
X48344802Y-39859000D01*
X48511143Y-39892087D01*
G37*
G36*
X55845059Y-39917860D02*
G01*
X55981732Y-39974472D01*
X56104735Y-40056660D01*
X56209340Y-40161265D01*
X56291528Y-40284268D01*
X56291529Y-40284270D01*
X56348140Y-40420941D01*
X56377000Y-40566032D01*
X56377000Y-40713968D01*
X56358841Y-40805259D01*
X56348140Y-40859059D01*
X56291528Y-40995732D01*
X56209340Y-41118735D01*
X56104735Y-41223340D01*
X55981732Y-41305528D01*
X55981731Y-41305529D01*
X55981730Y-41305529D01*
X55845059Y-41362140D01*
X55699968Y-41391000D01*
X55552032Y-41391000D01*
X55406941Y-41362140D01*
X55270270Y-41305529D01*
X55270269Y-41305529D01*
X55270268Y-41305528D01*
X55147265Y-41223340D01*
X55042660Y-41118735D01*
X54960472Y-40995732D01*
X54903860Y-40859059D01*
X54893159Y-40805259D01*
X54875000Y-40713968D01*
X54875000Y-40566032D01*
X54903860Y-40420941D01*
X54960471Y-40284270D01*
X54960472Y-40284268D01*
X55042660Y-40161265D01*
X55147265Y-40056660D01*
X55270268Y-39974472D01*
X55406941Y-39917860D01*
X55552032Y-39889000D01*
X55699968Y-39889000D01*
X55845059Y-39917860D01*
G37*
G36*
X88251512Y-37457927D02*
G01*
X88400812Y-37487624D01*
X88564784Y-37555544D01*
X88712354Y-37654147D01*
X88837853Y-37779646D01*
X88936456Y-37927216D01*
X89004376Y-38091188D01*
X89039000Y-38265259D01*
X89039000Y-38442741D01*
X89004376Y-38616812D01*
X88936456Y-38780784D01*
X88837853Y-38928354D01*
X88712354Y-39053853D01*
X88564784Y-39152456D01*
X88400812Y-39220376D01*
X88251512Y-39250073D01*
X88226742Y-39255000D01*
X88049258Y-39255000D01*
X88024488Y-39250073D01*
X87875188Y-39220376D01*
X87711216Y-39152456D01*
X87563646Y-39053853D01*
X87438147Y-38928354D01*
X87339544Y-38780784D01*
X87271624Y-38616812D01*
X87237000Y-38442741D01*
X87237000Y-38265259D01*
X87271624Y-38091188D01*
X87339544Y-37927216D01*
X87438147Y-37779646D01*
X87563646Y-37654147D01*
X87711216Y-37555544D01*
X87875188Y-37487624D01*
X88024488Y-37457927D01*
X88049258Y-37453000D01*
X88226742Y-37453000D01*
X88251512Y-37457927D01*
G37*
G36*
X63866915Y-35529334D02*
G01*
X63975491Y-35562271D01*
X63975494Y-35562272D01*
X64011600Y-35581571D01*
X64075556Y-35615756D01*
X64163264Y-35687736D01*
X64235244Y-35775443D01*
X64256941Y-35816036D01*
X64288728Y-35875505D01*
X64288729Y-35875508D01*
X64321666Y-35984084D01*
X64330000Y-36068702D01*
X64330000Y-36575297D01*
X64321666Y-36659916D01*
X64289252Y-36766767D01*
X64288728Y-36768495D01*
X64278761Y-36787141D01*
X64235244Y-36868557D01*
X64163264Y-36956264D01*
X64075557Y-37028244D01*
X64011601Y-37062429D01*
X63975495Y-37081728D01*
X63975492Y-37081729D01*
X63866916Y-37114666D01*
X63754000Y-37125787D01*
X63641085Y-37114666D01*
X63532509Y-37081729D01*
X63532506Y-37081728D01*
X63496400Y-37062429D01*
X63432444Y-37028244D01*
X63344737Y-36956264D01*
X63272757Y-36868557D01*
X63229239Y-36787141D01*
X63215625Y-36766766D01*
X63198298Y-36749439D01*
X63177924Y-36735826D01*
X63155285Y-36726448D01*
X63131252Y-36721668D01*
X63106748Y-36721668D01*
X63082715Y-36726448D01*
X63060076Y-36735826D01*
X63039701Y-36749440D01*
X63022374Y-36766767D01*
X63008761Y-36787141D01*
X62965244Y-36868557D01*
X62893264Y-36956264D01*
X62805557Y-37028244D01*
X62741601Y-37062429D01*
X62705495Y-37081728D01*
X62705492Y-37081729D01*
X62596916Y-37114666D01*
X62484000Y-37125787D01*
X62371085Y-37114666D01*
X62262509Y-37081729D01*
X62262506Y-37081728D01*
X62226400Y-37062429D01*
X62162444Y-37028244D01*
X62074737Y-36956264D01*
X62011622Y-36879359D01*
X61994297Y-36862034D01*
X61973923Y-36848420D01*
X61951284Y-36839043D01*
X61927250Y-36834263D01*
X61902746Y-36834263D01*
X61878713Y-36839044D01*
X61856074Y-36848421D01*
X61835700Y-36862035D01*
X61818373Y-36879362D01*
X61804759Y-36899736D01*
X61795382Y-36922375D01*
X61790000Y-36958660D01*
X61790000Y-37123000D01*
X60638000Y-37123000D01*
X60638000Y-35521000D01*
X61790000Y-35521000D01*
X61790000Y-35685341D01*
X61792402Y-35709727D01*
X61799515Y-35733176D01*
X61811066Y-35754787D01*
X61826611Y-35773729D01*
X61845553Y-35789274D01*
X61867164Y-35800825D01*
X61890613Y-35807938D01*
X61914999Y-35810340D01*
X61939385Y-35807938D01*
X61962834Y-35800825D01*
X61984445Y-35789274D01*
X62003387Y-35773729D01*
X62011608Y-35764657D01*
X62074736Y-35687736D01*
X62162443Y-35615756D01*
X62226399Y-35581571D01*
X62262505Y-35562272D01*
X62262508Y-35562271D01*
X62371084Y-35529334D01*
X62484000Y-35518213D01*
X62596915Y-35529334D01*
X62705491Y-35562271D01*
X62705494Y-35562272D01*
X62741600Y-35581571D01*
X62805556Y-35615756D01*
X62893264Y-35687736D01*
X62965244Y-35775443D01*
X63008761Y-35856859D01*
X63022375Y-35877234D01*
X63039702Y-35894561D01*
X63060076Y-35908174D01*
X63082715Y-35917552D01*
X63106748Y-35922332D01*
X63131252Y-35922332D01*
X63155285Y-35917552D01*
X63177924Y-35908174D01*
X63198299Y-35894560D01*
X63215626Y-35877233D01*
X63229239Y-35856860D01*
X63272756Y-35775444D01*
X63344736Y-35687736D01*
X63432443Y-35615756D01*
X63496399Y-35581571D01*
X63532505Y-35562272D01*
X63532508Y-35562271D01*
X63641084Y-35529334D01*
X63754000Y-35518213D01*
X63866915Y-35529334D01*
G37*
G36*
X89039000Y-36715000D02*
G01*
X87237000Y-36715000D01*
X87237000Y-34913000D01*
X89039000Y-34913000D01*
X89039000Y-36715000D01*
G37*
G36*
X49135512Y-34917927D02*
G01*
X49284812Y-34947624D01*
X49448784Y-35015544D01*
X49596354Y-35114147D01*
X49721853Y-35239646D01*
X49820456Y-35387216D01*
X49888376Y-35551188D01*
X49923000Y-35725259D01*
X49923000Y-35902741D01*
X49888376Y-36076812D01*
X49820456Y-36240784D01*
X49721853Y-36388354D01*
X49596354Y-36513853D01*
X49448784Y-36612456D01*
X49284812Y-36680376D01*
X49135512Y-36710073D01*
X49110742Y-36715000D01*
X48933258Y-36715000D01*
X48908488Y-36710073D01*
X48759188Y-36680376D01*
X48595216Y-36612456D01*
X48447646Y-36513853D01*
X48322147Y-36388354D01*
X48223544Y-36240784D01*
X48155624Y-36076812D01*
X48121000Y-35902741D01*
X48121000Y-35725259D01*
X48155624Y-35551188D01*
X48223544Y-35387216D01*
X48322147Y-35239646D01*
X48447646Y-35114147D01*
X48595216Y-35015544D01*
X48759188Y-34947624D01*
X48908488Y-34917927D01*
X48933258Y-34913000D01*
X49110742Y-34913000D01*
X49135512Y-34917927D01*
G37*
G36*
X78959059Y-31916860D02*
G01*
X79095732Y-31973472D01*
X79218735Y-32055660D01*
X79323340Y-32160265D01*
X79395994Y-32269000D01*
X79405529Y-32283270D01*
X79462140Y-32419941D01*
X79486273Y-32541265D01*
X79491000Y-32565033D01*
X79491000Y-32712967D01*
X79462140Y-32858059D01*
X79405528Y-32994732D01*
X79323340Y-33117735D01*
X79218735Y-33222340D01*
X79095732Y-33304528D01*
X78988325Y-33349018D01*
X78966718Y-33360567D01*
X78947776Y-33376112D01*
X78932230Y-33395054D01*
X78920679Y-33416665D01*
X78913566Y-33440114D01*
X78911164Y-33464500D01*
X78913566Y-33488886D01*
X78920679Y-33512335D01*
X78932230Y-33533945D01*
X78947775Y-33552887D01*
X78966717Y-33568433D01*
X78988325Y-33579982D01*
X79095732Y-33624472D01*
X79218735Y-33706660D01*
X79323340Y-33811265D01*
X79405528Y-33934268D01*
X79462140Y-34070941D01*
X79491000Y-34216033D01*
X79491000Y-34363967D01*
X79462140Y-34509059D01*
X79405528Y-34645732D01*
X79323340Y-34768735D01*
X79218735Y-34873340D01*
X79095732Y-34955528D01*
X79069711Y-34966306D01*
X79049887Y-34974518D01*
X79028276Y-34986070D01*
X79009335Y-35001615D01*
X78993790Y-35020557D01*
X78982239Y-35042168D01*
X78975126Y-35065617D01*
X78972724Y-35090003D01*
X78975126Y-35114389D01*
X78982239Y-35137838D01*
X78993791Y-35159449D01*
X79009336Y-35178390D01*
X79028278Y-35193935D01*
X79049889Y-35205486D01*
X79095729Y-35224473D01*
X79095732Y-35224475D01*
X79218735Y-35306663D01*
X79323340Y-35411268D01*
X79402229Y-35529334D01*
X79405529Y-35534273D01*
X79462140Y-35670944D01*
X79487975Y-35800825D01*
X79491000Y-35816036D01*
X79491000Y-35963970D01*
X79462140Y-36109062D01*
X79405528Y-36245735D01*
X79323340Y-36368738D01*
X79218735Y-36473343D01*
X79095732Y-36555531D01*
X79095731Y-36555532D01*
X79095730Y-36555532D01*
X78959059Y-36612143D01*
X78813968Y-36641003D01*
X78666032Y-36641003D01*
X78520941Y-36612143D01*
X78384270Y-36555532D01*
X78384269Y-36555532D01*
X78384268Y-36555531D01*
X78261265Y-36473343D01*
X78156660Y-36368738D01*
X78074472Y-36245735D01*
X78017860Y-36109062D01*
X77989000Y-35963970D01*
X77989000Y-35816036D01*
X77992026Y-35800825D01*
X78017860Y-35670944D01*
X78074471Y-35534273D01*
X78077771Y-35529334D01*
X78156660Y-35411268D01*
X78261265Y-35306663D01*
X78384268Y-35224475D01*
X78384271Y-35224473D01*
X78430111Y-35205486D01*
X78451722Y-35193935D01*
X78470664Y-35178390D01*
X78486209Y-35159448D01*
X78497761Y-35137838D01*
X78504874Y-35114389D01*
X78507276Y-35090003D01*
X78504874Y-35065617D01*
X78497761Y-35042168D01*
X78486210Y-35020557D01*
X78470665Y-35001615D01*
X78451723Y-34986070D01*
X78430113Y-34974518D01*
X78410289Y-34966306D01*
X78384268Y-34955528D01*
X78261265Y-34873340D01*
X78156660Y-34768735D01*
X78074472Y-34645732D01*
X78017860Y-34509059D01*
X77989000Y-34363967D01*
X77989000Y-34216033D01*
X78017860Y-34070941D01*
X78074472Y-33934268D01*
X78156660Y-33811265D01*
X78261265Y-33706660D01*
X78384268Y-33624472D01*
X78491675Y-33579982D01*
X78513282Y-33568433D01*
X78532224Y-33552888D01*
X78547770Y-33533946D01*
X78559321Y-33512335D01*
X78566434Y-33488886D01*
X78568836Y-33464500D01*
X78566434Y-33440114D01*
X78559321Y-33416665D01*
X78547770Y-33395055D01*
X78532225Y-33376113D01*
X78513283Y-33360567D01*
X78491675Y-33349018D01*
X78384268Y-33304528D01*
X78261265Y-33222340D01*
X78156660Y-33117735D01*
X78074472Y-32994732D01*
X78017860Y-32858059D01*
X77989000Y-32712967D01*
X77989000Y-32565033D01*
X77993728Y-32541265D01*
X78017860Y-32419941D01*
X78074471Y-32283270D01*
X78084006Y-32269000D01*
X78156660Y-32160265D01*
X78261265Y-32055660D01*
X78384268Y-31973472D01*
X78520941Y-31916860D01*
X78666032Y-31888000D01*
X78813968Y-31888000D01*
X78959059Y-31916860D01*
G37*
G36*
X69563959Y-34837860D02*
G01*
X69649618Y-34873341D01*
X69700632Y-34894472D01*
X69823635Y-34976660D01*
X69928240Y-35081265D01*
X70010428Y-35204268D01*
X70010429Y-35204270D01*
X70067040Y-35340941D01*
X70095900Y-35486032D01*
X70095900Y-35633968D01*
X70067040Y-35779059D01*
X70026375Y-35877234D01*
X70010428Y-35915732D01*
X69928240Y-36038735D01*
X69823635Y-36143340D01*
X69700632Y-36225528D01*
X69700631Y-36225529D01*
X69700630Y-36225529D01*
X69563959Y-36282140D01*
X69418868Y-36311000D01*
X69270932Y-36311000D01*
X69125841Y-36282140D01*
X68989170Y-36225529D01*
X68989169Y-36225529D01*
X68989168Y-36225528D01*
X68866165Y-36143340D01*
X68761560Y-36038735D01*
X68679372Y-35915732D01*
X68663426Y-35877234D01*
X68622760Y-35779059D01*
X68593900Y-35633968D01*
X68593900Y-35486032D01*
X68622760Y-35340941D01*
X68679371Y-35204270D01*
X68679372Y-35204268D01*
X68761560Y-35081265D01*
X68866165Y-34976660D01*
X68989168Y-34894472D01*
X69040183Y-34873341D01*
X69125841Y-34837860D01*
X69270932Y-34809000D01*
X69418868Y-34809000D01*
X69563959Y-34837860D01*
G37*
G36*
X75911059Y-33567860D02*
G01*
X75996718Y-33603341D01*
X76047732Y-33624472D01*
X76170735Y-33706660D01*
X76275340Y-33811265D01*
X76357528Y-33934268D01*
X76414140Y-34070941D01*
X76443000Y-34216033D01*
X76443000Y-34363967D01*
X76414140Y-34509059D01*
X76357528Y-34645732D01*
X76275340Y-34768735D01*
X76170735Y-34873340D01*
X76047732Y-34955528D01*
X76047731Y-34955529D01*
X76047730Y-34955529D01*
X75911059Y-35012140D01*
X75765968Y-35041000D01*
X75618032Y-35041000D01*
X75472941Y-35012140D01*
X75336270Y-34955529D01*
X75336269Y-34955529D01*
X75336268Y-34955528D01*
X75213265Y-34873340D01*
X75108660Y-34768735D01*
X75026472Y-34645732D01*
X74969860Y-34509059D01*
X74941000Y-34363967D01*
X74941000Y-34216033D01*
X74969860Y-34070941D01*
X75026472Y-33934268D01*
X75108660Y-33811265D01*
X75213265Y-33706660D01*
X75336268Y-33624472D01*
X75387283Y-33603341D01*
X75472941Y-33567860D01*
X75618032Y-33539000D01*
X75765968Y-33539000D01*
X75911059Y-33567860D01*
G37*
G36*
X49135512Y-32377927D02*
G01*
X49284812Y-32407624D01*
X49448784Y-32475544D01*
X49596354Y-32574147D01*
X49721853Y-32699646D01*
X49820456Y-32847216D01*
X49888376Y-33011188D01*
X49909569Y-33117735D01*
X49923000Y-33185258D01*
X49923000Y-33362742D01*
X49920340Y-33376113D01*
X49888376Y-33536812D01*
X49820456Y-33700784D01*
X49721853Y-33848354D01*
X49596354Y-33973853D01*
X49448784Y-34072456D01*
X49284812Y-34140376D01*
X49135512Y-34170073D01*
X49110742Y-34175000D01*
X48933258Y-34175000D01*
X48908488Y-34170073D01*
X48759188Y-34140376D01*
X48595216Y-34072456D01*
X48447646Y-33973853D01*
X48322147Y-33848354D01*
X48223544Y-33700784D01*
X48155624Y-33536812D01*
X48123660Y-33376113D01*
X48121000Y-33362742D01*
X48121000Y-33185258D01*
X48134431Y-33117735D01*
X48155624Y-33011188D01*
X48223544Y-32847216D01*
X48322147Y-32699646D01*
X48447646Y-32574147D01*
X48595216Y-32475544D01*
X48759188Y-32407624D01*
X48908488Y-32377927D01*
X48933258Y-32373000D01*
X49110742Y-32373000D01*
X49135512Y-32377927D01*
G37*
G36*
X66439699Y-32283268D02*
G01*
X66513059Y-32297860D01*
X66649732Y-32354472D01*
X66772735Y-32436660D01*
X66877340Y-32541265D01*
X66908126Y-32587340D01*
X66959529Y-32664270D01*
X67016140Y-32800941D01*
X67045000Y-32946032D01*
X67045000Y-33093968D01*
X67026841Y-33185259D01*
X67016140Y-33239059D01*
X66959528Y-33375732D01*
X66877340Y-33498735D01*
X66772735Y-33603340D01*
X66649732Y-33685528D01*
X66649731Y-33685529D01*
X66649730Y-33685529D01*
X66513059Y-33742140D01*
X66367968Y-33771000D01*
X66220032Y-33771000D01*
X66074941Y-33742140D01*
X65938270Y-33685529D01*
X65938269Y-33685529D01*
X65938268Y-33685528D01*
X65815265Y-33603340D01*
X65710660Y-33498735D01*
X65628472Y-33375732D01*
X65571860Y-33239059D01*
X65561159Y-33185259D01*
X65543000Y-33093968D01*
X65543000Y-32946032D01*
X65571860Y-32800941D01*
X65628471Y-32664270D01*
X65679874Y-32587340D01*
X65710660Y-32541265D01*
X65815265Y-32436660D01*
X65938268Y-32354472D01*
X66074941Y-32297860D01*
X66148301Y-32283268D01*
X66220032Y-32269000D01*
X66367968Y-32269000D01*
X66439699Y-32283268D01*
G37*
G36*
X54448059Y-31281860D02*
G01*
X54584732Y-31338472D01*
X54707735Y-31420660D01*
X54812340Y-31525265D01*
X54894528Y-31648268D01*
X54951140Y-31784941D01*
X54980000Y-31930033D01*
X54980000Y-32077967D01*
X54951140Y-32223059D01*
X54894528Y-32359732D01*
X54812340Y-32482735D01*
X54707735Y-32587340D01*
X54584732Y-32669528D01*
X54584731Y-32669529D01*
X54584730Y-32669529D01*
X54448059Y-32726140D01*
X54302968Y-32755000D01*
X54155032Y-32755000D01*
X54009941Y-32726140D01*
X53873270Y-32669529D01*
X53873269Y-32669529D01*
X53873268Y-32669528D01*
X53750265Y-32587340D01*
X53645660Y-32482735D01*
X53563472Y-32359732D01*
X53506860Y-32223059D01*
X53478000Y-32077967D01*
X53478000Y-31930033D01*
X53506860Y-31784941D01*
X53563472Y-31648268D01*
X53645660Y-31525265D01*
X53750265Y-31420660D01*
X53873268Y-31338472D01*
X54009941Y-31281860D01*
X54155032Y-31253000D01*
X54302968Y-31253000D01*
X54448059Y-31281860D01*
G37*
G36*
X49135512Y-29837927D02*
G01*
X49284812Y-29867624D01*
X49448784Y-29935544D01*
X49596354Y-30034147D01*
X49721853Y-30159646D01*
X49820456Y-30307216D01*
X49888376Y-30471188D01*
X49923000Y-30645259D01*
X49923000Y-30822741D01*
X49888376Y-30996812D01*
X49820456Y-31160784D01*
X49721853Y-31308354D01*
X49596354Y-31433853D01*
X49448784Y-31532456D01*
X49284812Y-31600376D01*
X49135512Y-31630073D01*
X49110742Y-31635000D01*
X48933258Y-31635000D01*
X48908488Y-31630073D01*
X48759188Y-31600376D01*
X48595216Y-31532456D01*
X48447646Y-31433853D01*
X48322147Y-31308354D01*
X48223544Y-31160784D01*
X48155624Y-30996812D01*
X48121000Y-30822741D01*
X48121000Y-30645259D01*
X48155624Y-30471188D01*
X48223544Y-30307216D01*
X48322147Y-30159646D01*
X48447646Y-30034147D01*
X48595216Y-29935544D01*
X48759188Y-29867624D01*
X48908488Y-29837927D01*
X48933258Y-29833000D01*
X49110742Y-29833000D01*
X49135512Y-29837927D01*
G37*
G36*
X61856151Y-27708971D02*
G01*
X61941059Y-27725860D01*
X62077732Y-27782472D01*
X62200735Y-27864660D01*
X62305340Y-27969265D01*
X62387528Y-28092268D01*
X62387529Y-28092270D01*
X62444140Y-28228941D01*
X62469641Y-28357143D01*
X62473000Y-28374033D01*
X62473000Y-28521967D01*
X62444140Y-28667059D01*
X62387528Y-28803732D01*
X62305340Y-28926735D01*
X62200735Y-29031340D01*
X62077732Y-29113528D01*
X62077731Y-29113529D01*
X62077730Y-29113529D01*
X61941059Y-29170140D01*
X61795968Y-29199000D01*
X61648032Y-29199000D01*
X61502941Y-29170140D01*
X61366270Y-29113529D01*
X61366269Y-29113529D01*
X61366268Y-29113528D01*
X61243265Y-29031340D01*
X61138660Y-28926735D01*
X61056472Y-28803732D01*
X60999860Y-28667059D01*
X60971000Y-28521967D01*
X60971000Y-28374033D01*
X60974360Y-28357143D01*
X60999860Y-28228941D01*
X61056471Y-28092270D01*
X61056472Y-28092268D01*
X61138660Y-27969265D01*
X61243265Y-27864660D01*
X61366268Y-27782472D01*
X61502941Y-27725860D01*
X61587849Y-27708971D01*
X61648032Y-27697000D01*
X61795968Y-27697000D01*
X61856151Y-27708971D01*
G37*
G36*
X49923000Y-29095000D02*
G01*
X48121000Y-29095000D01*
X48121000Y-27293000D01*
X49923000Y-27293000D01*
X49923000Y-29095000D01*
G37*
G36*
X84086778Y-27060547D02*
G01*
X84253224Y-27129491D01*
X84403022Y-27229583D01*
X84530417Y-27356978D01*
X84630509Y-27506776D01*
X84699453Y-27673222D01*
X84734600Y-27849918D01*
X84734600Y-28030082D01*
X84699453Y-28206778D01*
X84630509Y-28373224D01*
X84530417Y-28523022D01*
X84403022Y-28650417D01*
X84253224Y-28750509D01*
X84086778Y-28819453D01*
X83910082Y-28854600D01*
X83729918Y-28854600D01*
X83553222Y-28819453D01*
X83386776Y-28750509D01*
X83236978Y-28650417D01*
X83109583Y-28523022D01*
X83009491Y-28373224D01*
X82940547Y-28206778D01*
X82905400Y-28030082D01*
X82905400Y-27849918D01*
X82940547Y-27673222D01*
X83009491Y-27506776D01*
X83109583Y-27356978D01*
X83236978Y-27229583D01*
X83386776Y-27129491D01*
X83553222Y-27060547D01*
X83729918Y-27025400D01*
X83910082Y-27025400D01*
X84086778Y-27060547D01*
G37*
G36*
X87274600Y-28854600D02*
G01*
X85445400Y-28854600D01*
X85445400Y-27025400D01*
X87274600Y-27025400D01*
X87274600Y-28854600D01*
G37*
G36*
X64466268Y-25309918D02*
G01*
X64481059Y-25312860D01*
X64617732Y-25369472D01*
X64740735Y-25451660D01*
X64845340Y-25556265D01*
X64927528Y-25679268D01*
X64927529Y-25679270D01*
X64984140Y-25815941D01*
X65013000Y-25961032D01*
X65013000Y-26108968D01*
X64984140Y-26254059D01*
X64929185Y-26386733D01*
X64927528Y-26390732D01*
X64845340Y-26513735D01*
X64740735Y-26618340D01*
X64617732Y-26700528D01*
X64591711Y-26711306D01*
X64571887Y-26719518D01*
X64550276Y-26731070D01*
X64531335Y-26746615D01*
X64515790Y-26765557D01*
X64504239Y-26787168D01*
X64497126Y-26810617D01*
X64494724Y-26835003D01*
X64497126Y-26859389D01*
X64504239Y-26882838D01*
X64515791Y-26904449D01*
X64531336Y-26923390D01*
X64550278Y-26938935D01*
X64571889Y-26950486D01*
X64617729Y-26969473D01*
X64617732Y-26969475D01*
X64740735Y-27051663D01*
X64845340Y-27156268D01*
X64894328Y-27229584D01*
X64927529Y-27279273D01*
X64984140Y-27415944D01*
X65013000Y-27561035D01*
X65013000Y-27708971D01*
X64984140Y-27854062D01*
X64936421Y-27969267D01*
X64927528Y-27990735D01*
X64845340Y-28113738D01*
X64740735Y-28218343D01*
X64617732Y-28300531D01*
X64617731Y-28300532D01*
X64617730Y-28300532D01*
X64481059Y-28357143D01*
X64335968Y-28386003D01*
X64188032Y-28386003D01*
X64042941Y-28357143D01*
X63906270Y-28300532D01*
X63906269Y-28300532D01*
X63906268Y-28300531D01*
X63783265Y-28218343D01*
X63678660Y-28113738D01*
X63596472Y-27990735D01*
X63587580Y-27969267D01*
X63539860Y-27854062D01*
X63511000Y-27708971D01*
X63511000Y-27561035D01*
X63539860Y-27415944D01*
X63596471Y-27279273D01*
X63629672Y-27229584D01*
X63678660Y-27156268D01*
X63783265Y-27051663D01*
X63906268Y-26969475D01*
X63906271Y-26969473D01*
X63952111Y-26950486D01*
X63973722Y-26938935D01*
X63992664Y-26923390D01*
X64008209Y-26904448D01*
X64019761Y-26882838D01*
X64026874Y-26859389D01*
X64029276Y-26835003D01*
X64026874Y-26810617D01*
X64019761Y-26787168D01*
X64008210Y-26765557D01*
X63992665Y-26746615D01*
X63973723Y-26731070D01*
X63952113Y-26719518D01*
X63932289Y-26711306D01*
X63906268Y-26700528D01*
X63783265Y-26618340D01*
X63678660Y-26513735D01*
X63596472Y-26390732D01*
X63594816Y-26386733D01*
X63539860Y-26254059D01*
X63511000Y-26108968D01*
X63511000Y-25961032D01*
X63539860Y-25815941D01*
X63596471Y-25679270D01*
X63596472Y-25679268D01*
X63678660Y-25556265D01*
X63783265Y-25451660D01*
X63906268Y-25369472D01*
X64042941Y-25312860D01*
X64057732Y-25309918D01*
X64188032Y-25284000D01*
X64335968Y-25284000D01*
X64466268Y-25309918D01*
G37*
G36*
X54702059Y-25566860D02*
G01*
X54808963Y-25611141D01*
X54838732Y-25623472D01*
X54961735Y-25705660D01*
X55066340Y-25810265D01*
X55082221Y-25834033D01*
X55148529Y-25933270D01*
X55205140Y-26069941D01*
X55234000Y-26215032D01*
X55234000Y-26362968D01*
X55228478Y-26390730D01*
X55205140Y-26508059D01*
X55148528Y-26644732D01*
X55066340Y-26767735D01*
X54961735Y-26872340D01*
X54838732Y-26954528D01*
X54838731Y-26954529D01*
X54838730Y-26954529D01*
X54702059Y-27011140D01*
X54556968Y-27040000D01*
X54409032Y-27040000D01*
X54263941Y-27011140D01*
X54127270Y-26954529D01*
X54127269Y-26954529D01*
X54127268Y-26954528D01*
X54004265Y-26872340D01*
X53899660Y-26767735D01*
X53817472Y-26644732D01*
X53760860Y-26508059D01*
X53737522Y-26390730D01*
X53732000Y-26362968D01*
X53732000Y-26215032D01*
X53760860Y-26069941D01*
X53817471Y-25933270D01*
X53883779Y-25834033D01*
X53899660Y-25810265D01*
X54004265Y-25705660D01*
X54127268Y-25623472D01*
X54157038Y-25611141D01*
X54263941Y-25566860D01*
X54409032Y-25538000D01*
X54556968Y-25538000D01*
X54702059Y-25566860D01*
G37*
G36*
X62449059Y-25185860D02*
G01*
X62585732Y-25242472D01*
X62708735Y-25324660D01*
X62813340Y-25429265D01*
X62895528Y-25552268D01*
X62895529Y-25552270D01*
X62952140Y-25688941D01*
X62977402Y-25815941D01*
X62981000Y-25834033D01*
X62981000Y-25981967D01*
X62952140Y-26127059D01*
X62895528Y-26263732D01*
X62813340Y-26386735D01*
X62708735Y-26491340D01*
X62585732Y-26573528D01*
X62585731Y-26573529D01*
X62585730Y-26573529D01*
X62449059Y-26630140D01*
X62303968Y-26659000D01*
X62156032Y-26659000D01*
X62010941Y-26630140D01*
X61874270Y-26573529D01*
X61874269Y-26573529D01*
X61874268Y-26573528D01*
X61751265Y-26491340D01*
X61646660Y-26386735D01*
X61564472Y-26263732D01*
X61507860Y-26127059D01*
X61479000Y-25981967D01*
X61479000Y-25834033D01*
X61482599Y-25815941D01*
X61507860Y-25688941D01*
X61564471Y-25552270D01*
X61564472Y-25552268D01*
X61646660Y-25429265D01*
X61751265Y-25324660D01*
X61874268Y-25242472D01*
X62010941Y-25185860D01*
X62156032Y-25157000D01*
X62303968Y-25157000D01*
X62449059Y-25185860D01*
G37*
G36*
X84086778Y-24520547D02*
G01*
X84253224Y-24589491D01*
X84403022Y-24689583D01*
X84530417Y-24816978D01*
X84630509Y-24966776D01*
X84699453Y-25133222D01*
X84734600Y-25309918D01*
X84734600Y-25490082D01*
X84699453Y-25666778D01*
X84630509Y-25833224D01*
X84530417Y-25983022D01*
X84403022Y-26110417D01*
X84253224Y-26210509D01*
X84086778Y-26279453D01*
X83910082Y-26314600D01*
X83729918Y-26314600D01*
X83553222Y-26279453D01*
X83386776Y-26210509D01*
X83236978Y-26110417D01*
X83109583Y-25983022D01*
X83009491Y-25833224D01*
X82940547Y-25666778D01*
X82905400Y-25490082D01*
X82905400Y-25309918D01*
X82940547Y-25133222D01*
X83009491Y-24966776D01*
X83109583Y-24816978D01*
X83236978Y-24689583D01*
X83386776Y-24589491D01*
X83553222Y-24520547D01*
X83729918Y-24485400D01*
X83910082Y-24485400D01*
X84086778Y-24520547D01*
G37*
G36*
X86626778Y-24520547D02*
G01*
X86793224Y-24589491D01*
X86943022Y-24689583D01*
X87070417Y-24816978D01*
X87170509Y-24966776D01*
X87239453Y-25133222D01*
X87274600Y-25309918D01*
X87274600Y-25490082D01*
X87239453Y-25666778D01*
X87170509Y-25833224D01*
X87070417Y-25983022D01*
X86943022Y-26110417D01*
X86793224Y-26210509D01*
X86626778Y-26279453D01*
X86450082Y-26314600D01*
X86269918Y-26314600D01*
X86093222Y-26279453D01*
X85926776Y-26210509D01*
X85776978Y-26110417D01*
X85649583Y-25983022D01*
X85549491Y-25833224D01*
X85480547Y-25666778D01*
X85445400Y-25490082D01*
X85445400Y-25309918D01*
X85480547Y-25133222D01*
X85549491Y-24966776D01*
X85649583Y-24816978D01*
X85776978Y-24689583D01*
X85926776Y-24589491D01*
X86093222Y-24520547D01*
X86269918Y-24485400D01*
X86450082Y-24485400D01*
X86626778Y-24520547D01*
G37*
G36*
X57770916Y-24353334D02*
G01*
X57879492Y-24386271D01*
X57879495Y-24386272D01*
X57915601Y-24405571D01*
X57979557Y-24439756D01*
X58067264Y-24511736D01*
X58130383Y-24588646D01*
X58147702Y-24605965D01*
X58168077Y-24619579D01*
X58190716Y-24628957D01*
X58214749Y-24633737D01*
X58239253Y-24633737D01*
X58263286Y-24628957D01*
X58285925Y-24619579D01*
X58306299Y-24605966D01*
X58323626Y-24588639D01*
X58337240Y-24568264D01*
X58346618Y-24545625D01*
X58351398Y-24521592D01*
X58352000Y-24509340D01*
X58352000Y-24345000D01*
X59504000Y-24345000D01*
X59504000Y-25947000D01*
X58352000Y-25947000D01*
X58352000Y-25782660D01*
X58349598Y-25758274D01*
X58342485Y-25734825D01*
X58330934Y-25713214D01*
X58315389Y-25694272D01*
X58296447Y-25678727D01*
X58274836Y-25667176D01*
X58251387Y-25660063D01*
X58227001Y-25657661D01*
X58202615Y-25660063D01*
X58179166Y-25667176D01*
X58157555Y-25678727D01*
X58130381Y-25703356D01*
X58067264Y-25780264D01*
X57979556Y-25852244D01*
X57915600Y-25886429D01*
X57879494Y-25905728D01*
X57879491Y-25905729D01*
X57770915Y-25938666D01*
X57658000Y-25949787D01*
X57545084Y-25938666D01*
X57436508Y-25905729D01*
X57436505Y-25905728D01*
X57400399Y-25886429D01*
X57336443Y-25852244D01*
X57248736Y-25780264D01*
X57176756Y-25692556D01*
X57133239Y-25611140D01*
X57119625Y-25590766D01*
X57102298Y-25573439D01*
X57081924Y-25559825D01*
X57059285Y-25550448D01*
X57035251Y-25545668D01*
X57010747Y-25545668D01*
X56986714Y-25550449D01*
X56964075Y-25559826D01*
X56943701Y-25573440D01*
X56926374Y-25590767D01*
X56912762Y-25611140D01*
X56869244Y-25692557D01*
X56797264Y-25780264D01*
X56709556Y-25852244D01*
X56645600Y-25886429D01*
X56609494Y-25905728D01*
X56609491Y-25905729D01*
X56500915Y-25938666D01*
X56388000Y-25949787D01*
X56275084Y-25938666D01*
X56166508Y-25905729D01*
X56166505Y-25905728D01*
X56130399Y-25886429D01*
X56066443Y-25852244D01*
X55978736Y-25780264D01*
X55906756Y-25692556D01*
X55863239Y-25611140D01*
X55853272Y-25592494D01*
X55847492Y-25573440D01*
X55820334Y-25483915D01*
X55812000Y-25399297D01*
X55812000Y-24892702D01*
X55820334Y-24808084D01*
X55853271Y-24699508D01*
X55853272Y-24699505D01*
X55906756Y-24599445D01*
X55906757Y-24599443D01*
X55978737Y-24511736D01*
X56066444Y-24439756D01*
X56130400Y-24405571D01*
X56166506Y-24386272D01*
X56166509Y-24386271D01*
X56275085Y-24353334D01*
X56388000Y-24342213D01*
X56500916Y-24353334D01*
X56609492Y-24386271D01*
X56609495Y-24386272D01*
X56645601Y-24405571D01*
X56709557Y-24439756D01*
X56797264Y-24511736D01*
X56869244Y-24599443D01*
X56883973Y-24627000D01*
X56912761Y-24680859D01*
X56926375Y-24701234D01*
X56943702Y-24718561D01*
X56964076Y-24732174D01*
X56986715Y-24741552D01*
X57010748Y-24746332D01*
X57035252Y-24746332D01*
X57059285Y-24741552D01*
X57081924Y-24732174D01*
X57102299Y-24718560D01*
X57119626Y-24701233D01*
X57133239Y-24680859D01*
X57176756Y-24599445D01*
X57176757Y-24599443D01*
X57248737Y-24511736D01*
X57336444Y-24439756D01*
X57400400Y-24405571D01*
X57436506Y-24386272D01*
X57436509Y-24386271D01*
X57545085Y-24353334D01*
X57658000Y-24342213D01*
X57770916Y-24353334D01*
G37*
G36*
X64481059Y-23153860D02*
G01*
X64582152Y-23195734D01*
X64617732Y-23210472D01*
X64740735Y-23292660D01*
X64845340Y-23397265D01*
X64887926Y-23461000D01*
X64927529Y-23520270D01*
X64984140Y-23656941D01*
X65007544Y-23774600D01*
X65013000Y-23802033D01*
X65013000Y-23949967D01*
X64984140Y-24095059D01*
X64927528Y-24231732D01*
X64845340Y-24354735D01*
X64740735Y-24459340D01*
X64617732Y-24541528D01*
X64617731Y-24541529D01*
X64617730Y-24541529D01*
X64481059Y-24598140D01*
X64335968Y-24627000D01*
X64188032Y-24627000D01*
X64042941Y-24598140D01*
X63906270Y-24541529D01*
X63906269Y-24541529D01*
X63906268Y-24541528D01*
X63783265Y-24459340D01*
X63678660Y-24354735D01*
X63596472Y-24231732D01*
X63539860Y-24095059D01*
X63511000Y-23949967D01*
X63511000Y-23802033D01*
X63516457Y-23774600D01*
X63539860Y-23656941D01*
X63596471Y-23520270D01*
X63636074Y-23461000D01*
X63678660Y-23397265D01*
X63783265Y-23292660D01*
X63906268Y-23210472D01*
X63941849Y-23195734D01*
X64042941Y-23153860D01*
X64188032Y-23125000D01*
X64335968Y-23125000D01*
X64481059Y-23153860D01*
G37*
G36*
X51951000Y-21471000D02*
G01*
X50985993Y-21471000D01*
X50961607Y-21473402D01*
X50938158Y-21480515D01*
X50916547Y-21492066D01*
X50897605Y-21507611D01*
X50882060Y-21526553D01*
X50870509Y-21548164D01*
X50863396Y-21571613D01*
X50860994Y-21595999D01*
X50863396Y-21620385D01*
X50870509Y-21643834D01*
X50882060Y-21665445D01*
X50897605Y-21684387D01*
X50916547Y-21699932D01*
X50938158Y-21711483D01*
X50961608Y-21718596D01*
X51135734Y-21753232D01*
X51345203Y-21839997D01*
X51533720Y-21965960D01*
X51694040Y-22126280D01*
X51820003Y-22314797D01*
X51906768Y-22524266D01*
X51951000Y-22746636D01*
X51951000Y-22973364D01*
X51906768Y-23195734D01*
X51820003Y-23405203D01*
X51694040Y-23593720D01*
X51533720Y-23754040D01*
X51345203Y-23880003D01*
X51135734Y-23966768D01*
X51024549Y-23988884D01*
X50913365Y-24011000D01*
X50686635Y-24011000D01*
X50575451Y-23988884D01*
X50464266Y-23966768D01*
X50254797Y-23880003D01*
X50066280Y-23754040D01*
X49905960Y-23593720D01*
X49779997Y-23405203D01*
X49693232Y-23195734D01*
X49649000Y-22973364D01*
X49649000Y-22746636D01*
X49693232Y-22524266D01*
X49779997Y-22314797D01*
X49905960Y-22126280D01*
X50066280Y-21965960D01*
X50254797Y-21839997D01*
X50464266Y-21753232D01*
X50638392Y-21718596D01*
X50661842Y-21711483D01*
X50683453Y-21699932D01*
X50702395Y-21684387D01*
X50717940Y-21665445D01*
X50729491Y-21643834D01*
X50736604Y-21620385D01*
X50739006Y-21595999D01*
X50736604Y-21571613D01*
X50729491Y-21548164D01*
X50717940Y-21526553D01*
X50702395Y-21507611D01*
X50683453Y-21492066D01*
X50661842Y-21480515D01*
X50638393Y-21473402D01*
X50614007Y-21471000D01*
X49649000Y-21471000D01*
X49649000Y-19169000D01*
X51951000Y-19169000D01*
X51951000Y-21471000D01*
G37*
G36*
X84086778Y-21980547D02*
G01*
X84253224Y-22049491D01*
X84403022Y-22149583D01*
X84530417Y-22276978D01*
X84630509Y-22426776D01*
X84699453Y-22593222D01*
X84734600Y-22769918D01*
X84734600Y-22950082D01*
X84699453Y-23126778D01*
X84630509Y-23293224D01*
X84530417Y-23443022D01*
X84403022Y-23570417D01*
X84253224Y-23670509D01*
X84086778Y-23739453D01*
X83910082Y-23774600D01*
X83729918Y-23774600D01*
X83553222Y-23739453D01*
X83386776Y-23670509D01*
X83236978Y-23570417D01*
X83109583Y-23443022D01*
X83009491Y-23293224D01*
X82940547Y-23126778D01*
X82905400Y-22950082D01*
X82905400Y-22769918D01*
X82940547Y-22593222D01*
X83009491Y-22426776D01*
X83109583Y-22276978D01*
X83236978Y-22149583D01*
X83386776Y-22049491D01*
X83553222Y-21980547D01*
X83729918Y-21945400D01*
X83910082Y-21945400D01*
X84086778Y-21980547D01*
G37*
G36*
X86626778Y-21980547D02*
G01*
X86793224Y-22049491D01*
X86943022Y-22149583D01*
X87070417Y-22276978D01*
X87170509Y-22426776D01*
X87239453Y-22593222D01*
X87274600Y-22769918D01*
X87274600Y-22950082D01*
X87239453Y-23126778D01*
X87170509Y-23293224D01*
X87070417Y-23443022D01*
X86943022Y-23570417D01*
X86793224Y-23670509D01*
X86626778Y-23739453D01*
X86450082Y-23774600D01*
X86269918Y-23774600D01*
X86093222Y-23739453D01*
X85926776Y-23670509D01*
X85776978Y-23570417D01*
X85649583Y-23443022D01*
X85549491Y-23293224D01*
X85480547Y-23126778D01*
X85445400Y-22950082D01*
X85445400Y-22769918D01*
X85480547Y-22593222D01*
X85549491Y-22426776D01*
X85649583Y-22276978D01*
X85776978Y-22149583D01*
X85926776Y-22049491D01*
X86093222Y-21980547D01*
X86269918Y-21945400D01*
X86450082Y-21945400D01*
X86626778Y-21980547D01*
G37*
G36*
X48396601Y-22274397D02*
G01*
X48435305Y-22282096D01*
X48467340Y-22295365D01*
X48544680Y-22327400D01*
X48643115Y-22393173D01*
X48726827Y-22476885D01*
X48792600Y-22575320D01*
X48837904Y-22684696D01*
X48861000Y-22800805D01*
X48861000Y-22919195D01*
X48837904Y-23035304D01*
X48792600Y-23144680D01*
X48726827Y-23243115D01*
X48643115Y-23326827D01*
X48544680Y-23392600D01*
X48467340Y-23424635D01*
X48435305Y-23437904D01*
X48409575Y-23443022D01*
X48319195Y-23461000D01*
X48200805Y-23461000D01*
X48110425Y-23443022D01*
X48084695Y-23437904D01*
X48052660Y-23424635D01*
X47975320Y-23392600D01*
X47876885Y-23326827D01*
X47793173Y-23243115D01*
X47727400Y-23144680D01*
X47682096Y-23035304D01*
X47659000Y-22919195D01*
X47659000Y-22800805D01*
X47682096Y-22684696D01*
X47727400Y-22575320D01*
X47793173Y-22476885D01*
X47876885Y-22393173D01*
X47975320Y-22327400D01*
X48052660Y-22295365D01*
X48084695Y-22282096D01*
X48123399Y-22274397D01*
X48200805Y-22259000D01*
X48319195Y-22259000D01*
X48396601Y-22274397D01*
G37*
G36*
X63973059Y-20867860D02*
G01*
X64057948Y-20903022D01*
X64109732Y-20924472D01*
X64232735Y-21006660D01*
X64337340Y-21111265D01*
X64396265Y-21199453D01*
X64419529Y-21234270D01*
X64476140Y-21370941D01*
X64505000Y-21516032D01*
X64505000Y-21663968D01*
X64476140Y-21809059D01*
X64419528Y-21945732D01*
X64337340Y-22068735D01*
X64232735Y-22173340D01*
X64109732Y-22255528D01*
X64109731Y-22255529D01*
X64109730Y-22255529D01*
X63973059Y-22312140D01*
X63827968Y-22341000D01*
X63680032Y-22341000D01*
X63534941Y-22312140D01*
X63398270Y-22255529D01*
X63398269Y-22255529D01*
X63398268Y-22255528D01*
X63275265Y-22173340D01*
X63170660Y-22068735D01*
X63088472Y-21945732D01*
X63031860Y-21809059D01*
X63003000Y-21663968D01*
X63003000Y-21516032D01*
X63031860Y-21370941D01*
X63088471Y-21234270D01*
X63111735Y-21199453D01*
X63170660Y-21111265D01*
X63275265Y-21006660D01*
X63398268Y-20924472D01*
X63450053Y-20903022D01*
X63534941Y-20867860D01*
X63680032Y-20839000D01*
X63827968Y-20839000D01*
X63973059Y-20867860D01*
G37*
G36*
X86626778Y-19440547D02*
G01*
X86793224Y-19509491D01*
X86943022Y-19609583D01*
X87070417Y-19736978D01*
X87170509Y-19886776D01*
X87239453Y-20053222D01*
X87274600Y-20229918D01*
X87274600Y-20410082D01*
X87239453Y-20586778D01*
X87170509Y-20753224D01*
X87070417Y-20903022D01*
X86943022Y-21030417D01*
X86793224Y-21130509D01*
X86626778Y-21199453D01*
X86450082Y-21234600D01*
X86269918Y-21234600D01*
X86093222Y-21199453D01*
X85926776Y-21130509D01*
X85776978Y-21030417D01*
X85649583Y-20903022D01*
X85549491Y-20753224D01*
X85480547Y-20586778D01*
X85445400Y-20410082D01*
X85445400Y-20229918D01*
X85480547Y-20053222D01*
X85549491Y-19886776D01*
X85649583Y-19736978D01*
X85776978Y-19609583D01*
X85926776Y-19509491D01*
X86093222Y-19440547D01*
X86269918Y-19405400D01*
X86450082Y-19405400D01*
X86626778Y-19440547D01*
G37*
G36*
X84086778Y-19440547D02*
G01*
X84253224Y-19509491D01*
X84403022Y-19609583D01*
X84530417Y-19736978D01*
X84630509Y-19886776D01*
X84699453Y-20053222D01*
X84734600Y-20229918D01*
X84734600Y-20410082D01*
X84699453Y-20586778D01*
X84630509Y-20753224D01*
X84530417Y-20903022D01*
X84403022Y-21030417D01*
X84253224Y-21130509D01*
X84086778Y-21199453D01*
X83910082Y-21234600D01*
X83729918Y-21234600D01*
X83553222Y-21199453D01*
X83386776Y-21130509D01*
X83236978Y-21030417D01*
X83109583Y-20903022D01*
X83009491Y-20753224D01*
X82940547Y-20586778D01*
X82905400Y-20410082D01*
X82905400Y-20229918D01*
X82940547Y-20053222D01*
X83009491Y-19886776D01*
X83109583Y-19736978D01*
X83236978Y-19609583D01*
X83386776Y-19509491D01*
X83553222Y-19440547D01*
X83729918Y-19405400D01*
X83910082Y-19405400D01*
X84086778Y-19440547D01*
G37*
G36*
X48396601Y-19734397D02*
G01*
X48435305Y-19742096D01*
X48467340Y-19755365D01*
X48544680Y-19787400D01*
X48643115Y-19853173D01*
X48726827Y-19936885D01*
X48792600Y-20035320D01*
X48837904Y-20144696D01*
X48861000Y-20260805D01*
X48861000Y-20379195D01*
X48837904Y-20495304D01*
X48792600Y-20604680D01*
X48726827Y-20703115D01*
X48643115Y-20786827D01*
X48544680Y-20852600D01*
X48467340Y-20884635D01*
X48435305Y-20897904D01*
X48409575Y-20903022D01*
X48319195Y-20921000D01*
X48200805Y-20921000D01*
X48110425Y-20903022D01*
X48084695Y-20897904D01*
X48052660Y-20884635D01*
X47975320Y-20852600D01*
X47876885Y-20786827D01*
X47793173Y-20703115D01*
X47727400Y-20604680D01*
X47682096Y-20495304D01*
X47659000Y-20379195D01*
X47659000Y-20260805D01*
X47682096Y-20144696D01*
X47727400Y-20035320D01*
X47793173Y-19936885D01*
X47876885Y-19853173D01*
X47975320Y-19787400D01*
X48052660Y-19755365D01*
X48084695Y-19742096D01*
X48123399Y-19734397D01*
X48200805Y-19719000D01*
X48319195Y-19719000D01*
X48396601Y-19734397D01*
G37*
G36*
X86626778Y-16900547D02*
G01*
X86793224Y-16969491D01*
X86943022Y-17069583D01*
X87070417Y-17196978D01*
X87170509Y-17346776D01*
X87239453Y-17513222D01*
X87274600Y-17689918D01*
X87274600Y-17870082D01*
X87239453Y-18046778D01*
X87170509Y-18213224D01*
X87070417Y-18363022D01*
X86943022Y-18490417D01*
X86793224Y-18590509D01*
X86626778Y-18659453D01*
X86450082Y-18694600D01*
X86269918Y-18694600D01*
X86093222Y-18659453D01*
X85926776Y-18590509D01*
X85776978Y-18490417D01*
X85649583Y-18363022D01*
X85549491Y-18213224D01*
X85480547Y-18046778D01*
X85445400Y-17870082D01*
X85445400Y-17689918D01*
X85480547Y-17513222D01*
X85549491Y-17346776D01*
X85649583Y-17196978D01*
X85776978Y-17069583D01*
X85926776Y-16969491D01*
X86093222Y-16900547D01*
X86269918Y-16865400D01*
X86450082Y-16865400D01*
X86626778Y-16900547D01*
G37*
G36*
X84086778Y-16900547D02*
G01*
X84253224Y-16969491D01*
X84403022Y-17069583D01*
X84530417Y-17196978D01*
X84630509Y-17346776D01*
X84699453Y-17513222D01*
X84734600Y-17689918D01*
X84734600Y-17870082D01*
X84699453Y-18046778D01*
X84630509Y-18213224D01*
X84530417Y-18363022D01*
X84403022Y-18490417D01*
X84253224Y-18590509D01*
X84086778Y-18659453D01*
X83910082Y-18694600D01*
X83729918Y-18694600D01*
X83553222Y-18659453D01*
X83386776Y-18590509D01*
X83236978Y-18490417D01*
X83109583Y-18363022D01*
X83009491Y-18213224D01*
X82940547Y-18046778D01*
X82905400Y-17870082D01*
X82905400Y-17689918D01*
X82940547Y-17513222D01*
X83009491Y-17346776D01*
X83109583Y-17196978D01*
X83236978Y-17069583D01*
X83386776Y-16969491D01*
X83553222Y-16900547D01*
X83729918Y-16865400D01*
X83910082Y-16865400D01*
X84086778Y-16900547D01*
G37*
G36*
X69053059Y-17057860D02*
G01*
X69189732Y-17114472D01*
X69312735Y-17196660D01*
X69417340Y-17301265D01*
X69499528Y-17424268D01*
X69556140Y-17560941D01*
X69585000Y-17706033D01*
X69585000Y-17853967D01*
X69556140Y-17999059D01*
X69499528Y-18135732D01*
X69417340Y-18258735D01*
X69312735Y-18363340D01*
X69189732Y-18445528D01*
X69189731Y-18445529D01*
X69189730Y-18445529D01*
X69053059Y-18502140D01*
X68907968Y-18531000D01*
X68760032Y-18531000D01*
X68614941Y-18502140D01*
X68478270Y-18445529D01*
X68478269Y-18445529D01*
X68478268Y-18445528D01*
X68355265Y-18363340D01*
X68250660Y-18258735D01*
X68168472Y-18135732D01*
X68111860Y-17999059D01*
X68083000Y-17853967D01*
X68083000Y-17706033D01*
X68111860Y-17560941D01*
X68168472Y-17424268D01*
X68250660Y-17301265D01*
X68355265Y-17196660D01*
X68478268Y-17114472D01*
X68614941Y-17057860D01*
X68760032Y-17029000D01*
X68907968Y-17029000D01*
X69053059Y-17057860D01*
G37*
G36*
X78705059Y-15533860D02*
G01*
X78841732Y-15590472D01*
X78964735Y-15672660D01*
X79069340Y-15777265D01*
X79151528Y-15900268D01*
X79208140Y-16036941D01*
X79237000Y-16182033D01*
X79237000Y-16329967D01*
X79208140Y-16475059D01*
X79151528Y-16611732D01*
X79069340Y-16734735D01*
X78964735Y-16839340D01*
X78841732Y-16921528D01*
X78841731Y-16921529D01*
X78841730Y-16921529D01*
X78705059Y-16978140D01*
X78559968Y-17007000D01*
X78412032Y-17007000D01*
X78266941Y-16978140D01*
X78130270Y-16921529D01*
X78130269Y-16921529D01*
X78130268Y-16921528D01*
X78007265Y-16839340D01*
X77902660Y-16734735D01*
X77820472Y-16611732D01*
X77763860Y-16475059D01*
X77735000Y-16329967D01*
X77735000Y-16182033D01*
X77763860Y-16036941D01*
X77820472Y-15900268D01*
X77902660Y-15777265D01*
X78007265Y-15672660D01*
X78130268Y-15590472D01*
X78266941Y-15533860D01*
X78412032Y-15505000D01*
X78559968Y-15505000D01*
X78705059Y-15533860D01*
G37*
G36*
X63973059Y-13247860D02*
G01*
X64109732Y-13304472D01*
X64232735Y-13386660D01*
X64337340Y-13491265D01*
X64419528Y-13614268D01*
X64476140Y-13750941D01*
X64505000Y-13896033D01*
X64505000Y-14043967D01*
X64476140Y-14189059D01*
X64419528Y-14325732D01*
X64337340Y-14448735D01*
X64232735Y-14553340D01*
X64109732Y-14635528D01*
X64109731Y-14635529D01*
X64109730Y-14635529D01*
X63973059Y-14692140D01*
X63827968Y-14721000D01*
X63680032Y-14721000D01*
X63534941Y-14692140D01*
X63398270Y-14635529D01*
X63398269Y-14635529D01*
X63398268Y-14635528D01*
X63275265Y-14553340D01*
X63170660Y-14448735D01*
X63088472Y-14325732D01*
X63031860Y-14189059D01*
X63003000Y-14043967D01*
X63003000Y-13896033D01*
X63031860Y-13750941D01*
X63088472Y-13614268D01*
X63170660Y-13491265D01*
X63275265Y-13386660D01*
X63398268Y-13304472D01*
X63534941Y-13247860D01*
X63680032Y-13219000D01*
X63827968Y-13219000D01*
X63973059Y-13247860D01*
G37*
G36*
X78959059Y-12993860D02*
G01*
X79095732Y-13050472D01*
X79218735Y-13132660D01*
X79323340Y-13237265D01*
X79405528Y-13360268D01*
X79462140Y-13496941D01*
X79491000Y-13642033D01*
X79491000Y-13789967D01*
X79462140Y-13935059D01*
X79405528Y-14071732D01*
X79323340Y-14194735D01*
X79218735Y-14299340D01*
X79095732Y-14381528D01*
X79095731Y-14381529D01*
X79095730Y-14381529D01*
X78959059Y-14438140D01*
X78813968Y-14467000D01*
X78666032Y-14467000D01*
X78520941Y-14438140D01*
X78384270Y-14381529D01*
X78384269Y-14381529D01*
X78384268Y-14381528D01*
X78261265Y-14299340D01*
X78156660Y-14194735D01*
X78074472Y-14071732D01*
X78017860Y-13935059D01*
X77989000Y-13789967D01*
X77989000Y-13642033D01*
X78017860Y-13496941D01*
X78074472Y-13360268D01*
X78156660Y-13237265D01*
X78261265Y-13132660D01*
X78384268Y-13050472D01*
X78520941Y-12993860D01*
X78666032Y-12965000D01*
X78813968Y-12965000D01*
X78959059Y-12993860D01*
G37*
G36*
X91224549Y-7871116D02*
G01*
X91335734Y-7893232D01*
X91545203Y-7979997D01*
X91733720Y-8105960D01*
X91894040Y-8266280D01*
X92020003Y-8454797D01*
X92106768Y-8664266D01*
X92151000Y-8886636D01*
X92151000Y-9113364D01*
X92106768Y-9335734D01*
X92020003Y-9545203D01*
X91894040Y-9733720D01*
X91733720Y-9894040D01*
X91545203Y-10020003D01*
X91335734Y-10106768D01*
X91224549Y-10128884D01*
X91113365Y-10151000D01*
X90886635Y-10151000D01*
X90775451Y-10128884D01*
X90664266Y-10106768D01*
X90454797Y-10020003D01*
X90266280Y-9894040D01*
X90105960Y-9733720D01*
X89979997Y-9545203D01*
X89893232Y-9335734D01*
X89849000Y-9113364D01*
X89849000Y-8886636D01*
X89893232Y-8664266D01*
X89979997Y-8454797D01*
X90105960Y-8266280D01*
X90266280Y-8105960D01*
X90454797Y-7979997D01*
X90664266Y-7893232D01*
X90775451Y-7871116D01*
X90886635Y-7849000D01*
X91113365Y-7849000D01*
X91224549Y-7871116D01*
G37*
G36*
X46224549Y-7871116D02*
G01*
X46335734Y-7893232D01*
X46545203Y-7979997D01*
X46733720Y-8105960D01*
X46894040Y-8266280D01*
X47020003Y-8454797D01*
X47106768Y-8664266D01*
X47151000Y-8886636D01*
X47151000Y-9113364D01*
X47106768Y-9335734D01*
X47020003Y-9545203D01*
X46894040Y-9733720D01*
X46733720Y-9894040D01*
X46545203Y-10020003D01*
X46335734Y-10106768D01*
X46224549Y-10128884D01*
X46113365Y-10151000D01*
X45886635Y-10151000D01*
X45775451Y-10128884D01*
X45664266Y-10106768D01*
X45454797Y-10020003D01*
X45266280Y-9894040D01*
X45105960Y-9733720D01*
X44979997Y-9545203D01*
X44893232Y-9335734D01*
X44849000Y-9113364D01*
X44849000Y-8886636D01*
X44893232Y-8664266D01*
X44979997Y-8454797D01*
X45105960Y-8266280D01*
X45266280Y-8105960D01*
X45454797Y-7979997D01*
X45664266Y-7893232D01*
X45775451Y-7871116D01*
X45886635Y-7849000D01*
X46113365Y-7849000D01*
X46224549Y-7871116D01*
G37*
M02*
