G04 #@! TF.GenerationSoftware,KiCad,Pcbnew,5.1.5-1.fc31*
G04 #@! TF.CreationDate,2020-05-08T16:11:04+02:00*
G04 #@! TF.ProjectId,mcu,6d63752e-6b69-4636-9164-5f7063625858,rev?*
G04 #@! TF.SameCoordinates,Original*
G04 #@! TF.FileFunction,Soldermask,Bot*
G04 #@! TF.FilePolarity,Negative*
%FSLAX46Y46*%
G04 Gerber Fmt 4.6, Leading zero omitted, Abs format (unit mm)*
G04 Created by KiCad (PCBNEW 5.1.5-1.fc31) date 2020-05-08 16:11:04*
%MOMM*%
%LPD*%
G04 APERTURE LIST*
%ADD10C,0.150000*%
G04 APERTURE END LIST*
D10*
G36*
X91224549Y-52871116D02*
G01*
X91335734Y-52893232D01*
X91545203Y-52979997D01*
X91733720Y-53105960D01*
X91894040Y-53266280D01*
X92020003Y-53454797D01*
X92106768Y-53664266D01*
X92151000Y-53886636D01*
X92151000Y-54113364D01*
X92106768Y-54335734D01*
X92020003Y-54545203D01*
X91894040Y-54733720D01*
X91733720Y-54894040D01*
X91545203Y-55020003D01*
X91335734Y-55106768D01*
X91224549Y-55128884D01*
X91113365Y-55151000D01*
X90886635Y-55151000D01*
X90775451Y-55128884D01*
X90664266Y-55106768D01*
X90454797Y-55020003D01*
X90266280Y-54894040D01*
X90105960Y-54733720D01*
X89979997Y-54545203D01*
X89893232Y-54335734D01*
X89849000Y-54113364D01*
X89849000Y-53886636D01*
X89893232Y-53664266D01*
X89979997Y-53454797D01*
X90105960Y-53266280D01*
X90266280Y-53105960D01*
X90454797Y-52979997D01*
X90664266Y-52893232D01*
X90775451Y-52871116D01*
X90886635Y-52849000D01*
X91113365Y-52849000D01*
X91224549Y-52871116D01*
G37*
G36*
X46224549Y-52871116D02*
G01*
X46335734Y-52893232D01*
X46545203Y-52979997D01*
X46733720Y-53105960D01*
X46894040Y-53266280D01*
X47020003Y-53454797D01*
X47106768Y-53664266D01*
X47151000Y-53886636D01*
X47151000Y-54113364D01*
X47106768Y-54335734D01*
X47020003Y-54545203D01*
X46894040Y-54733720D01*
X46733720Y-54894040D01*
X46545203Y-55020003D01*
X46335734Y-55106768D01*
X46224549Y-55128884D01*
X46113365Y-55151000D01*
X45886635Y-55151000D01*
X45775451Y-55128884D01*
X45664266Y-55106768D01*
X45454797Y-55020003D01*
X45266280Y-54894040D01*
X45105960Y-54733720D01*
X44979997Y-54545203D01*
X44893232Y-54335734D01*
X44849000Y-54113364D01*
X44849000Y-53886636D01*
X44893232Y-53664266D01*
X44979997Y-53454797D01*
X45105960Y-53266280D01*
X45266280Y-53105960D01*
X45454797Y-52979997D01*
X45664266Y-52893232D01*
X45775451Y-52871116D01*
X45886635Y-52849000D01*
X46113365Y-52849000D01*
X46224549Y-52871116D01*
G37*
G36*
X88251512Y-47617927D02*
G01*
X88400812Y-47647624D01*
X88564784Y-47715544D01*
X88712354Y-47814147D01*
X88837853Y-47939646D01*
X88936456Y-48087216D01*
X89004376Y-48251188D01*
X89039000Y-48425259D01*
X89039000Y-48602741D01*
X89004376Y-48776812D01*
X88936456Y-48940784D01*
X88837853Y-49088354D01*
X88712354Y-49213853D01*
X88564784Y-49312456D01*
X88400812Y-49380376D01*
X88251512Y-49410073D01*
X88226742Y-49415000D01*
X88049258Y-49415000D01*
X88024488Y-49410073D01*
X87875188Y-49380376D01*
X87711216Y-49312456D01*
X87563646Y-49213853D01*
X87438147Y-49088354D01*
X87339544Y-48940784D01*
X87271624Y-48776812D01*
X87237000Y-48602741D01*
X87237000Y-48425259D01*
X87271624Y-48251188D01*
X87339544Y-48087216D01*
X87438147Y-47939646D01*
X87563646Y-47814147D01*
X87711216Y-47715544D01*
X87875188Y-47647624D01*
X88024488Y-47617927D01*
X88049258Y-47613000D01*
X88226742Y-47613000D01*
X88251512Y-47617927D01*
G37*
G36*
X80229059Y-47918860D02*
G01*
X80350709Y-47969249D01*
X80365732Y-47975472D01*
X80488735Y-48057660D01*
X80593340Y-48162265D01*
X80593341Y-48162267D01*
X80675529Y-48285270D01*
X80732140Y-48421941D01*
X80761000Y-48567032D01*
X80761000Y-48714968D01*
X80732140Y-48860059D01*
X80698703Y-48940784D01*
X80675528Y-48996732D01*
X80593340Y-49119735D01*
X80488735Y-49224340D01*
X80365732Y-49306528D01*
X80365731Y-49306529D01*
X80365730Y-49306529D01*
X80229059Y-49363140D01*
X80083968Y-49392000D01*
X79936032Y-49392000D01*
X79790941Y-49363140D01*
X79654270Y-49306529D01*
X79654269Y-49306529D01*
X79654268Y-49306528D01*
X79531265Y-49224340D01*
X79426660Y-49119735D01*
X79344472Y-48996732D01*
X79321298Y-48940784D01*
X79287860Y-48860059D01*
X79259000Y-48714968D01*
X79259000Y-48567032D01*
X79287860Y-48421941D01*
X79344471Y-48285270D01*
X79426659Y-48162267D01*
X79426660Y-48162265D01*
X79531265Y-48057660D01*
X79654268Y-47975472D01*
X79669292Y-47969249D01*
X79790941Y-47918860D01*
X79936032Y-47890000D01*
X80083968Y-47890000D01*
X80229059Y-47918860D01*
G37*
G36*
X61170175Y-46323400D02*
G01*
X61216995Y-46337603D01*
X61260146Y-46360668D01*
X61297971Y-46391709D01*
X61329012Y-46429534D01*
X61352077Y-46472685D01*
X61366280Y-46519505D01*
X61371680Y-46574338D01*
X61371680Y-47913662D01*
X61366280Y-47968495D01*
X61352077Y-48015315D01*
X61329012Y-48058466D01*
X61297971Y-48096291D01*
X61260146Y-48127332D01*
X61216995Y-48150397D01*
X61170175Y-48164600D01*
X61115342Y-48170000D01*
X60002018Y-48170000D01*
X59947185Y-48164600D01*
X59900365Y-48150397D01*
X59857214Y-48127332D01*
X59819389Y-48096291D01*
X59788348Y-48058466D01*
X59765283Y-48015315D01*
X59751080Y-47968495D01*
X59745680Y-47913662D01*
X59745680Y-46574338D01*
X59751080Y-46519505D01*
X59765283Y-46472685D01*
X59788348Y-46429534D01*
X59819389Y-46391709D01*
X59857214Y-46360668D01*
X59900365Y-46337603D01*
X59947185Y-46323400D01*
X60002018Y-46318000D01*
X61115342Y-46318000D01*
X61170175Y-46323400D01*
G37*
G36*
X64512815Y-46323400D02*
G01*
X64559635Y-46337603D01*
X64602786Y-46360668D01*
X64640611Y-46391709D01*
X64671652Y-46429534D01*
X64694717Y-46472685D01*
X64708920Y-46519505D01*
X64714320Y-46574338D01*
X64714320Y-47913662D01*
X64708920Y-47968495D01*
X64694717Y-48015315D01*
X64671652Y-48058466D01*
X64640611Y-48096291D01*
X64602786Y-48127332D01*
X64559635Y-48150397D01*
X64512815Y-48164600D01*
X64457982Y-48170000D01*
X63344658Y-48170000D01*
X63289825Y-48164600D01*
X63243005Y-48150397D01*
X63199854Y-48127332D01*
X63162029Y-48096291D01*
X63130988Y-48058466D01*
X63107923Y-48015315D01*
X63093720Y-47968495D01*
X63088320Y-47913662D01*
X63088320Y-46574338D01*
X63093720Y-46519505D01*
X63107923Y-46472685D01*
X63130988Y-46429534D01*
X63162029Y-46391709D01*
X63199854Y-46360668D01*
X63243005Y-46337603D01*
X63289825Y-46323400D01*
X63344658Y-46318000D01*
X64457982Y-46318000D01*
X64512815Y-46323400D01*
G37*
G36*
X88251512Y-45077927D02*
G01*
X88400812Y-45107624D01*
X88564784Y-45175544D01*
X88712354Y-45274147D01*
X88837853Y-45399646D01*
X88936456Y-45547216D01*
X89004376Y-45711188D01*
X89039000Y-45885259D01*
X89039000Y-46062741D01*
X89004376Y-46236812D01*
X88936456Y-46400784D01*
X88837853Y-46548354D01*
X88712354Y-46673853D01*
X88564784Y-46772456D01*
X88400812Y-46840376D01*
X88251512Y-46870073D01*
X88226742Y-46875000D01*
X88049258Y-46875000D01*
X88024488Y-46870073D01*
X87875188Y-46840376D01*
X87711216Y-46772456D01*
X87563646Y-46673853D01*
X87438147Y-46548354D01*
X87339544Y-46400784D01*
X87271624Y-46236812D01*
X87237000Y-46062741D01*
X87237000Y-45885259D01*
X87271624Y-45711188D01*
X87339544Y-45547216D01*
X87438147Y-45399646D01*
X87563646Y-45274147D01*
X87711216Y-45175544D01*
X87875188Y-45107624D01*
X88024488Y-45077927D01*
X88049258Y-45073000D01*
X88226742Y-45073000D01*
X88251512Y-45077927D01*
G37*
G36*
X48511143Y-44892087D02*
G01*
X48667838Y-44956992D01*
X48808853Y-45051215D01*
X48928785Y-45171147D01*
X49023008Y-45312162D01*
X49087913Y-45468857D01*
X49121000Y-45635198D01*
X49121000Y-45804802D01*
X49087913Y-45971143D01*
X49023008Y-46127838D01*
X48928785Y-46268853D01*
X48808853Y-46388785D01*
X48667838Y-46483008D01*
X48511143Y-46547913D01*
X48344802Y-46581000D01*
X48175198Y-46581000D01*
X48008857Y-46547913D01*
X47852162Y-46483008D01*
X47711147Y-46388785D01*
X47591215Y-46268853D01*
X47496992Y-46127838D01*
X47432087Y-45971143D01*
X47399000Y-45804802D01*
X47399000Y-45635198D01*
X47432087Y-45468857D01*
X47496992Y-45312162D01*
X47591215Y-45171147D01*
X47711147Y-45051215D01*
X47852162Y-44956992D01*
X48008857Y-44892087D01*
X48175198Y-44859000D01*
X48344802Y-44859000D01*
X48511143Y-44892087D01*
G37*
G36*
X70116778Y-43570547D02*
G01*
X70283224Y-43639491D01*
X70433022Y-43739583D01*
X70560417Y-43866978D01*
X70660509Y-44016776D01*
X70729453Y-44183222D01*
X70764600Y-44359918D01*
X70764600Y-44540082D01*
X70729453Y-44716778D01*
X70660509Y-44883224D01*
X70560417Y-45033022D01*
X70433022Y-45160417D01*
X70283224Y-45260509D01*
X70116778Y-45329453D01*
X69940082Y-45364600D01*
X69759918Y-45364600D01*
X69583222Y-45329453D01*
X69416776Y-45260509D01*
X69266978Y-45160417D01*
X69139583Y-45033022D01*
X69039491Y-44883224D01*
X68970547Y-44716778D01*
X68935400Y-44540082D01*
X68935400Y-44359918D01*
X68970547Y-44183222D01*
X69039491Y-44016776D01*
X69139583Y-43866978D01*
X69266978Y-43739583D01*
X69416776Y-43639491D01*
X69583222Y-43570547D01*
X69759918Y-43535400D01*
X69940082Y-43535400D01*
X70116778Y-43570547D01*
G37*
G36*
X63144600Y-45364600D02*
G01*
X61315400Y-45364600D01*
X61315400Y-43535400D01*
X63144600Y-43535400D01*
X63144600Y-45364600D01*
G37*
G36*
X65036778Y-43570547D02*
G01*
X65203224Y-43639491D01*
X65353022Y-43739583D01*
X65480417Y-43866978D01*
X65580509Y-44016776D01*
X65649453Y-44183222D01*
X65684600Y-44359918D01*
X65684600Y-44540082D01*
X65649453Y-44716778D01*
X65580509Y-44883224D01*
X65480417Y-45033022D01*
X65353022Y-45160417D01*
X65203224Y-45260509D01*
X65036778Y-45329453D01*
X64860082Y-45364600D01*
X64679918Y-45364600D01*
X64503222Y-45329453D01*
X64336776Y-45260509D01*
X64186978Y-45160417D01*
X64059583Y-45033022D01*
X63959491Y-44883224D01*
X63890547Y-44716778D01*
X63855400Y-44540082D01*
X63855400Y-44359918D01*
X63890547Y-44183222D01*
X63959491Y-44016776D01*
X64059583Y-43866978D01*
X64186978Y-43739583D01*
X64336776Y-43639491D01*
X64503222Y-43570547D01*
X64679918Y-43535400D01*
X64860082Y-43535400D01*
X65036778Y-43570547D01*
G37*
G36*
X67576778Y-43570547D02*
G01*
X67743224Y-43639491D01*
X67893022Y-43739583D01*
X68020417Y-43866978D01*
X68120509Y-44016776D01*
X68189453Y-44183222D01*
X68224600Y-44359918D01*
X68224600Y-44540082D01*
X68189453Y-44716778D01*
X68120509Y-44883224D01*
X68020417Y-45033022D01*
X67893022Y-45160417D01*
X67743224Y-45260509D01*
X67576778Y-45329453D01*
X67400082Y-45364600D01*
X67219918Y-45364600D01*
X67043222Y-45329453D01*
X66876776Y-45260509D01*
X66726978Y-45160417D01*
X66599583Y-45033022D01*
X66499491Y-44883224D01*
X66430547Y-44716778D01*
X66395400Y-44540082D01*
X66395400Y-44359918D01*
X66430547Y-44183222D01*
X66499491Y-44016776D01*
X66599583Y-43866978D01*
X66726978Y-43739583D01*
X66876776Y-43639491D01*
X67043222Y-43570547D01*
X67219918Y-43535400D01*
X67400082Y-43535400D01*
X67576778Y-43570547D01*
G37*
G36*
X72656778Y-43570547D02*
G01*
X72823224Y-43639491D01*
X72973022Y-43739583D01*
X73100417Y-43866978D01*
X73200509Y-44016776D01*
X73269453Y-44183222D01*
X73304600Y-44359918D01*
X73304600Y-44540082D01*
X73269453Y-44716778D01*
X73200509Y-44883224D01*
X73100417Y-45033022D01*
X72973022Y-45160417D01*
X72823224Y-45260509D01*
X72656778Y-45329453D01*
X72480082Y-45364600D01*
X72299918Y-45364600D01*
X72123222Y-45329453D01*
X71956776Y-45260509D01*
X71806978Y-45160417D01*
X71679583Y-45033022D01*
X71579491Y-44883224D01*
X71510547Y-44716778D01*
X71475400Y-44540082D01*
X71475400Y-44359918D01*
X71510547Y-44183222D01*
X71579491Y-44016776D01*
X71679583Y-43866978D01*
X71806978Y-43739583D01*
X71956776Y-43639491D01*
X72123222Y-43570547D01*
X72299918Y-43535400D01*
X72480082Y-43535400D01*
X72656778Y-43570547D01*
G37*
G36*
X77736778Y-43570547D02*
G01*
X77903224Y-43639491D01*
X78053022Y-43739583D01*
X78180417Y-43866978D01*
X78280509Y-44016776D01*
X78349453Y-44183222D01*
X78384600Y-44359918D01*
X78384600Y-44540082D01*
X78349453Y-44716778D01*
X78280509Y-44883224D01*
X78180417Y-45033022D01*
X78053022Y-45160417D01*
X77903224Y-45260509D01*
X77736778Y-45329453D01*
X77560082Y-45364600D01*
X77379918Y-45364600D01*
X77203222Y-45329453D01*
X77036776Y-45260509D01*
X76886978Y-45160417D01*
X76759583Y-45033022D01*
X76659491Y-44883224D01*
X76590547Y-44716778D01*
X76555400Y-44540082D01*
X76555400Y-44359918D01*
X76590547Y-44183222D01*
X76659491Y-44016776D01*
X76759583Y-43866978D01*
X76886978Y-43739583D01*
X77036776Y-43639491D01*
X77203222Y-43570547D01*
X77379918Y-43535400D01*
X77560082Y-43535400D01*
X77736778Y-43570547D01*
G37*
G36*
X75196778Y-43570547D02*
G01*
X75363224Y-43639491D01*
X75513022Y-43739583D01*
X75640417Y-43866978D01*
X75740509Y-44016776D01*
X75809453Y-44183222D01*
X75844600Y-44359918D01*
X75844600Y-44540082D01*
X75809453Y-44716778D01*
X75740509Y-44883224D01*
X75640417Y-45033022D01*
X75513022Y-45160417D01*
X75363224Y-45260509D01*
X75196778Y-45329453D01*
X75020082Y-45364600D01*
X74839918Y-45364600D01*
X74663222Y-45329453D01*
X74496776Y-45260509D01*
X74346978Y-45160417D01*
X74219583Y-45033022D01*
X74119491Y-44883224D01*
X74050547Y-44716778D01*
X74015400Y-44540082D01*
X74015400Y-44359918D01*
X74050547Y-44183222D01*
X74119491Y-44016776D01*
X74219583Y-43866978D01*
X74346978Y-43739583D01*
X74496776Y-43639491D01*
X74663222Y-43570547D01*
X74839918Y-43535400D01*
X75020082Y-43535400D01*
X75196778Y-43570547D01*
G37*
G36*
X80276778Y-43570547D02*
G01*
X80443224Y-43639491D01*
X80593022Y-43739583D01*
X80720417Y-43866978D01*
X80820509Y-44016776D01*
X80889453Y-44183222D01*
X80924600Y-44359918D01*
X80924600Y-44540082D01*
X80889453Y-44716778D01*
X80820509Y-44883224D01*
X80720417Y-45033022D01*
X80593022Y-45160417D01*
X80443224Y-45260509D01*
X80276778Y-45329453D01*
X80100082Y-45364600D01*
X79919918Y-45364600D01*
X79743222Y-45329453D01*
X79576776Y-45260509D01*
X79426978Y-45160417D01*
X79299583Y-45033022D01*
X79199491Y-44883224D01*
X79130547Y-44716778D01*
X79095400Y-44540082D01*
X79095400Y-44359918D01*
X79130547Y-44183222D01*
X79199491Y-44016776D01*
X79299583Y-43866978D01*
X79426978Y-43739583D01*
X79576776Y-43639491D01*
X79743222Y-43570547D01*
X79919918Y-43535400D01*
X80100082Y-43535400D01*
X80276778Y-43570547D01*
G37*
G36*
X55845059Y-43727860D02*
G01*
X55981732Y-43784472D01*
X56104735Y-43866660D01*
X56209340Y-43971265D01*
X56291528Y-44094268D01*
X56348140Y-44230941D01*
X56377000Y-44376033D01*
X56377000Y-44523967D01*
X56348140Y-44669059D01*
X56291528Y-44805732D01*
X56209340Y-44928735D01*
X56104735Y-45033340D01*
X55981732Y-45115528D01*
X55981731Y-45115529D01*
X55981730Y-45115529D01*
X55845059Y-45172140D01*
X55699968Y-45201000D01*
X55552032Y-45201000D01*
X55406941Y-45172140D01*
X55270270Y-45115529D01*
X55270269Y-45115529D01*
X55270268Y-45115528D01*
X55147265Y-45033340D01*
X55042660Y-44928735D01*
X54960472Y-44805732D01*
X54903860Y-44669059D01*
X54875000Y-44523967D01*
X54875000Y-44376033D01*
X54903860Y-44230941D01*
X54960472Y-44094268D01*
X55042660Y-43971265D01*
X55147265Y-43866660D01*
X55270268Y-43784472D01*
X55406941Y-43727860D01*
X55552032Y-43699000D01*
X55699968Y-43699000D01*
X55845059Y-43727860D01*
G37*
G36*
X88251512Y-42537927D02*
G01*
X88400812Y-42567624D01*
X88564784Y-42635544D01*
X88712354Y-42734147D01*
X88837853Y-42859646D01*
X88936456Y-43007216D01*
X89004376Y-43171188D01*
X89039000Y-43345259D01*
X89039000Y-43522741D01*
X89004376Y-43696812D01*
X88936456Y-43860784D01*
X88837853Y-44008354D01*
X88712354Y-44133853D01*
X88564784Y-44232456D01*
X88400812Y-44300376D01*
X88251512Y-44330073D01*
X88226742Y-44335000D01*
X88049258Y-44335000D01*
X88024488Y-44330073D01*
X87875188Y-44300376D01*
X87711216Y-44232456D01*
X87563646Y-44133853D01*
X87438147Y-44008354D01*
X87339544Y-43860784D01*
X87271624Y-43696812D01*
X87237000Y-43522741D01*
X87237000Y-43345259D01*
X87271624Y-43171188D01*
X87339544Y-43007216D01*
X87438147Y-42859646D01*
X87563646Y-42734147D01*
X87711216Y-42635544D01*
X87875188Y-42567624D01*
X88024488Y-42537927D01*
X88049258Y-42533000D01*
X88226742Y-42533000D01*
X88251512Y-42537927D01*
G37*
G36*
X53511143Y-42392087D02*
G01*
X53667838Y-42456992D01*
X53808853Y-42551215D01*
X53928785Y-42671147D01*
X54023008Y-42812162D01*
X54087913Y-42968857D01*
X54121000Y-43135198D01*
X54121000Y-43304802D01*
X54087913Y-43471143D01*
X54023008Y-43627838D01*
X53928785Y-43768853D01*
X53808853Y-43888785D01*
X53667838Y-43983008D01*
X53511143Y-44047913D01*
X53344802Y-44081000D01*
X53175198Y-44081000D01*
X53008857Y-44047913D01*
X52852162Y-43983008D01*
X52711147Y-43888785D01*
X52591215Y-43768853D01*
X52496992Y-43627838D01*
X52432087Y-43471143D01*
X52399000Y-43304802D01*
X52399000Y-43135198D01*
X52432087Y-42968857D01*
X52496992Y-42812162D01*
X52591215Y-42671147D01*
X52711147Y-42551215D01*
X52852162Y-42456992D01*
X53008857Y-42392087D01*
X53175198Y-42359000D01*
X53344802Y-42359000D01*
X53511143Y-42392087D01*
G37*
G36*
X67576778Y-41030547D02*
G01*
X67743224Y-41099491D01*
X67893022Y-41199583D01*
X68020417Y-41326978D01*
X68120509Y-41476776D01*
X68189453Y-41643222D01*
X68224600Y-41819918D01*
X68224600Y-42000082D01*
X68189453Y-42176778D01*
X68120509Y-42343224D01*
X68020417Y-42493022D01*
X67893022Y-42620417D01*
X67743224Y-42720509D01*
X67576778Y-42789453D01*
X67400082Y-42824600D01*
X67219918Y-42824600D01*
X67043222Y-42789453D01*
X66876776Y-42720509D01*
X66726978Y-42620417D01*
X66599583Y-42493022D01*
X66499491Y-42343224D01*
X66430547Y-42176778D01*
X66395400Y-42000082D01*
X66395400Y-41819918D01*
X66430547Y-41643222D01*
X66499491Y-41476776D01*
X66599583Y-41326978D01*
X66726978Y-41199583D01*
X66876776Y-41099491D01*
X67043222Y-41030547D01*
X67219918Y-40995400D01*
X67400082Y-40995400D01*
X67576778Y-41030547D01*
G37*
G36*
X80276778Y-41030547D02*
G01*
X80443224Y-41099491D01*
X80593022Y-41199583D01*
X80720417Y-41326978D01*
X80820509Y-41476776D01*
X80889453Y-41643222D01*
X80924600Y-41819918D01*
X80924600Y-42000082D01*
X80889453Y-42176778D01*
X80820509Y-42343224D01*
X80720417Y-42493022D01*
X80593022Y-42620417D01*
X80443224Y-42720509D01*
X80276778Y-42789453D01*
X80100082Y-42824600D01*
X79919918Y-42824600D01*
X79743222Y-42789453D01*
X79576776Y-42720509D01*
X79426978Y-42620417D01*
X79299583Y-42493022D01*
X79199491Y-42343224D01*
X79130547Y-42176778D01*
X79095400Y-42000082D01*
X79095400Y-41819918D01*
X79130547Y-41643222D01*
X79199491Y-41476776D01*
X79299583Y-41326978D01*
X79426978Y-41199583D01*
X79576776Y-41099491D01*
X79743222Y-41030547D01*
X79919918Y-40995400D01*
X80100082Y-40995400D01*
X80276778Y-41030547D01*
G37*
G36*
X65036778Y-41030547D02*
G01*
X65203224Y-41099491D01*
X65353022Y-41199583D01*
X65480417Y-41326978D01*
X65580509Y-41476776D01*
X65649453Y-41643222D01*
X65684600Y-41819918D01*
X65684600Y-42000082D01*
X65649453Y-42176778D01*
X65580509Y-42343224D01*
X65480417Y-42493022D01*
X65353022Y-42620417D01*
X65203224Y-42720509D01*
X65036778Y-42789453D01*
X64860082Y-42824600D01*
X64679918Y-42824600D01*
X64503222Y-42789453D01*
X64336776Y-42720509D01*
X64186978Y-42620417D01*
X64059583Y-42493022D01*
X63959491Y-42343224D01*
X63890547Y-42176778D01*
X63855400Y-42000082D01*
X63855400Y-41819918D01*
X63890547Y-41643222D01*
X63959491Y-41476776D01*
X64059583Y-41326978D01*
X64186978Y-41199583D01*
X64336776Y-41099491D01*
X64503222Y-41030547D01*
X64679918Y-40995400D01*
X64860082Y-40995400D01*
X65036778Y-41030547D01*
G37*
G36*
X62496778Y-41030547D02*
G01*
X62663224Y-41099491D01*
X62813022Y-41199583D01*
X62940417Y-41326978D01*
X63040509Y-41476776D01*
X63109453Y-41643222D01*
X63144600Y-41819918D01*
X63144600Y-42000082D01*
X63109453Y-42176778D01*
X63040509Y-42343224D01*
X62940417Y-42493022D01*
X62813022Y-42620417D01*
X62663224Y-42720509D01*
X62496778Y-42789453D01*
X62320082Y-42824600D01*
X62139918Y-42824600D01*
X61963222Y-42789453D01*
X61796776Y-42720509D01*
X61646978Y-42620417D01*
X61519583Y-42493022D01*
X61419491Y-42343224D01*
X61350547Y-42176778D01*
X61315400Y-42000082D01*
X61315400Y-41819918D01*
X61350547Y-41643222D01*
X61419491Y-41476776D01*
X61519583Y-41326978D01*
X61646978Y-41199583D01*
X61796776Y-41099491D01*
X61963222Y-41030547D01*
X62139918Y-40995400D01*
X62320082Y-40995400D01*
X62496778Y-41030547D01*
G37*
G36*
X70116778Y-41030547D02*
G01*
X70283224Y-41099491D01*
X70433022Y-41199583D01*
X70560417Y-41326978D01*
X70660509Y-41476776D01*
X70729453Y-41643222D01*
X70764600Y-41819918D01*
X70764600Y-42000082D01*
X70729453Y-42176778D01*
X70660509Y-42343224D01*
X70560417Y-42493022D01*
X70433022Y-42620417D01*
X70283224Y-42720509D01*
X70116778Y-42789453D01*
X69940082Y-42824600D01*
X69759918Y-42824600D01*
X69583222Y-42789453D01*
X69416776Y-42720509D01*
X69266978Y-42620417D01*
X69139583Y-42493022D01*
X69039491Y-42343224D01*
X68970547Y-42176778D01*
X68935400Y-42000082D01*
X68935400Y-41819918D01*
X68970547Y-41643222D01*
X69039491Y-41476776D01*
X69139583Y-41326978D01*
X69266978Y-41199583D01*
X69416776Y-41099491D01*
X69583222Y-41030547D01*
X69759918Y-40995400D01*
X69940082Y-40995400D01*
X70116778Y-41030547D01*
G37*
G36*
X72656778Y-41030547D02*
G01*
X72823224Y-41099491D01*
X72973022Y-41199583D01*
X73100417Y-41326978D01*
X73200509Y-41476776D01*
X73269453Y-41643222D01*
X73304600Y-41819918D01*
X73304600Y-42000082D01*
X73269453Y-42176778D01*
X73200509Y-42343224D01*
X73100417Y-42493022D01*
X72973022Y-42620417D01*
X72823224Y-42720509D01*
X72656778Y-42789453D01*
X72480082Y-42824600D01*
X72299918Y-42824600D01*
X72123222Y-42789453D01*
X71956776Y-42720509D01*
X71806978Y-42620417D01*
X71679583Y-42493022D01*
X71579491Y-42343224D01*
X71510547Y-42176778D01*
X71475400Y-42000082D01*
X71475400Y-41819918D01*
X71510547Y-41643222D01*
X71579491Y-41476776D01*
X71679583Y-41326978D01*
X71806978Y-41199583D01*
X71956776Y-41099491D01*
X72123222Y-41030547D01*
X72299918Y-40995400D01*
X72480082Y-40995400D01*
X72656778Y-41030547D01*
G37*
G36*
X75196778Y-41030547D02*
G01*
X75363224Y-41099491D01*
X75513022Y-41199583D01*
X75640417Y-41326978D01*
X75740509Y-41476776D01*
X75809453Y-41643222D01*
X75844600Y-41819918D01*
X75844600Y-42000082D01*
X75809453Y-42176778D01*
X75740509Y-42343224D01*
X75640417Y-42493022D01*
X75513022Y-42620417D01*
X75363224Y-42720509D01*
X75196778Y-42789453D01*
X75020082Y-42824600D01*
X74839918Y-42824600D01*
X74663222Y-42789453D01*
X74496776Y-42720509D01*
X74346978Y-42620417D01*
X74219583Y-42493022D01*
X74119491Y-42343224D01*
X74050547Y-42176778D01*
X74015400Y-42000082D01*
X74015400Y-41819918D01*
X74050547Y-41643222D01*
X74119491Y-41476776D01*
X74219583Y-41326978D01*
X74346978Y-41199583D01*
X74496776Y-41099491D01*
X74663222Y-41030547D01*
X74839918Y-40995400D01*
X75020082Y-40995400D01*
X75196778Y-41030547D01*
G37*
G36*
X77736778Y-41030547D02*
G01*
X77903224Y-41099491D01*
X78053022Y-41199583D01*
X78180417Y-41326978D01*
X78280509Y-41476776D01*
X78349453Y-41643222D01*
X78384600Y-41819918D01*
X78384600Y-42000082D01*
X78349453Y-42176778D01*
X78280509Y-42343224D01*
X78180417Y-42493022D01*
X78053022Y-42620417D01*
X77903224Y-42720509D01*
X77736778Y-42789453D01*
X77560082Y-42824600D01*
X77379918Y-42824600D01*
X77203222Y-42789453D01*
X77036776Y-42720509D01*
X76886978Y-42620417D01*
X76759583Y-42493022D01*
X76659491Y-42343224D01*
X76590547Y-42176778D01*
X76555400Y-42000082D01*
X76555400Y-41819918D01*
X76590547Y-41643222D01*
X76659491Y-41476776D01*
X76759583Y-41326978D01*
X76886978Y-41199583D01*
X77036776Y-41099491D01*
X77203222Y-41030547D01*
X77379918Y-40995400D01*
X77560082Y-40995400D01*
X77736778Y-41030547D01*
G37*
G36*
X88251512Y-39997927D02*
G01*
X88400812Y-40027624D01*
X88564784Y-40095544D01*
X88712354Y-40194147D01*
X88837853Y-40319646D01*
X88936456Y-40467216D01*
X89004376Y-40631188D01*
X89039000Y-40805259D01*
X89039000Y-40982741D01*
X89004376Y-41156812D01*
X88936456Y-41320784D01*
X88837853Y-41468354D01*
X88712354Y-41593853D01*
X88564784Y-41692456D01*
X88400812Y-41760376D01*
X88251512Y-41790073D01*
X88226742Y-41795000D01*
X88049258Y-41795000D01*
X88024488Y-41790073D01*
X87875188Y-41760376D01*
X87711216Y-41692456D01*
X87563646Y-41593853D01*
X87438147Y-41468354D01*
X87339544Y-41320784D01*
X87271624Y-41156812D01*
X87237000Y-40982741D01*
X87237000Y-40805259D01*
X87271624Y-40631188D01*
X87339544Y-40467216D01*
X87438147Y-40319646D01*
X87563646Y-40194147D01*
X87711216Y-40095544D01*
X87875188Y-40027624D01*
X88024488Y-39997927D01*
X88049258Y-39993000D01*
X88226742Y-39993000D01*
X88251512Y-39997927D01*
G37*
G36*
X48511143Y-39892087D02*
G01*
X48667838Y-39956992D01*
X48808853Y-40051215D01*
X48928785Y-40171147D01*
X49023008Y-40312162D01*
X49087913Y-40468857D01*
X49121000Y-40635198D01*
X49121000Y-40804802D01*
X49087913Y-40971143D01*
X49023008Y-41127838D01*
X48928785Y-41268853D01*
X48808853Y-41388785D01*
X48667838Y-41483008D01*
X48511143Y-41547913D01*
X48344802Y-41581000D01*
X48175198Y-41581000D01*
X48008857Y-41547913D01*
X47852162Y-41483008D01*
X47711147Y-41388785D01*
X47591215Y-41268853D01*
X47496992Y-41127838D01*
X47432087Y-40971143D01*
X47399000Y-40804802D01*
X47399000Y-40635198D01*
X47432087Y-40468857D01*
X47496992Y-40312162D01*
X47591215Y-40171147D01*
X47711147Y-40051215D01*
X47852162Y-39956992D01*
X48008857Y-39892087D01*
X48175198Y-39859000D01*
X48344802Y-39859000D01*
X48511143Y-39892087D01*
G37*
G36*
X55845059Y-39917860D02*
G01*
X55981732Y-39974472D01*
X56104735Y-40056660D01*
X56209340Y-40161265D01*
X56291528Y-40284268D01*
X56291529Y-40284270D01*
X56348140Y-40420941D01*
X56377000Y-40566032D01*
X56377000Y-40713968D01*
X56358841Y-40805259D01*
X56348140Y-40859059D01*
X56291528Y-40995732D01*
X56209340Y-41118735D01*
X56104735Y-41223340D01*
X55981732Y-41305528D01*
X55981731Y-41305529D01*
X55981730Y-41305529D01*
X55845059Y-41362140D01*
X55699968Y-41391000D01*
X55552032Y-41391000D01*
X55406941Y-41362140D01*
X55270270Y-41305529D01*
X55270269Y-41305529D01*
X55270268Y-41305528D01*
X55147265Y-41223340D01*
X55042660Y-41118735D01*
X54960472Y-40995732D01*
X54903860Y-40859059D01*
X54893159Y-40805259D01*
X54875000Y-40713968D01*
X54875000Y-40566032D01*
X54903860Y-40420941D01*
X54960471Y-40284270D01*
X54960472Y-40284268D01*
X55042660Y-40161265D01*
X55147265Y-40056660D01*
X55270268Y-39974472D01*
X55406941Y-39917860D01*
X55552032Y-39889000D01*
X55699968Y-39889000D01*
X55845059Y-39917860D01*
G37*
G36*
X88251512Y-37457927D02*
G01*
X88400812Y-37487624D01*
X88564784Y-37555544D01*
X88712354Y-37654147D01*
X88837853Y-37779646D01*
X88936456Y-37927216D01*
X89004376Y-38091188D01*
X89033826Y-38239246D01*
X89037676Y-38258600D01*
X89039000Y-38265259D01*
X89039000Y-38442741D01*
X89004376Y-38616812D01*
X88936456Y-38780784D01*
X88837853Y-38928354D01*
X88712354Y-39053853D01*
X88564784Y-39152456D01*
X88400812Y-39220376D01*
X88251512Y-39250073D01*
X88226742Y-39255000D01*
X88049258Y-39255000D01*
X88024488Y-39250073D01*
X87875188Y-39220376D01*
X87711216Y-39152456D01*
X87563646Y-39053853D01*
X87438147Y-38928354D01*
X87339544Y-38780784D01*
X87271624Y-38616812D01*
X87237000Y-38442741D01*
X87237000Y-38265259D01*
X87238325Y-38258600D01*
X87242174Y-38239246D01*
X87271624Y-38091188D01*
X87339544Y-37927216D01*
X87438147Y-37779646D01*
X87563646Y-37654147D01*
X87711216Y-37555544D01*
X87875188Y-37487624D01*
X88024488Y-37457927D01*
X88049258Y-37453000D01*
X88226742Y-37453000D01*
X88251512Y-37457927D01*
G37*
G36*
X66758175Y-36417400D02*
G01*
X66804995Y-36431603D01*
X66848146Y-36454668D01*
X66885971Y-36485709D01*
X66917012Y-36523534D01*
X66940077Y-36566685D01*
X66954280Y-36613505D01*
X66959680Y-36668338D01*
X66959680Y-38007662D01*
X66954280Y-38062495D01*
X66940077Y-38109315D01*
X66917012Y-38152466D01*
X66885971Y-38190291D01*
X66848146Y-38221332D01*
X66804995Y-38244397D01*
X66758175Y-38258600D01*
X66703342Y-38264000D01*
X65590018Y-38264000D01*
X65535185Y-38258600D01*
X65488365Y-38244397D01*
X65445214Y-38221332D01*
X65407389Y-38190291D01*
X65376348Y-38152466D01*
X65353283Y-38109315D01*
X65339080Y-38062495D01*
X65333680Y-38007662D01*
X65333680Y-36668338D01*
X65339080Y-36613505D01*
X65353283Y-36566685D01*
X65376348Y-36523534D01*
X65407389Y-36485709D01*
X65445214Y-36454668D01*
X65488365Y-36431603D01*
X65535185Y-36417400D01*
X65590018Y-36412000D01*
X66703342Y-36412000D01*
X66758175Y-36417400D01*
G37*
G36*
X56090175Y-36417400D02*
G01*
X56136995Y-36431603D01*
X56180146Y-36454668D01*
X56217971Y-36485709D01*
X56249012Y-36523534D01*
X56272077Y-36566685D01*
X56286280Y-36613505D01*
X56291680Y-36668338D01*
X56291680Y-38007662D01*
X56286280Y-38062495D01*
X56272077Y-38109315D01*
X56249012Y-38152466D01*
X56217971Y-38190291D01*
X56180146Y-38221332D01*
X56136995Y-38244397D01*
X56090175Y-38258600D01*
X56035342Y-38264000D01*
X54922018Y-38264000D01*
X54867185Y-38258600D01*
X54820365Y-38244397D01*
X54777214Y-38221332D01*
X54739389Y-38190291D01*
X54708348Y-38152466D01*
X54685283Y-38109315D01*
X54671080Y-38062495D01*
X54665680Y-38007662D01*
X54665680Y-36668338D01*
X54671080Y-36613505D01*
X54685283Y-36566685D01*
X54708348Y-36523534D01*
X54739389Y-36485709D01*
X54777214Y-36454668D01*
X54820365Y-36431603D01*
X54867185Y-36417400D01*
X54922018Y-36412000D01*
X56035342Y-36412000D01*
X56090175Y-36417400D01*
G37*
G36*
X69563959Y-34837860D02*
G01*
X69649618Y-34873341D01*
X69700632Y-34894472D01*
X69823635Y-34976660D01*
X69928240Y-35081265D01*
X70010428Y-35204268D01*
X70010429Y-35204270D01*
X70067040Y-35340941D01*
X70095900Y-35486032D01*
X70095900Y-35633968D01*
X70067040Y-35779059D01*
X70026375Y-35877234D01*
X70010428Y-35915732D01*
X69928240Y-36038735D01*
X69823635Y-36143340D01*
X69764173Y-36183071D01*
X69745235Y-36198613D01*
X69729690Y-36217555D01*
X69718139Y-36239166D01*
X69711026Y-36262615D01*
X69708624Y-36287001D01*
X69711026Y-36311387D01*
X69718139Y-36334836D01*
X69729690Y-36356447D01*
X69745235Y-36375389D01*
X69764177Y-36390934D01*
X69785788Y-36402485D01*
X69809237Y-36409598D01*
X69833623Y-36412000D01*
X70045982Y-36412000D01*
X70100815Y-36417400D01*
X70147635Y-36431603D01*
X70190786Y-36454668D01*
X70228611Y-36485709D01*
X70259652Y-36523534D01*
X70282717Y-36566685D01*
X70296920Y-36613505D01*
X70302320Y-36668338D01*
X70302320Y-38007662D01*
X70296920Y-38062495D01*
X70282717Y-38109315D01*
X70259652Y-38152466D01*
X70228611Y-38190291D01*
X70190786Y-38221332D01*
X70147635Y-38244397D01*
X70100815Y-38258600D01*
X70045982Y-38264000D01*
X68932658Y-38264000D01*
X68877825Y-38258600D01*
X68831005Y-38244397D01*
X68787854Y-38221332D01*
X68750029Y-38190291D01*
X68718988Y-38152466D01*
X68695923Y-38109315D01*
X68681720Y-38062495D01*
X68676320Y-38007662D01*
X68676320Y-36668338D01*
X68681720Y-36613505D01*
X68695923Y-36566685D01*
X68718988Y-36523534D01*
X68750029Y-36485709D01*
X68787854Y-36454668D01*
X68831005Y-36431603D01*
X68878173Y-36417295D01*
X68901497Y-36412656D01*
X68924136Y-36403279D01*
X68944510Y-36389666D01*
X68961837Y-36372339D01*
X68975451Y-36351965D01*
X68984829Y-36329326D01*
X68989610Y-36305293D01*
X68989610Y-36280789D01*
X68984830Y-36256755D01*
X68975453Y-36234116D01*
X68961840Y-36213742D01*
X68944513Y-36196415D01*
X68934659Y-36189106D01*
X68866165Y-36143340D01*
X68761560Y-36038735D01*
X68679372Y-35915732D01*
X68663426Y-35877234D01*
X68622760Y-35779059D01*
X68593900Y-35633968D01*
X68593900Y-35486032D01*
X68622760Y-35340941D01*
X68679371Y-35204270D01*
X68679372Y-35204268D01*
X68761560Y-35081265D01*
X68866165Y-34976660D01*
X68989168Y-34894472D01*
X69040183Y-34873341D01*
X69125841Y-34837860D01*
X69270932Y-34809000D01*
X69418868Y-34809000D01*
X69563959Y-34837860D01*
G37*
G36*
X59432815Y-36417400D02*
G01*
X59479635Y-36431603D01*
X59522786Y-36454668D01*
X59560611Y-36485709D01*
X59591652Y-36523534D01*
X59614717Y-36566685D01*
X59628920Y-36613505D01*
X59634320Y-36668338D01*
X59634320Y-38007662D01*
X59628920Y-38062495D01*
X59614717Y-38109315D01*
X59591652Y-38152466D01*
X59560611Y-38190291D01*
X59522786Y-38221332D01*
X59479635Y-38244397D01*
X59432815Y-38258600D01*
X59377982Y-38264000D01*
X58264658Y-38264000D01*
X58209825Y-38258600D01*
X58163005Y-38244397D01*
X58119854Y-38221332D01*
X58082029Y-38190291D01*
X58050988Y-38152466D01*
X58027923Y-38109315D01*
X58013720Y-38062495D01*
X58008320Y-38007662D01*
X58008320Y-36668338D01*
X58013720Y-36613505D01*
X58027923Y-36566685D01*
X58050988Y-36523534D01*
X58082029Y-36485709D01*
X58119854Y-36454668D01*
X58163005Y-36431603D01*
X58209825Y-36417400D01*
X58264658Y-36412000D01*
X59377982Y-36412000D01*
X59432815Y-36417400D01*
G37*
G36*
X63866915Y-35529334D02*
G01*
X63975491Y-35562271D01*
X63975494Y-35562272D01*
X64011600Y-35581571D01*
X64075556Y-35615756D01*
X64163264Y-35687736D01*
X64235244Y-35775443D01*
X64266260Y-35833471D01*
X64288728Y-35875505D01*
X64288729Y-35875508D01*
X64321666Y-35984084D01*
X64330000Y-36068702D01*
X64330000Y-36575297D01*
X64321666Y-36659916D01*
X64289252Y-36766767D01*
X64288728Y-36768495D01*
X64278761Y-36787141D01*
X64235244Y-36868557D01*
X64163264Y-36956264D01*
X64075557Y-37028244D01*
X64011601Y-37062429D01*
X63975495Y-37081728D01*
X63975492Y-37081729D01*
X63866916Y-37114666D01*
X63754000Y-37125787D01*
X63641085Y-37114666D01*
X63532509Y-37081729D01*
X63532506Y-37081728D01*
X63496400Y-37062429D01*
X63432444Y-37028244D01*
X63344737Y-36956264D01*
X63272757Y-36868557D01*
X63229239Y-36787141D01*
X63215625Y-36766766D01*
X63198298Y-36749439D01*
X63177924Y-36735826D01*
X63155285Y-36726448D01*
X63131252Y-36721668D01*
X63106748Y-36721668D01*
X63082715Y-36726448D01*
X63060076Y-36735826D01*
X63039701Y-36749440D01*
X63022374Y-36766767D01*
X63008761Y-36787141D01*
X62965244Y-36868557D01*
X62893264Y-36956264D01*
X62805557Y-37028244D01*
X62741601Y-37062429D01*
X62705495Y-37081728D01*
X62705492Y-37081729D01*
X62596916Y-37114666D01*
X62484000Y-37125787D01*
X62371085Y-37114666D01*
X62262509Y-37081729D01*
X62262506Y-37081728D01*
X62226400Y-37062429D01*
X62162444Y-37028244D01*
X62074737Y-36956264D01*
X62011622Y-36879359D01*
X61994297Y-36862034D01*
X61973923Y-36848420D01*
X61951284Y-36839043D01*
X61927250Y-36834263D01*
X61902746Y-36834263D01*
X61878713Y-36839044D01*
X61856074Y-36848421D01*
X61835700Y-36862035D01*
X61818373Y-36879362D01*
X61804759Y-36899736D01*
X61795382Y-36922375D01*
X61790000Y-36958660D01*
X61790000Y-37123000D01*
X60638000Y-37123000D01*
X60638000Y-35521000D01*
X61790000Y-35521000D01*
X61790000Y-35685341D01*
X61792402Y-35709727D01*
X61799515Y-35733176D01*
X61811066Y-35754787D01*
X61826611Y-35773729D01*
X61845553Y-35789274D01*
X61867164Y-35800825D01*
X61890613Y-35807938D01*
X61914999Y-35810340D01*
X61939385Y-35807938D01*
X61962834Y-35800825D01*
X61984445Y-35789274D01*
X62003387Y-35773729D01*
X62011608Y-35764657D01*
X62074736Y-35687736D01*
X62162443Y-35615756D01*
X62226399Y-35581571D01*
X62262505Y-35562272D01*
X62262508Y-35562271D01*
X62371084Y-35529334D01*
X62484000Y-35518213D01*
X62596915Y-35529334D01*
X62705491Y-35562271D01*
X62705494Y-35562272D01*
X62741600Y-35581571D01*
X62805556Y-35615756D01*
X62893264Y-35687736D01*
X62965244Y-35775443D01*
X62996260Y-35833471D01*
X63008761Y-35856859D01*
X63022375Y-35877234D01*
X63039702Y-35894561D01*
X63060076Y-35908174D01*
X63082715Y-35917552D01*
X63106748Y-35922332D01*
X63131252Y-35922332D01*
X63155285Y-35917552D01*
X63177924Y-35908174D01*
X63198299Y-35894560D01*
X63215626Y-35877233D01*
X63229239Y-35856860D01*
X63272756Y-35775444D01*
X63344736Y-35687736D01*
X63432443Y-35615756D01*
X63496399Y-35581571D01*
X63532505Y-35562272D01*
X63532508Y-35562271D01*
X63641084Y-35529334D01*
X63754000Y-35518213D01*
X63866915Y-35529334D01*
G37*
G36*
X89039000Y-36715000D02*
G01*
X87237000Y-36715000D01*
X87237000Y-34913000D01*
X89039000Y-34913000D01*
X89039000Y-36715000D01*
G37*
G36*
X49135512Y-34917927D02*
G01*
X49284812Y-34947624D01*
X49448784Y-35015544D01*
X49596354Y-35114147D01*
X49721853Y-35239646D01*
X49820456Y-35387216D01*
X49888376Y-35551188D01*
X49923000Y-35725259D01*
X49923000Y-35902741D01*
X49888376Y-36076812D01*
X49820456Y-36240784D01*
X49721853Y-36388354D01*
X49596354Y-36513853D01*
X49448784Y-36612456D01*
X49284812Y-36680376D01*
X49135512Y-36710073D01*
X49110742Y-36715000D01*
X48933258Y-36715000D01*
X48908488Y-36710073D01*
X48759188Y-36680376D01*
X48595216Y-36612456D01*
X48447646Y-36513853D01*
X48322147Y-36388354D01*
X48223544Y-36240784D01*
X48155624Y-36076812D01*
X48121000Y-35902741D01*
X48121000Y-35725259D01*
X48155624Y-35551188D01*
X48223544Y-35387216D01*
X48322147Y-35239646D01*
X48447646Y-35114147D01*
X48595216Y-35015544D01*
X48759188Y-34947624D01*
X48908488Y-34917927D01*
X48933258Y-34913000D01*
X49110742Y-34913000D01*
X49135512Y-34917927D01*
G37*
G36*
X78929915Y-31911063D02*
G01*
X78959059Y-31916860D01*
X79095732Y-31973472D01*
X79218735Y-32055660D01*
X79323340Y-32160265D01*
X79375634Y-32238529D01*
X79405529Y-32283270D01*
X79462140Y-32419941D01*
X79491000Y-32565032D01*
X79491000Y-32712968D01*
X79468033Y-32828431D01*
X79462140Y-32858059D01*
X79405528Y-32994732D01*
X79323340Y-33117735D01*
X79218735Y-33222340D01*
X79095732Y-33304528D01*
X78988325Y-33349018D01*
X78966718Y-33360567D01*
X78947776Y-33376112D01*
X78932230Y-33395054D01*
X78920679Y-33416665D01*
X78913566Y-33440114D01*
X78911164Y-33464500D01*
X78913566Y-33488886D01*
X78920679Y-33512335D01*
X78932230Y-33533945D01*
X78947775Y-33552887D01*
X78966717Y-33568433D01*
X78988325Y-33579982D01*
X79095732Y-33624472D01*
X79218735Y-33706660D01*
X79323340Y-33811265D01*
X79405528Y-33934268D01*
X79405529Y-33934270D01*
X79462140Y-34070941D01*
X79478016Y-34150754D01*
X79491000Y-34216033D01*
X79491000Y-34363967D01*
X79462140Y-34509059D01*
X79405528Y-34645732D01*
X79323340Y-34768735D01*
X79218735Y-34873340D01*
X79095732Y-34955528D01*
X79071609Y-34965520D01*
X79049887Y-34974518D01*
X79028276Y-34986070D01*
X79009335Y-35001615D01*
X78993790Y-35020557D01*
X78982239Y-35042168D01*
X78975126Y-35065617D01*
X78972724Y-35090003D01*
X78975126Y-35114389D01*
X78982239Y-35137838D01*
X78993791Y-35159449D01*
X79009336Y-35178390D01*
X79028278Y-35193935D01*
X79049889Y-35205486D01*
X79095729Y-35224473D01*
X79095732Y-35224475D01*
X79218735Y-35306663D01*
X79323340Y-35411268D01*
X79402229Y-35529334D01*
X79405529Y-35534273D01*
X79462140Y-35670944D01*
X79491000Y-35816035D01*
X79491000Y-35963971D01*
X79488209Y-35978000D01*
X79462140Y-36109062D01*
X79405528Y-36245735D01*
X79323340Y-36368738D01*
X79218735Y-36473343D01*
X79095732Y-36555531D01*
X79095731Y-36555532D01*
X79095730Y-36555532D01*
X78959059Y-36612143D01*
X78813968Y-36641003D01*
X78666032Y-36641003D01*
X78520941Y-36612143D01*
X78384270Y-36555532D01*
X78384269Y-36555532D01*
X78384268Y-36555531D01*
X78261265Y-36473343D01*
X78156660Y-36368738D01*
X78074472Y-36245735D01*
X78017860Y-36109062D01*
X77991791Y-35978000D01*
X77989000Y-35963971D01*
X77989000Y-35816035D01*
X78017860Y-35670944D01*
X78074471Y-35534273D01*
X78077771Y-35529334D01*
X78156660Y-35411268D01*
X78261265Y-35306663D01*
X78384268Y-35224475D01*
X78384271Y-35224473D01*
X78430111Y-35205486D01*
X78451722Y-35193935D01*
X78470664Y-35178390D01*
X78486209Y-35159448D01*
X78497761Y-35137838D01*
X78504874Y-35114389D01*
X78507276Y-35090003D01*
X78504874Y-35065617D01*
X78497761Y-35042168D01*
X78486210Y-35020557D01*
X78470665Y-35001615D01*
X78451723Y-34986070D01*
X78430113Y-34974518D01*
X78408391Y-34965520D01*
X78384268Y-34955528D01*
X78261265Y-34873340D01*
X78156660Y-34768735D01*
X78074472Y-34645732D01*
X78017860Y-34509059D01*
X77989000Y-34363967D01*
X77989000Y-34216033D01*
X78001985Y-34150754D01*
X78017860Y-34070941D01*
X78074471Y-33934270D01*
X78074472Y-33934268D01*
X78156660Y-33811265D01*
X78261265Y-33706660D01*
X78384268Y-33624472D01*
X78491675Y-33579982D01*
X78513282Y-33568433D01*
X78532224Y-33552888D01*
X78547770Y-33533946D01*
X78559321Y-33512335D01*
X78566434Y-33488886D01*
X78568836Y-33464500D01*
X78566434Y-33440114D01*
X78559321Y-33416665D01*
X78547770Y-33395055D01*
X78532225Y-33376113D01*
X78513283Y-33360567D01*
X78491675Y-33349018D01*
X78384268Y-33304528D01*
X78261265Y-33222340D01*
X78156660Y-33117735D01*
X78074472Y-32994732D01*
X78017860Y-32858059D01*
X78011967Y-32828431D01*
X77989000Y-32712968D01*
X77989000Y-32565032D01*
X78017860Y-32419941D01*
X78074471Y-32283270D01*
X78104366Y-32238529D01*
X78156660Y-32160265D01*
X78261265Y-32055660D01*
X78384268Y-31973472D01*
X78520941Y-31916860D01*
X78550085Y-31911063D01*
X78666032Y-31888000D01*
X78813968Y-31888000D01*
X78929915Y-31911063D01*
G37*
G36*
X53048495Y-34645720D02*
G01*
X53095315Y-34659923D01*
X53138466Y-34682988D01*
X53176291Y-34714029D01*
X53207332Y-34751854D01*
X53230397Y-34795005D01*
X53244600Y-34841825D01*
X53250000Y-34896658D01*
X53250000Y-36009982D01*
X53244600Y-36064815D01*
X53230397Y-36111635D01*
X53207332Y-36154786D01*
X53176291Y-36192611D01*
X53138466Y-36223652D01*
X53095315Y-36246717D01*
X53048495Y-36260920D01*
X52993662Y-36266320D01*
X51654338Y-36266320D01*
X51599505Y-36260920D01*
X51552685Y-36246717D01*
X51509534Y-36223652D01*
X51471709Y-36192611D01*
X51440668Y-36154786D01*
X51417603Y-36111635D01*
X51403400Y-36064815D01*
X51398000Y-36009982D01*
X51398000Y-34896658D01*
X51403400Y-34841825D01*
X51417603Y-34795005D01*
X51440668Y-34751854D01*
X51471709Y-34714029D01*
X51509534Y-34682988D01*
X51552685Y-34659923D01*
X51599505Y-34645720D01*
X51654338Y-34640320D01*
X52993662Y-34640320D01*
X53048495Y-34645720D01*
G37*
G36*
X81998175Y-34131400D02*
G01*
X82044995Y-34145603D01*
X82088146Y-34168668D01*
X82125971Y-34199709D01*
X82157012Y-34237534D01*
X82180077Y-34280685D01*
X82194280Y-34327505D01*
X82199680Y-34382338D01*
X82199680Y-35721662D01*
X82194280Y-35776495D01*
X82180077Y-35823315D01*
X82157012Y-35866466D01*
X82125971Y-35904291D01*
X82088146Y-35935332D01*
X82044995Y-35958397D01*
X81998175Y-35972600D01*
X81943342Y-35978000D01*
X80830018Y-35978000D01*
X80775185Y-35972600D01*
X80728365Y-35958397D01*
X80685214Y-35935332D01*
X80647389Y-35904291D01*
X80616348Y-35866466D01*
X80593283Y-35823315D01*
X80579080Y-35776495D01*
X80573680Y-35721662D01*
X80573680Y-34382338D01*
X80579080Y-34327505D01*
X80593283Y-34280685D01*
X80616348Y-34237534D01*
X80647389Y-34199709D01*
X80685214Y-34168668D01*
X80728365Y-34145603D01*
X80775185Y-34131400D01*
X80830018Y-34126000D01*
X81943342Y-34126000D01*
X81998175Y-34131400D01*
G37*
G36*
X85340815Y-34131400D02*
G01*
X85387635Y-34145603D01*
X85430786Y-34168668D01*
X85468611Y-34199709D01*
X85499652Y-34237534D01*
X85522717Y-34280685D01*
X85536920Y-34327505D01*
X85542320Y-34382338D01*
X85542320Y-35721662D01*
X85536920Y-35776495D01*
X85522717Y-35823315D01*
X85499652Y-35866466D01*
X85468611Y-35904291D01*
X85430786Y-35935332D01*
X85387635Y-35958397D01*
X85340815Y-35972600D01*
X85285982Y-35978000D01*
X84172658Y-35978000D01*
X84117825Y-35972600D01*
X84071005Y-35958397D01*
X84027854Y-35935332D01*
X83990029Y-35904291D01*
X83958988Y-35866466D01*
X83935923Y-35823315D01*
X83921720Y-35776495D01*
X83916320Y-35721662D01*
X83916320Y-34382338D01*
X83921720Y-34327505D01*
X83935923Y-34280685D01*
X83958988Y-34237534D01*
X83990029Y-34199709D01*
X84027854Y-34168668D01*
X84071005Y-34145603D01*
X84117825Y-34131400D01*
X84172658Y-34126000D01*
X85285982Y-34126000D01*
X85340815Y-34131400D01*
G37*
G36*
X59178815Y-33623400D02*
G01*
X59225635Y-33637603D01*
X59268786Y-33660668D01*
X59306611Y-33691709D01*
X59337652Y-33729534D01*
X59360717Y-33772685D01*
X59374920Y-33819505D01*
X59380320Y-33874338D01*
X59380320Y-35213662D01*
X59374920Y-35268495D01*
X59360717Y-35315315D01*
X59337652Y-35358466D01*
X59306611Y-35396291D01*
X59268786Y-35427332D01*
X59225635Y-35450397D01*
X59178815Y-35464600D01*
X59123982Y-35470000D01*
X58010658Y-35470000D01*
X57955825Y-35464600D01*
X57909005Y-35450397D01*
X57865854Y-35427332D01*
X57828029Y-35396291D01*
X57796988Y-35358466D01*
X57773923Y-35315315D01*
X57759720Y-35268495D01*
X57754320Y-35213662D01*
X57754320Y-33874338D01*
X57759720Y-33819505D01*
X57773923Y-33772685D01*
X57796988Y-33729534D01*
X57828029Y-33691709D01*
X57865854Y-33660668D01*
X57909005Y-33637603D01*
X57955825Y-33623400D01*
X58010658Y-33618000D01*
X59123982Y-33618000D01*
X59178815Y-33623400D01*
G37*
G36*
X55836175Y-33623400D02*
G01*
X55882995Y-33637603D01*
X55926146Y-33660668D01*
X55963971Y-33691709D01*
X55995012Y-33729534D01*
X56018077Y-33772685D01*
X56032280Y-33819505D01*
X56037680Y-33874338D01*
X56037680Y-35213662D01*
X56032280Y-35268495D01*
X56018077Y-35315315D01*
X55995012Y-35358466D01*
X55963971Y-35396291D01*
X55926146Y-35427332D01*
X55882995Y-35450397D01*
X55836175Y-35464600D01*
X55781342Y-35470000D01*
X54668018Y-35470000D01*
X54613185Y-35464600D01*
X54566365Y-35450397D01*
X54523214Y-35427332D01*
X54485389Y-35396291D01*
X54454348Y-35358466D01*
X54431283Y-35315315D01*
X54417080Y-35268495D01*
X54411680Y-35213662D01*
X54411680Y-33874338D01*
X54417080Y-33819505D01*
X54431283Y-33772685D01*
X54454348Y-33729534D01*
X54485389Y-33691709D01*
X54523214Y-33660668D01*
X54566365Y-33637603D01*
X54613185Y-33623400D01*
X54668018Y-33618000D01*
X55781342Y-33618000D01*
X55836175Y-33623400D01*
G37*
G36*
X75911059Y-33567860D02*
G01*
X76032108Y-33618000D01*
X76047732Y-33624472D01*
X76170735Y-33706660D01*
X76275340Y-33811265D01*
X76357528Y-33934268D01*
X76357529Y-33934270D01*
X76414140Y-34070941D01*
X76430016Y-34150754D01*
X76443000Y-34216033D01*
X76443000Y-34363967D01*
X76414140Y-34509059D01*
X76357528Y-34645732D01*
X76275340Y-34768735D01*
X76170735Y-34873340D01*
X76047732Y-34955528D01*
X76047731Y-34955529D01*
X76047730Y-34955529D01*
X75911059Y-35012140D01*
X75765968Y-35041000D01*
X75618032Y-35041000D01*
X75472941Y-35012140D01*
X75336270Y-34955529D01*
X75336269Y-34955529D01*
X75336268Y-34955528D01*
X75213265Y-34873340D01*
X75108660Y-34768735D01*
X75026472Y-34645732D01*
X74969860Y-34509059D01*
X74941000Y-34363967D01*
X74941000Y-34216033D01*
X74953985Y-34150754D01*
X74969860Y-34070941D01*
X75026471Y-33934270D01*
X75026472Y-33934268D01*
X75108660Y-33811265D01*
X75213265Y-33706660D01*
X75336268Y-33624472D01*
X75351893Y-33618000D01*
X75472941Y-33567860D01*
X75618032Y-33539000D01*
X75765968Y-33539000D01*
X75911059Y-33567860D01*
G37*
G36*
X49135512Y-32377927D02*
G01*
X49284812Y-32407624D01*
X49448784Y-32475544D01*
X49596354Y-32574147D01*
X49721853Y-32699646D01*
X49820456Y-32847216D01*
X49888376Y-33011188D01*
X49909569Y-33117735D01*
X49923000Y-33185258D01*
X49923000Y-33362742D01*
X49920340Y-33376113D01*
X49888376Y-33536812D01*
X49820456Y-33700784D01*
X49721853Y-33848354D01*
X49596354Y-33973853D01*
X49448784Y-34072456D01*
X49284812Y-34140376D01*
X49142575Y-34168668D01*
X49110742Y-34175000D01*
X48933258Y-34175000D01*
X48901425Y-34168668D01*
X48759188Y-34140376D01*
X48595216Y-34072456D01*
X48447646Y-33973853D01*
X48322147Y-33848354D01*
X48223544Y-33700784D01*
X48155624Y-33536812D01*
X48123660Y-33376113D01*
X48121000Y-33362742D01*
X48121000Y-33185258D01*
X48134431Y-33117735D01*
X48155624Y-33011188D01*
X48223544Y-32847216D01*
X48322147Y-32699646D01*
X48447646Y-32574147D01*
X48595216Y-32475544D01*
X48759188Y-32407624D01*
X48908488Y-32377927D01*
X48933258Y-32373000D01*
X49110742Y-32373000D01*
X49135512Y-32377927D01*
G37*
G36*
X61170175Y-32099400D02*
G01*
X61216995Y-32113603D01*
X61260146Y-32136668D01*
X61297971Y-32167709D01*
X61329012Y-32205534D01*
X61352077Y-32248685D01*
X61366280Y-32295505D01*
X61371680Y-32350338D01*
X61371680Y-33689662D01*
X61366280Y-33744495D01*
X61352077Y-33791315D01*
X61329012Y-33834466D01*
X61297971Y-33872291D01*
X61260146Y-33903332D01*
X61216995Y-33926397D01*
X61170175Y-33940600D01*
X61115342Y-33946000D01*
X60002018Y-33946000D01*
X59947185Y-33940600D01*
X59900365Y-33926397D01*
X59857214Y-33903332D01*
X59819389Y-33872291D01*
X59788348Y-33834466D01*
X59765283Y-33791315D01*
X59751080Y-33744495D01*
X59745680Y-33689662D01*
X59745680Y-32350338D01*
X59751080Y-32295505D01*
X59765283Y-32248685D01*
X59788348Y-32205534D01*
X59819389Y-32167709D01*
X59857214Y-32136668D01*
X59900365Y-32113603D01*
X59947185Y-32099400D01*
X60002018Y-32094000D01*
X61115342Y-32094000D01*
X61170175Y-32099400D01*
G37*
G36*
X64512815Y-32099400D02*
G01*
X64559635Y-32113603D01*
X64602786Y-32136668D01*
X64640611Y-32167709D01*
X64671652Y-32205534D01*
X64694717Y-32248685D01*
X64708920Y-32295505D01*
X64714320Y-32350338D01*
X64714320Y-33689662D01*
X64708920Y-33744495D01*
X64694717Y-33791315D01*
X64671652Y-33834466D01*
X64640611Y-33872291D01*
X64602786Y-33903332D01*
X64559635Y-33926397D01*
X64512815Y-33940600D01*
X64457982Y-33946000D01*
X63344658Y-33946000D01*
X63289825Y-33940600D01*
X63243005Y-33926397D01*
X63199854Y-33903332D01*
X63162029Y-33872291D01*
X63130988Y-33834466D01*
X63107923Y-33791315D01*
X63093720Y-33744495D01*
X63088320Y-33689662D01*
X63088320Y-32350338D01*
X63093720Y-32295505D01*
X63107923Y-32248685D01*
X63130988Y-32205534D01*
X63162029Y-32167709D01*
X63199854Y-32136668D01*
X63243005Y-32113603D01*
X63289825Y-32099400D01*
X63344658Y-32094000D01*
X64457982Y-32094000D01*
X64512815Y-32099400D01*
G37*
G36*
X66439699Y-32283268D02*
G01*
X66513059Y-32297860D01*
X66649732Y-32354472D01*
X66772735Y-32436660D01*
X66877340Y-32541265D01*
X66957961Y-32661923D01*
X66959529Y-32664270D01*
X67016140Y-32800941D01*
X67045000Y-32946032D01*
X67045000Y-33093968D01*
X67026841Y-33185259D01*
X67016140Y-33239059D01*
X66959528Y-33375732D01*
X66877340Y-33498735D01*
X66772735Y-33603340D01*
X66649732Y-33685528D01*
X66649731Y-33685529D01*
X66649730Y-33685529D01*
X66513059Y-33742140D01*
X66367968Y-33771000D01*
X66220032Y-33771000D01*
X66074941Y-33742140D01*
X65938270Y-33685529D01*
X65938269Y-33685529D01*
X65938268Y-33685528D01*
X65815265Y-33603340D01*
X65710660Y-33498735D01*
X65628472Y-33375732D01*
X65571860Y-33239059D01*
X65561159Y-33185259D01*
X65543000Y-33093968D01*
X65543000Y-32946032D01*
X65571860Y-32800941D01*
X65628471Y-32664270D01*
X65630039Y-32661923D01*
X65710660Y-32541265D01*
X65815265Y-32436660D01*
X65938268Y-32354472D01*
X66074941Y-32297860D01*
X66148301Y-32283268D01*
X66220032Y-32269000D01*
X66367968Y-32269000D01*
X66439699Y-32283268D01*
G37*
G36*
X54448059Y-31281860D02*
G01*
X54551576Y-31324738D01*
X54584732Y-31338472D01*
X54707735Y-31420660D01*
X54812340Y-31525265D01*
X54894528Y-31648268D01*
X54894529Y-31648270D01*
X54951140Y-31784941D01*
X54980000Y-31930032D01*
X54980000Y-32077968D01*
X54972912Y-32113603D01*
X54951140Y-32223059D01*
X54894528Y-32359732D01*
X54812340Y-32482735D01*
X54707735Y-32587340D01*
X54584732Y-32669528D01*
X54584731Y-32669529D01*
X54584730Y-32669529D01*
X54448059Y-32726140D01*
X54302968Y-32755000D01*
X54155032Y-32755000D01*
X54009941Y-32726140D01*
X53873270Y-32669529D01*
X53873269Y-32669529D01*
X53873268Y-32669528D01*
X53750265Y-32587340D01*
X53645660Y-32482735D01*
X53563472Y-32359732D01*
X53506860Y-32223059D01*
X53497596Y-32176483D01*
X53490483Y-32153035D01*
X53478932Y-32131425D01*
X53463387Y-32112483D01*
X53444445Y-32096937D01*
X53422834Y-32085386D01*
X53399386Y-32078273D01*
X53374999Y-32075871D01*
X53350613Y-32078273D01*
X53327164Y-32085386D01*
X53305554Y-32096937D01*
X53286612Y-32112482D01*
X53271066Y-32131424D01*
X53259515Y-32153035D01*
X53252402Y-32176483D01*
X53250000Y-32200870D01*
X53250000Y-32667342D01*
X53244600Y-32722175D01*
X53230397Y-32768995D01*
X53207332Y-32812146D01*
X53176291Y-32849971D01*
X53138466Y-32881012D01*
X53095315Y-32904077D01*
X53048495Y-32918280D01*
X52993662Y-32923680D01*
X51654338Y-32923680D01*
X51599505Y-32918280D01*
X51552685Y-32904077D01*
X51509534Y-32881012D01*
X51471709Y-32849971D01*
X51440668Y-32812146D01*
X51417603Y-32768995D01*
X51403400Y-32722175D01*
X51398000Y-32667342D01*
X51398000Y-31554018D01*
X51403400Y-31499185D01*
X51417603Y-31452365D01*
X51440668Y-31409214D01*
X51471709Y-31371389D01*
X51509534Y-31340348D01*
X51552685Y-31317283D01*
X51599505Y-31303080D01*
X51654338Y-31297680D01*
X52993662Y-31297680D01*
X53048495Y-31303080D01*
X53095315Y-31317283D01*
X53138466Y-31340348D01*
X53176291Y-31371389D01*
X53207332Y-31409214D01*
X53230397Y-31452365D01*
X53244600Y-31499185D01*
X53250000Y-31554018D01*
X53250000Y-31807130D01*
X53252402Y-31831516D01*
X53259515Y-31854965D01*
X53271066Y-31876576D01*
X53286611Y-31895518D01*
X53305553Y-31911063D01*
X53327164Y-31922614D01*
X53350613Y-31929727D01*
X53374999Y-31932129D01*
X53399385Y-31929727D01*
X53422834Y-31922614D01*
X53444445Y-31911063D01*
X53463387Y-31895518D01*
X53478932Y-31876576D01*
X53490483Y-31854965D01*
X53497596Y-31831516D01*
X53506860Y-31784941D01*
X53563471Y-31648270D01*
X53563472Y-31648268D01*
X53645660Y-31525265D01*
X53750265Y-31420660D01*
X53873268Y-31338472D01*
X53906425Y-31324738D01*
X54009941Y-31281860D01*
X54155032Y-31253000D01*
X54302968Y-31253000D01*
X54448059Y-31281860D01*
G37*
G36*
X56377847Y-31258983D02*
G01*
X56430359Y-31274912D01*
X56478744Y-31300775D01*
X56521160Y-31335584D01*
X56555969Y-31378000D01*
X56581832Y-31426385D01*
X56597761Y-31478897D01*
X56603744Y-31539641D01*
X56603744Y-32468359D01*
X56597761Y-32529103D01*
X56581832Y-32581615D01*
X56555969Y-32630000D01*
X56521160Y-32672416D01*
X56478744Y-32707225D01*
X56430359Y-32733088D01*
X56377847Y-32749017D01*
X56317103Y-32755000D01*
X55518385Y-32755000D01*
X55457641Y-32749017D01*
X55405129Y-32733088D01*
X55356744Y-32707225D01*
X55314328Y-32672416D01*
X55279519Y-32630000D01*
X55253656Y-32581615D01*
X55237727Y-32529103D01*
X55231744Y-32468359D01*
X55231744Y-31539641D01*
X55237727Y-31478897D01*
X55253656Y-31426385D01*
X55279519Y-31378000D01*
X55314328Y-31335584D01*
X55356744Y-31300775D01*
X55405129Y-31274912D01*
X55457641Y-31258983D01*
X55518385Y-31253000D01*
X56317103Y-31253000D01*
X56377847Y-31258983D01*
G37*
G36*
X58842359Y-31258983D02*
G01*
X58894871Y-31274912D01*
X58943256Y-31300775D01*
X58985672Y-31335584D01*
X59020481Y-31378000D01*
X59046344Y-31426385D01*
X59062273Y-31478897D01*
X59068256Y-31539641D01*
X59068256Y-32468359D01*
X59062273Y-32529103D01*
X59046344Y-32581615D01*
X59020481Y-32630000D01*
X58985672Y-32672416D01*
X58943256Y-32707225D01*
X58894871Y-32733088D01*
X58842359Y-32749017D01*
X58781615Y-32755000D01*
X57982897Y-32755000D01*
X57922153Y-32749017D01*
X57869641Y-32733088D01*
X57821256Y-32707225D01*
X57778840Y-32672416D01*
X57744031Y-32630000D01*
X57718168Y-32581615D01*
X57702239Y-32529103D01*
X57696256Y-32468359D01*
X57696256Y-31539641D01*
X57702239Y-31478897D01*
X57718168Y-31426385D01*
X57744031Y-31378000D01*
X57778840Y-31335584D01*
X57821256Y-31300775D01*
X57869641Y-31274912D01*
X57922153Y-31258983D01*
X57982897Y-31253000D01*
X58781615Y-31253000D01*
X58842359Y-31258983D01*
G37*
G36*
X49135512Y-29837927D02*
G01*
X49284812Y-29867624D01*
X49448784Y-29935544D01*
X49596354Y-30034147D01*
X49721853Y-30159646D01*
X49820456Y-30307216D01*
X49888376Y-30471188D01*
X49923000Y-30645259D01*
X49923000Y-30822741D01*
X49888376Y-30996812D01*
X49820456Y-31160784D01*
X49721853Y-31308354D01*
X49596354Y-31433853D01*
X49448784Y-31532456D01*
X49284812Y-31600376D01*
X49135512Y-31630073D01*
X49110742Y-31635000D01*
X48933258Y-31635000D01*
X48908488Y-31630073D01*
X48759188Y-31600376D01*
X48595216Y-31532456D01*
X48447646Y-31433853D01*
X48322147Y-31308354D01*
X48223544Y-31160784D01*
X48155624Y-30996812D01*
X48121000Y-30822741D01*
X48121000Y-30645259D01*
X48155624Y-30471188D01*
X48223544Y-30307216D01*
X48322147Y-30159646D01*
X48447646Y-30034147D01*
X48595216Y-29935544D01*
X48759188Y-29867624D01*
X48908488Y-29837927D01*
X48933258Y-29833000D01*
X49110742Y-29833000D01*
X49135512Y-29837927D01*
G37*
G36*
X76754928Y-30766764D02*
G01*
X76776009Y-30773160D01*
X76795445Y-30783548D01*
X76812476Y-30797524D01*
X76826452Y-30814555D01*
X76836840Y-30833991D01*
X76843236Y-30855072D01*
X76846000Y-30883140D01*
X76846000Y-31346860D01*
X76843236Y-31374928D01*
X76836840Y-31396009D01*
X76826452Y-31415445D01*
X76812476Y-31432476D01*
X76795445Y-31446452D01*
X76776009Y-31456840D01*
X76754928Y-31463236D01*
X76726860Y-31466000D01*
X74813140Y-31466000D01*
X74785072Y-31463236D01*
X74763991Y-31456840D01*
X74744555Y-31446452D01*
X74727524Y-31432476D01*
X74713548Y-31415445D01*
X74703160Y-31396009D01*
X74696764Y-31374928D01*
X74694000Y-31346860D01*
X74694000Y-30883140D01*
X74696764Y-30855072D01*
X74703160Y-30833991D01*
X74713548Y-30814555D01*
X74727524Y-30797524D01*
X74744555Y-30783548D01*
X74763991Y-30773160D01*
X74785072Y-30766764D01*
X74813140Y-30764000D01*
X76726860Y-30764000D01*
X76754928Y-30766764D01*
G37*
G36*
X67454928Y-30766764D02*
G01*
X67476009Y-30773160D01*
X67495445Y-30783548D01*
X67512476Y-30797524D01*
X67526452Y-30814555D01*
X67536840Y-30833991D01*
X67543236Y-30855072D01*
X67546000Y-30883140D01*
X67546000Y-31346860D01*
X67543236Y-31374928D01*
X67536840Y-31396009D01*
X67526452Y-31415445D01*
X67512476Y-31432476D01*
X67495445Y-31446452D01*
X67476009Y-31456840D01*
X67454928Y-31463236D01*
X67426860Y-31466000D01*
X65513140Y-31466000D01*
X65485072Y-31463236D01*
X65463991Y-31456840D01*
X65444555Y-31446452D01*
X65427524Y-31432476D01*
X65413548Y-31415445D01*
X65403160Y-31396009D01*
X65396764Y-31374928D01*
X65394000Y-31346860D01*
X65394000Y-30883140D01*
X65396764Y-30855072D01*
X65403160Y-30833991D01*
X65413548Y-30814555D01*
X65427524Y-30797524D01*
X65444555Y-30783548D01*
X65463991Y-30773160D01*
X65485072Y-30766764D01*
X65513140Y-30764000D01*
X67426860Y-30764000D01*
X67454928Y-30766764D01*
G37*
G36*
X64512815Y-29559400D02*
G01*
X64559635Y-29573603D01*
X64602786Y-29596668D01*
X64640611Y-29627709D01*
X64671652Y-29665534D01*
X64694717Y-29708685D01*
X64708920Y-29755505D01*
X64714320Y-29810338D01*
X64714320Y-31149662D01*
X64708920Y-31204495D01*
X64694717Y-31251315D01*
X64671652Y-31294466D01*
X64640611Y-31332291D01*
X64602786Y-31363332D01*
X64559635Y-31386397D01*
X64512815Y-31400600D01*
X64457982Y-31406000D01*
X63344658Y-31406000D01*
X63289825Y-31400600D01*
X63243005Y-31386397D01*
X63199854Y-31363332D01*
X63162029Y-31332291D01*
X63130988Y-31294466D01*
X63107923Y-31251315D01*
X63093720Y-31204495D01*
X63088320Y-31149662D01*
X63088320Y-29810338D01*
X63093720Y-29755505D01*
X63107923Y-29708685D01*
X63130988Y-29665534D01*
X63162029Y-29627709D01*
X63199854Y-29596668D01*
X63243005Y-29573603D01*
X63289825Y-29559400D01*
X63344658Y-29554000D01*
X64457982Y-29554000D01*
X64512815Y-29559400D01*
G37*
G36*
X61170175Y-29559400D02*
G01*
X61216995Y-29573603D01*
X61260146Y-29596668D01*
X61297971Y-29627709D01*
X61329012Y-29665534D01*
X61352077Y-29708685D01*
X61366280Y-29755505D01*
X61371680Y-29810338D01*
X61371680Y-31149662D01*
X61366280Y-31204495D01*
X61352077Y-31251315D01*
X61329012Y-31294466D01*
X61297971Y-31332291D01*
X61260146Y-31363332D01*
X61216995Y-31386397D01*
X61170175Y-31400600D01*
X61115342Y-31406000D01*
X60002018Y-31406000D01*
X59947185Y-31400600D01*
X59900365Y-31386397D01*
X59857214Y-31363332D01*
X59819389Y-31332291D01*
X59788348Y-31294466D01*
X59765283Y-31251315D01*
X59751080Y-31204495D01*
X59745680Y-31149662D01*
X59745680Y-29810338D01*
X59751080Y-29755505D01*
X59765283Y-29708685D01*
X59788348Y-29665534D01*
X59819389Y-29627709D01*
X59857214Y-29596668D01*
X59900365Y-29573603D01*
X59947185Y-29559400D01*
X60002018Y-29554000D01*
X61115342Y-29554000D01*
X61170175Y-29559400D01*
G37*
G36*
X53048495Y-29057720D02*
G01*
X53095315Y-29071923D01*
X53138466Y-29094988D01*
X53176291Y-29126029D01*
X53207332Y-29163854D01*
X53230397Y-29207005D01*
X53244600Y-29253825D01*
X53250000Y-29308658D01*
X53250000Y-30421982D01*
X53244600Y-30476815D01*
X53230397Y-30523635D01*
X53207332Y-30566786D01*
X53176291Y-30604611D01*
X53138466Y-30635652D01*
X53095315Y-30658717D01*
X53048495Y-30672920D01*
X52993662Y-30678320D01*
X51654338Y-30678320D01*
X51599505Y-30672920D01*
X51552685Y-30658717D01*
X51509534Y-30635652D01*
X51471709Y-30604611D01*
X51440668Y-30566786D01*
X51417603Y-30523635D01*
X51403400Y-30476815D01*
X51398000Y-30421982D01*
X51398000Y-29308658D01*
X51403400Y-29253825D01*
X51417603Y-29207005D01*
X51440668Y-29163854D01*
X51471709Y-29126029D01*
X51509534Y-29094988D01*
X51552685Y-29071923D01*
X51599505Y-29057720D01*
X51654338Y-29052320D01*
X52993662Y-29052320D01*
X53048495Y-29057720D01*
G37*
G36*
X59178815Y-28543400D02*
G01*
X59225635Y-28557603D01*
X59268786Y-28580668D01*
X59306611Y-28611709D01*
X59337652Y-28649534D01*
X59360717Y-28692685D01*
X59374920Y-28739505D01*
X59380320Y-28794338D01*
X59380320Y-30133662D01*
X59374920Y-30188495D01*
X59360717Y-30235315D01*
X59337652Y-30278466D01*
X59306611Y-30316291D01*
X59268786Y-30347332D01*
X59225635Y-30370397D01*
X59178815Y-30384600D01*
X59123982Y-30390000D01*
X58010658Y-30390000D01*
X57955825Y-30384600D01*
X57909005Y-30370397D01*
X57865854Y-30347332D01*
X57828029Y-30316291D01*
X57796988Y-30278466D01*
X57773923Y-30235315D01*
X57759720Y-30188495D01*
X57754320Y-30133662D01*
X57754320Y-28794338D01*
X57759720Y-28739505D01*
X57773923Y-28692685D01*
X57796988Y-28649534D01*
X57828029Y-28611709D01*
X57865854Y-28580668D01*
X57909005Y-28557603D01*
X57955825Y-28543400D01*
X58010658Y-28538000D01*
X59123982Y-28538000D01*
X59178815Y-28543400D01*
G37*
G36*
X55836175Y-28543400D02*
G01*
X55882995Y-28557603D01*
X55926146Y-28580668D01*
X55963971Y-28611709D01*
X55995012Y-28649534D01*
X56018077Y-28692685D01*
X56032280Y-28739505D01*
X56037680Y-28794338D01*
X56037680Y-30133662D01*
X56032280Y-30188495D01*
X56018077Y-30235315D01*
X55995012Y-30278466D01*
X55963971Y-30316291D01*
X55926146Y-30347332D01*
X55882995Y-30370397D01*
X55836175Y-30384600D01*
X55781342Y-30390000D01*
X54668018Y-30390000D01*
X54613185Y-30384600D01*
X54566365Y-30370397D01*
X54523214Y-30347332D01*
X54485389Y-30316291D01*
X54454348Y-30278466D01*
X54431283Y-30235315D01*
X54417080Y-30188495D01*
X54411680Y-30133662D01*
X54411680Y-28794338D01*
X54417080Y-28739505D01*
X54431283Y-28692685D01*
X54454348Y-28649534D01*
X54485389Y-28611709D01*
X54523214Y-28580668D01*
X54566365Y-28557603D01*
X54613185Y-28543400D01*
X54668018Y-28538000D01*
X55781342Y-28538000D01*
X55836175Y-28543400D01*
G37*
G36*
X67454928Y-29496764D02*
G01*
X67476009Y-29503160D01*
X67495445Y-29513548D01*
X67512476Y-29527524D01*
X67526452Y-29544555D01*
X67536840Y-29563991D01*
X67543236Y-29585072D01*
X67546000Y-29613140D01*
X67546000Y-30076860D01*
X67543236Y-30104928D01*
X67536840Y-30126009D01*
X67526452Y-30145445D01*
X67512476Y-30162476D01*
X67495445Y-30176452D01*
X67476009Y-30186840D01*
X67454928Y-30193236D01*
X67426860Y-30196000D01*
X65513140Y-30196000D01*
X65485072Y-30193236D01*
X65463991Y-30186840D01*
X65444555Y-30176452D01*
X65427524Y-30162476D01*
X65413548Y-30145445D01*
X65403160Y-30126009D01*
X65396764Y-30104928D01*
X65394000Y-30076860D01*
X65394000Y-29613140D01*
X65396764Y-29585072D01*
X65403160Y-29563991D01*
X65413548Y-29544555D01*
X65427524Y-29527524D01*
X65444555Y-29513548D01*
X65463991Y-29503160D01*
X65485072Y-29496764D01*
X65513140Y-29494000D01*
X67426860Y-29494000D01*
X67454928Y-29496764D01*
G37*
G36*
X76754928Y-29496764D02*
G01*
X76776009Y-29503160D01*
X76795445Y-29513548D01*
X76812476Y-29527524D01*
X76826452Y-29544555D01*
X76836840Y-29563991D01*
X76843236Y-29585072D01*
X76846000Y-29613140D01*
X76846000Y-30076860D01*
X76843236Y-30104928D01*
X76836840Y-30126009D01*
X76826452Y-30145445D01*
X76812476Y-30162476D01*
X76795445Y-30176452D01*
X76776009Y-30186840D01*
X76754928Y-30193236D01*
X76726860Y-30196000D01*
X74813140Y-30196000D01*
X74785072Y-30193236D01*
X74763991Y-30186840D01*
X74744555Y-30176452D01*
X74727524Y-30162476D01*
X74713548Y-30145445D01*
X74703160Y-30126009D01*
X74696764Y-30104928D01*
X74694000Y-30076860D01*
X74694000Y-29613140D01*
X74696764Y-29585072D01*
X74703160Y-29563991D01*
X74713548Y-29544555D01*
X74727524Y-29527524D01*
X74744555Y-29513548D01*
X74763991Y-29503160D01*
X74785072Y-29496764D01*
X74813140Y-29494000D01*
X76726860Y-29494000D01*
X76754928Y-29496764D01*
G37*
G36*
X79464495Y-27787720D02*
G01*
X79511315Y-27801923D01*
X79554466Y-27824988D01*
X79592291Y-27856029D01*
X79623332Y-27893854D01*
X79646397Y-27937005D01*
X79660600Y-27983825D01*
X79666000Y-28038658D01*
X79666000Y-29151982D01*
X79660600Y-29206815D01*
X79646397Y-29253635D01*
X79623332Y-29296786D01*
X79592291Y-29334611D01*
X79554466Y-29365652D01*
X79511315Y-29388717D01*
X79464495Y-29402920D01*
X79409662Y-29408320D01*
X78070338Y-29408320D01*
X78015505Y-29402920D01*
X77968685Y-29388717D01*
X77925534Y-29365652D01*
X77887709Y-29334611D01*
X77856668Y-29296786D01*
X77833603Y-29253635D01*
X77819400Y-29206815D01*
X77814000Y-29151982D01*
X77814000Y-28038658D01*
X77819400Y-27983825D01*
X77833603Y-27937005D01*
X77856668Y-27893854D01*
X77887709Y-27856029D01*
X77925534Y-27824988D01*
X77968685Y-27801923D01*
X78015505Y-27787720D01*
X78070338Y-27782320D01*
X79409662Y-27782320D01*
X79464495Y-27787720D01*
G37*
G36*
X61856151Y-27708971D02*
G01*
X61941059Y-27725860D01*
X62077732Y-27782472D01*
X62200735Y-27864660D01*
X62305340Y-27969265D01*
X62387528Y-28092268D01*
X62387529Y-28092270D01*
X62444140Y-28228941D01*
X62473000Y-28374032D01*
X62473000Y-28521968D01*
X62444140Y-28667059D01*
X62409578Y-28750500D01*
X62387528Y-28803732D01*
X62305340Y-28926735D01*
X62200735Y-29031340D01*
X62077732Y-29113528D01*
X62077731Y-29113529D01*
X62077730Y-29113529D01*
X61941059Y-29170140D01*
X61795968Y-29199000D01*
X61648032Y-29199000D01*
X61502941Y-29170140D01*
X61366270Y-29113529D01*
X61366269Y-29113529D01*
X61366268Y-29113528D01*
X61243265Y-29031340D01*
X61138660Y-28926735D01*
X61056472Y-28803732D01*
X61034423Y-28750500D01*
X60999860Y-28667059D01*
X60971000Y-28521968D01*
X60971000Y-28374032D01*
X60999860Y-28228941D01*
X61056471Y-28092270D01*
X61056472Y-28092268D01*
X61138660Y-27969265D01*
X61243265Y-27864660D01*
X61366268Y-27782472D01*
X61502941Y-27725860D01*
X61587849Y-27708971D01*
X61648032Y-27697000D01*
X61795968Y-27697000D01*
X61856151Y-27708971D01*
G37*
G36*
X49923000Y-29095000D02*
G01*
X48121000Y-29095000D01*
X48121000Y-27293000D01*
X49923000Y-27293000D01*
X49923000Y-29095000D01*
G37*
G36*
X67454928Y-28226764D02*
G01*
X67476009Y-28233160D01*
X67495445Y-28243548D01*
X67512476Y-28257524D01*
X67526452Y-28274555D01*
X67536840Y-28293991D01*
X67543236Y-28315072D01*
X67546000Y-28343140D01*
X67546000Y-28806860D01*
X67543236Y-28834928D01*
X67536840Y-28856009D01*
X67526452Y-28875445D01*
X67512476Y-28892476D01*
X67495445Y-28906452D01*
X67476009Y-28916840D01*
X67454928Y-28923236D01*
X67426860Y-28926000D01*
X65513140Y-28926000D01*
X65485072Y-28923236D01*
X65463991Y-28916840D01*
X65444555Y-28906452D01*
X65427524Y-28892476D01*
X65413548Y-28875445D01*
X65403160Y-28856009D01*
X65396764Y-28834928D01*
X65394000Y-28806860D01*
X65394000Y-28343140D01*
X65396764Y-28315072D01*
X65403160Y-28293991D01*
X65413548Y-28274555D01*
X65427524Y-28257524D01*
X65444555Y-28243548D01*
X65463991Y-28233160D01*
X65485072Y-28226764D01*
X65513140Y-28224000D01*
X67426860Y-28224000D01*
X67454928Y-28226764D01*
G37*
G36*
X76754928Y-28226764D02*
G01*
X76776009Y-28233160D01*
X76795445Y-28243548D01*
X76812476Y-28257524D01*
X76826452Y-28274555D01*
X76836840Y-28293991D01*
X76843236Y-28315072D01*
X76846000Y-28343140D01*
X76846000Y-28806860D01*
X76843236Y-28834928D01*
X76836840Y-28856009D01*
X76826452Y-28875445D01*
X76812476Y-28892476D01*
X76795445Y-28906452D01*
X76776009Y-28916840D01*
X76754928Y-28923236D01*
X76726860Y-28926000D01*
X74813140Y-28926000D01*
X74785072Y-28923236D01*
X74763991Y-28916840D01*
X74744555Y-28906452D01*
X74727524Y-28892476D01*
X74713548Y-28875445D01*
X74703160Y-28856009D01*
X74696764Y-28834928D01*
X74694000Y-28806860D01*
X74694000Y-28343140D01*
X74696764Y-28315072D01*
X74703160Y-28293991D01*
X74713548Y-28274555D01*
X74727524Y-28257524D01*
X74744555Y-28243548D01*
X74763991Y-28233160D01*
X74785072Y-28226764D01*
X74813140Y-28224000D01*
X76726860Y-28224000D01*
X76754928Y-28226764D01*
G37*
G36*
X84086778Y-27060547D02*
G01*
X84253224Y-27129491D01*
X84403022Y-27229583D01*
X84530417Y-27356978D01*
X84630509Y-27506776D01*
X84699453Y-27673222D01*
X84734600Y-27849918D01*
X84734600Y-28030082D01*
X84699453Y-28206778D01*
X84630509Y-28373224D01*
X84530417Y-28523022D01*
X84403022Y-28650417D01*
X84253224Y-28750509D01*
X84086778Y-28819453D01*
X83910082Y-28854600D01*
X83729918Y-28854600D01*
X83553222Y-28819453D01*
X83386776Y-28750509D01*
X83236978Y-28650417D01*
X83109583Y-28523022D01*
X83009491Y-28373224D01*
X82940547Y-28206778D01*
X82905400Y-28030082D01*
X82905400Y-27849918D01*
X82940547Y-27673222D01*
X83009491Y-27506776D01*
X83109583Y-27356978D01*
X83236978Y-27229583D01*
X83386776Y-27129491D01*
X83553222Y-27060547D01*
X83729918Y-27025400D01*
X83910082Y-27025400D01*
X84086778Y-27060547D01*
G37*
G36*
X87274600Y-28854600D02*
G01*
X85445400Y-28854600D01*
X85445400Y-27025400D01*
X87274600Y-27025400D01*
X87274600Y-28854600D01*
G37*
G36*
X64466268Y-25309918D02*
G01*
X64481059Y-25312860D01*
X64617732Y-25369472D01*
X64740735Y-25451660D01*
X64845340Y-25556265D01*
X64927528Y-25679268D01*
X64927529Y-25679270D01*
X64984140Y-25815941D01*
X65013000Y-25961032D01*
X65013000Y-26108968D01*
X64984140Y-26254059D01*
X64929185Y-26386733D01*
X64927528Y-26390732D01*
X64845340Y-26513735D01*
X64740735Y-26618340D01*
X64617732Y-26700528D01*
X64591711Y-26711306D01*
X64571887Y-26719518D01*
X64550276Y-26731070D01*
X64531335Y-26746615D01*
X64515790Y-26765557D01*
X64504239Y-26787168D01*
X64497126Y-26810617D01*
X64494724Y-26835003D01*
X64497126Y-26859389D01*
X64504239Y-26882838D01*
X64515791Y-26904449D01*
X64531336Y-26923390D01*
X64550278Y-26938935D01*
X64571889Y-26950486D01*
X64617729Y-26969473D01*
X64617732Y-26969475D01*
X64740735Y-27051663D01*
X64845340Y-27156268D01*
X64927528Y-27279271D01*
X64927529Y-27279273D01*
X64984140Y-27415944D01*
X65013000Y-27561035D01*
X65013000Y-27708971D01*
X64984140Y-27854062D01*
X64936421Y-27969267D01*
X64927528Y-27990735D01*
X64845340Y-28113738D01*
X64740735Y-28218343D01*
X64617732Y-28300531D01*
X64617731Y-28300532D01*
X64617730Y-28300532D01*
X64481059Y-28357143D01*
X64335968Y-28386003D01*
X64188032Y-28386003D01*
X64042941Y-28357143D01*
X63906270Y-28300532D01*
X63906269Y-28300532D01*
X63906268Y-28300531D01*
X63783265Y-28218343D01*
X63678660Y-28113738D01*
X63596472Y-27990735D01*
X63587580Y-27969267D01*
X63539860Y-27854062D01*
X63511000Y-27708971D01*
X63511000Y-27561035D01*
X63539860Y-27415944D01*
X63596471Y-27279273D01*
X63596472Y-27279271D01*
X63678660Y-27156268D01*
X63783265Y-27051663D01*
X63906268Y-26969475D01*
X63906271Y-26969473D01*
X63952111Y-26950486D01*
X63973722Y-26938935D01*
X63992664Y-26923390D01*
X64008209Y-26904448D01*
X64019761Y-26882838D01*
X64026874Y-26859389D01*
X64029276Y-26835003D01*
X64026874Y-26810617D01*
X64019761Y-26787168D01*
X64008210Y-26765557D01*
X63992665Y-26746615D01*
X63973723Y-26731070D01*
X63952113Y-26719518D01*
X63932289Y-26711306D01*
X63906268Y-26700528D01*
X63783265Y-26618340D01*
X63678660Y-26513735D01*
X63596472Y-26390732D01*
X63594816Y-26386733D01*
X63539860Y-26254059D01*
X63511000Y-26108968D01*
X63511000Y-25961032D01*
X63539860Y-25815941D01*
X63596471Y-25679270D01*
X63596472Y-25679268D01*
X63678660Y-25556265D01*
X63783265Y-25451660D01*
X63906268Y-25369472D01*
X64042941Y-25312860D01*
X64057732Y-25309918D01*
X64188032Y-25284000D01*
X64335968Y-25284000D01*
X64466268Y-25309918D01*
G37*
G36*
X67454928Y-26956764D02*
G01*
X67476009Y-26963160D01*
X67495445Y-26973548D01*
X67512476Y-26987524D01*
X67526452Y-27004555D01*
X67536840Y-27023991D01*
X67543236Y-27045072D01*
X67546000Y-27073140D01*
X67546000Y-27536860D01*
X67543236Y-27564928D01*
X67536840Y-27586009D01*
X67526452Y-27605445D01*
X67512476Y-27622476D01*
X67495445Y-27636452D01*
X67476009Y-27646840D01*
X67454928Y-27653236D01*
X67426860Y-27656000D01*
X65513140Y-27656000D01*
X65485072Y-27653236D01*
X65463991Y-27646840D01*
X65444555Y-27636452D01*
X65427524Y-27622476D01*
X65413548Y-27605445D01*
X65403160Y-27586009D01*
X65396764Y-27564928D01*
X65394000Y-27536860D01*
X65394000Y-27073140D01*
X65396764Y-27045072D01*
X65403160Y-27023991D01*
X65413548Y-27004555D01*
X65427524Y-26987524D01*
X65444555Y-26973548D01*
X65463991Y-26963160D01*
X65485072Y-26956764D01*
X65513140Y-26954000D01*
X67426860Y-26954000D01*
X67454928Y-26956764D01*
G37*
G36*
X76754928Y-26956764D02*
G01*
X76776009Y-26963160D01*
X76795445Y-26973548D01*
X76812476Y-26987524D01*
X76826452Y-27004555D01*
X76836840Y-27023991D01*
X76843236Y-27045072D01*
X76846000Y-27073140D01*
X76846000Y-27536860D01*
X76843236Y-27564928D01*
X76836840Y-27586009D01*
X76826452Y-27605445D01*
X76812476Y-27622476D01*
X76795445Y-27636452D01*
X76776009Y-27646840D01*
X76754928Y-27653236D01*
X76726860Y-27656000D01*
X74813140Y-27656000D01*
X74785072Y-27653236D01*
X74763991Y-27646840D01*
X74744555Y-27636452D01*
X74727524Y-27622476D01*
X74713548Y-27605445D01*
X74703160Y-27586009D01*
X74696764Y-27564928D01*
X74694000Y-27536860D01*
X74694000Y-27073140D01*
X74696764Y-27045072D01*
X74703160Y-27023991D01*
X74713548Y-27004555D01*
X74727524Y-26987524D01*
X74744555Y-26973548D01*
X74763991Y-26963160D01*
X74785072Y-26956764D01*
X74813140Y-26954000D01*
X76726860Y-26954000D01*
X76754928Y-26956764D01*
G37*
G36*
X53048495Y-25715080D02*
G01*
X53095315Y-25729283D01*
X53138466Y-25752348D01*
X53176291Y-25783389D01*
X53207332Y-25821214D01*
X53230397Y-25864365D01*
X53244600Y-25911185D01*
X53250000Y-25966018D01*
X53250000Y-27079342D01*
X53244600Y-27134175D01*
X53230397Y-27180995D01*
X53207332Y-27224146D01*
X53176291Y-27261971D01*
X53138466Y-27293012D01*
X53095315Y-27316077D01*
X53048495Y-27330280D01*
X52993662Y-27335680D01*
X51654338Y-27335680D01*
X51599505Y-27330280D01*
X51552685Y-27316077D01*
X51509534Y-27293012D01*
X51471709Y-27261971D01*
X51440668Y-27224146D01*
X51417603Y-27180995D01*
X51403400Y-27134175D01*
X51398000Y-27079342D01*
X51398000Y-25966018D01*
X51403400Y-25911185D01*
X51417603Y-25864365D01*
X51440668Y-25821214D01*
X51471709Y-25783389D01*
X51509534Y-25752348D01*
X51552685Y-25729283D01*
X51599505Y-25715080D01*
X51654338Y-25709680D01*
X52993662Y-25709680D01*
X53048495Y-25715080D01*
G37*
G36*
X54702059Y-25566860D02*
G01*
X54808963Y-25611141D01*
X54838732Y-25623472D01*
X54961735Y-25705660D01*
X55066340Y-25810265D01*
X55148528Y-25933268D01*
X55148529Y-25933270D01*
X55205140Y-26069941D01*
X55234000Y-26215032D01*
X55234000Y-26362968D01*
X55228478Y-26390730D01*
X55205140Y-26508059D01*
X55148528Y-26644732D01*
X55066340Y-26767735D01*
X54961735Y-26872340D01*
X54838732Y-26954528D01*
X54838731Y-26954529D01*
X54838730Y-26954529D01*
X54702059Y-27011140D01*
X54556968Y-27040000D01*
X54409032Y-27040000D01*
X54263941Y-27011140D01*
X54127270Y-26954529D01*
X54127269Y-26954529D01*
X54127268Y-26954528D01*
X54004265Y-26872340D01*
X53899660Y-26767735D01*
X53817472Y-26644732D01*
X53760860Y-26508059D01*
X53737522Y-26390730D01*
X53732000Y-26362968D01*
X53732000Y-26215032D01*
X53760860Y-26069941D01*
X53817471Y-25933270D01*
X53817472Y-25933268D01*
X53899660Y-25810265D01*
X54004265Y-25705660D01*
X54127268Y-25623472D01*
X54157038Y-25611141D01*
X54263941Y-25566860D01*
X54409032Y-25538000D01*
X54556968Y-25538000D01*
X54702059Y-25566860D01*
G37*
G36*
X62449059Y-25185860D02*
G01*
X62585732Y-25242472D01*
X62708735Y-25324660D01*
X62813340Y-25429265D01*
X62895528Y-25552268D01*
X62895529Y-25552270D01*
X62952140Y-25688941D01*
X62981000Y-25834032D01*
X62981000Y-25981968D01*
X62952140Y-26127059D01*
X62917578Y-26210500D01*
X62895528Y-26263732D01*
X62813340Y-26386735D01*
X62708735Y-26491340D01*
X62585732Y-26573528D01*
X62585731Y-26573529D01*
X62585730Y-26573529D01*
X62449059Y-26630140D01*
X62303968Y-26659000D01*
X62156032Y-26659000D01*
X62010941Y-26630140D01*
X61874270Y-26573529D01*
X61874269Y-26573529D01*
X61874268Y-26573528D01*
X61751265Y-26491340D01*
X61646660Y-26386735D01*
X61564472Y-26263732D01*
X61542423Y-26210500D01*
X61507860Y-26127059D01*
X61479000Y-25981968D01*
X61479000Y-25834032D01*
X61507860Y-25688941D01*
X61564471Y-25552270D01*
X61564472Y-25552268D01*
X61646660Y-25429265D01*
X61751265Y-25324660D01*
X61874268Y-25242472D01*
X62010941Y-25185860D01*
X62156032Y-25157000D01*
X62303968Y-25157000D01*
X62449059Y-25185860D01*
G37*
G36*
X67454928Y-25686764D02*
G01*
X67476009Y-25693160D01*
X67495445Y-25703548D01*
X67512476Y-25717524D01*
X67526452Y-25734555D01*
X67536840Y-25753991D01*
X67543236Y-25775072D01*
X67546000Y-25803140D01*
X67546000Y-26266860D01*
X67543236Y-26294928D01*
X67536840Y-26316009D01*
X67526452Y-26335445D01*
X67512476Y-26352476D01*
X67495445Y-26366452D01*
X67476009Y-26376840D01*
X67454928Y-26383236D01*
X67426860Y-26386000D01*
X65513140Y-26386000D01*
X65485072Y-26383236D01*
X65463991Y-26376840D01*
X65444555Y-26366452D01*
X65427524Y-26352476D01*
X65413548Y-26335445D01*
X65403160Y-26316009D01*
X65396764Y-26294928D01*
X65394000Y-26266860D01*
X65394000Y-25803140D01*
X65396764Y-25775072D01*
X65403160Y-25753991D01*
X65413548Y-25734555D01*
X65427524Y-25717524D01*
X65444555Y-25703548D01*
X65463991Y-25693160D01*
X65485072Y-25686764D01*
X65513140Y-25684000D01*
X67426860Y-25684000D01*
X67454928Y-25686764D01*
G37*
G36*
X76754928Y-25686764D02*
G01*
X76776009Y-25693160D01*
X76795445Y-25703548D01*
X76812476Y-25717524D01*
X76826452Y-25734555D01*
X76836840Y-25753991D01*
X76843236Y-25775072D01*
X76846000Y-25803140D01*
X76846000Y-26266860D01*
X76843236Y-26294928D01*
X76836840Y-26316009D01*
X76826452Y-26335445D01*
X76812476Y-26352476D01*
X76795445Y-26366452D01*
X76776009Y-26376840D01*
X76754928Y-26383236D01*
X76726860Y-26386000D01*
X74813140Y-26386000D01*
X74785072Y-26383236D01*
X74763991Y-26376840D01*
X74744555Y-26366452D01*
X74727524Y-26352476D01*
X74713548Y-26335445D01*
X74703160Y-26316009D01*
X74696764Y-26294928D01*
X74694000Y-26266860D01*
X74694000Y-25803140D01*
X74696764Y-25775072D01*
X74703160Y-25753991D01*
X74713548Y-25734555D01*
X74727524Y-25717524D01*
X74744555Y-25703548D01*
X74763991Y-25693160D01*
X74785072Y-25686764D01*
X74813140Y-25684000D01*
X76726860Y-25684000D01*
X76754928Y-25686764D01*
G37*
G36*
X86626778Y-24520547D02*
G01*
X86793224Y-24589491D01*
X86943022Y-24689583D01*
X87070417Y-24816978D01*
X87170509Y-24966776D01*
X87239453Y-25133222D01*
X87274600Y-25309918D01*
X87274600Y-25490082D01*
X87239453Y-25666778D01*
X87170509Y-25833224D01*
X87070417Y-25983022D01*
X86943022Y-26110417D01*
X86793224Y-26210509D01*
X86626778Y-26279453D01*
X86450082Y-26314600D01*
X86269918Y-26314600D01*
X86093222Y-26279453D01*
X85926776Y-26210509D01*
X85776978Y-26110417D01*
X85649583Y-25983022D01*
X85549491Y-25833224D01*
X85480547Y-25666778D01*
X85445400Y-25490082D01*
X85445400Y-25309918D01*
X85480547Y-25133222D01*
X85549491Y-24966776D01*
X85649583Y-24816978D01*
X85776978Y-24689583D01*
X85926776Y-24589491D01*
X86093222Y-24520547D01*
X86269918Y-24485400D01*
X86450082Y-24485400D01*
X86626778Y-24520547D01*
G37*
G36*
X84086778Y-24520547D02*
G01*
X84253224Y-24589491D01*
X84403022Y-24689583D01*
X84530417Y-24816978D01*
X84630509Y-24966776D01*
X84699453Y-25133222D01*
X84734600Y-25309918D01*
X84734600Y-25490082D01*
X84699453Y-25666778D01*
X84630509Y-25833224D01*
X84530417Y-25983022D01*
X84403022Y-26110417D01*
X84253224Y-26210509D01*
X84086778Y-26279453D01*
X83910082Y-26314600D01*
X83729918Y-26314600D01*
X83553222Y-26279453D01*
X83386776Y-26210509D01*
X83236978Y-26110417D01*
X83109583Y-25983022D01*
X83009491Y-25833224D01*
X82940547Y-25666778D01*
X82905400Y-25490082D01*
X82905400Y-25309918D01*
X82940547Y-25133222D01*
X83009491Y-24966776D01*
X83109583Y-24816978D01*
X83236978Y-24689583D01*
X83386776Y-24589491D01*
X83553222Y-24520547D01*
X83729918Y-24485400D01*
X83910082Y-24485400D01*
X84086778Y-24520547D01*
G37*
G36*
X79464495Y-24445080D02*
G01*
X79511315Y-24459283D01*
X79554466Y-24482348D01*
X79592291Y-24513389D01*
X79623332Y-24551214D01*
X79646397Y-24594365D01*
X79660600Y-24641185D01*
X79666000Y-24696018D01*
X79666000Y-25809342D01*
X79660600Y-25864175D01*
X79646397Y-25910995D01*
X79623332Y-25954146D01*
X79592291Y-25991971D01*
X79554466Y-26023012D01*
X79511315Y-26046077D01*
X79464495Y-26060280D01*
X79409662Y-26065680D01*
X78070338Y-26065680D01*
X78015505Y-26060280D01*
X77968685Y-26046077D01*
X77925534Y-26023012D01*
X77887709Y-25991971D01*
X77856668Y-25954146D01*
X77833603Y-25910995D01*
X77819400Y-25864175D01*
X77814000Y-25809342D01*
X77814000Y-24696018D01*
X77819400Y-24641185D01*
X77833603Y-24594365D01*
X77856668Y-24551214D01*
X77887709Y-24513389D01*
X77925534Y-24482348D01*
X77968685Y-24459283D01*
X78015505Y-24445080D01*
X78070338Y-24439680D01*
X79409662Y-24439680D01*
X79464495Y-24445080D01*
G37*
G36*
X57770916Y-24353334D02*
G01*
X57879492Y-24386271D01*
X57879495Y-24386272D01*
X57915601Y-24405571D01*
X57979557Y-24439756D01*
X58067264Y-24511736D01*
X58130383Y-24588646D01*
X58147702Y-24605965D01*
X58168077Y-24619579D01*
X58190716Y-24628957D01*
X58214749Y-24633737D01*
X58239253Y-24633737D01*
X58263286Y-24628957D01*
X58285925Y-24619579D01*
X58306299Y-24605966D01*
X58323626Y-24588639D01*
X58337240Y-24568264D01*
X58346618Y-24545625D01*
X58351398Y-24521592D01*
X58352000Y-24509340D01*
X58352000Y-24345000D01*
X59504000Y-24345000D01*
X59504000Y-25947000D01*
X58352000Y-25947000D01*
X58352000Y-25782660D01*
X58349598Y-25758274D01*
X58342485Y-25734825D01*
X58330934Y-25713214D01*
X58315389Y-25694272D01*
X58296447Y-25678727D01*
X58274836Y-25667176D01*
X58251387Y-25660063D01*
X58227001Y-25657661D01*
X58202615Y-25660063D01*
X58179166Y-25667176D01*
X58157555Y-25678727D01*
X58130381Y-25703356D01*
X58067264Y-25780264D01*
X57979556Y-25852244D01*
X57915600Y-25886429D01*
X57879494Y-25905728D01*
X57879491Y-25905729D01*
X57770915Y-25938666D01*
X57658000Y-25949787D01*
X57545084Y-25938666D01*
X57436508Y-25905729D01*
X57436505Y-25905728D01*
X57400399Y-25886429D01*
X57336443Y-25852244D01*
X57248736Y-25780264D01*
X57176756Y-25692556D01*
X57133239Y-25611140D01*
X57119625Y-25590766D01*
X57102298Y-25573439D01*
X57081924Y-25559825D01*
X57059285Y-25550448D01*
X57035251Y-25545668D01*
X57010747Y-25545668D01*
X56986714Y-25550449D01*
X56964075Y-25559826D01*
X56943701Y-25573440D01*
X56926374Y-25590767D01*
X56912762Y-25611140D01*
X56869244Y-25692557D01*
X56797264Y-25780264D01*
X56709556Y-25852244D01*
X56645600Y-25886429D01*
X56609494Y-25905728D01*
X56609491Y-25905729D01*
X56500915Y-25938666D01*
X56388000Y-25949787D01*
X56275084Y-25938666D01*
X56166508Y-25905729D01*
X56166505Y-25905728D01*
X56130399Y-25886429D01*
X56066443Y-25852244D01*
X55978736Y-25780264D01*
X55906756Y-25692556D01*
X55863239Y-25611140D01*
X55853272Y-25592494D01*
X55847492Y-25573440D01*
X55820334Y-25483915D01*
X55812000Y-25399297D01*
X55812000Y-24892702D01*
X55820334Y-24808084D01*
X55853271Y-24699508D01*
X55853272Y-24699505D01*
X55906756Y-24599445D01*
X55906757Y-24599443D01*
X55978737Y-24511736D01*
X56066444Y-24439756D01*
X56130400Y-24405571D01*
X56166506Y-24386272D01*
X56166509Y-24386271D01*
X56275085Y-24353334D01*
X56388000Y-24342213D01*
X56500916Y-24353334D01*
X56609492Y-24386271D01*
X56609495Y-24386272D01*
X56645601Y-24405571D01*
X56709557Y-24439756D01*
X56797264Y-24511736D01*
X56869244Y-24599443D01*
X56883973Y-24627000D01*
X56912761Y-24680859D01*
X56926375Y-24701234D01*
X56943702Y-24718561D01*
X56964076Y-24732174D01*
X56986715Y-24741552D01*
X57010748Y-24746332D01*
X57035252Y-24746332D01*
X57059285Y-24741552D01*
X57081924Y-24732174D01*
X57102299Y-24718560D01*
X57119626Y-24701233D01*
X57133239Y-24680859D01*
X57176756Y-24599445D01*
X57176757Y-24599443D01*
X57248737Y-24511736D01*
X57336444Y-24439756D01*
X57400400Y-24405571D01*
X57436506Y-24386272D01*
X57436509Y-24386271D01*
X57545085Y-24353334D01*
X57658000Y-24342213D01*
X57770916Y-24353334D01*
G37*
G36*
X76754928Y-24416764D02*
G01*
X76776009Y-24423160D01*
X76795445Y-24433548D01*
X76812476Y-24447524D01*
X76826452Y-24464555D01*
X76836840Y-24483991D01*
X76843236Y-24505072D01*
X76846000Y-24533140D01*
X76846000Y-24996860D01*
X76843236Y-25024928D01*
X76836840Y-25046009D01*
X76826452Y-25065445D01*
X76812476Y-25082476D01*
X76795445Y-25096452D01*
X76776009Y-25106840D01*
X76754928Y-25113236D01*
X76726860Y-25116000D01*
X74813140Y-25116000D01*
X74785072Y-25113236D01*
X74763991Y-25106840D01*
X74744555Y-25096452D01*
X74727524Y-25082476D01*
X74713548Y-25065445D01*
X74703160Y-25046009D01*
X74696764Y-25024928D01*
X74694000Y-24996860D01*
X74694000Y-24533140D01*
X74696764Y-24505072D01*
X74703160Y-24483991D01*
X74713548Y-24464555D01*
X74727524Y-24447524D01*
X74744555Y-24433548D01*
X74763991Y-24423160D01*
X74785072Y-24416764D01*
X74813140Y-24414000D01*
X76726860Y-24414000D01*
X76754928Y-24416764D01*
G37*
G36*
X67454928Y-24416764D02*
G01*
X67476009Y-24423160D01*
X67495445Y-24433548D01*
X67512476Y-24447524D01*
X67526452Y-24464555D01*
X67536840Y-24483991D01*
X67543236Y-24505072D01*
X67546000Y-24533140D01*
X67546000Y-24996860D01*
X67543236Y-25024928D01*
X67536840Y-25046009D01*
X67526452Y-25065445D01*
X67512476Y-25082476D01*
X67495445Y-25096452D01*
X67476009Y-25106840D01*
X67454928Y-25113236D01*
X67426860Y-25116000D01*
X65513140Y-25116000D01*
X65485072Y-25113236D01*
X65463991Y-25106840D01*
X65444555Y-25096452D01*
X65427524Y-25082476D01*
X65413548Y-25065445D01*
X65403160Y-25046009D01*
X65396764Y-25024928D01*
X65394000Y-24996860D01*
X65394000Y-24533140D01*
X65396764Y-24505072D01*
X65403160Y-24483991D01*
X65413548Y-24464555D01*
X65427524Y-24447524D01*
X65444555Y-24433548D01*
X65463991Y-24423160D01*
X65485072Y-24416764D01*
X65513140Y-24414000D01*
X67426860Y-24414000D01*
X67454928Y-24416764D01*
G37*
G36*
X64481059Y-23153860D02*
G01*
X64582152Y-23195734D01*
X64617732Y-23210472D01*
X64740735Y-23292660D01*
X64845340Y-23397265D01*
X64927528Y-23520268D01*
X64927529Y-23520270D01*
X64984140Y-23656941D01*
X65008151Y-23777652D01*
X65013000Y-23802033D01*
X65013000Y-23949967D01*
X64984140Y-24095059D01*
X64927528Y-24231732D01*
X64845340Y-24354735D01*
X64740735Y-24459340D01*
X64617732Y-24541528D01*
X64617731Y-24541529D01*
X64617730Y-24541529D01*
X64481059Y-24598140D01*
X64335968Y-24627000D01*
X64188032Y-24627000D01*
X64042941Y-24598140D01*
X63906270Y-24541529D01*
X63906269Y-24541529D01*
X63906268Y-24541528D01*
X63783265Y-24459340D01*
X63678660Y-24354735D01*
X63596472Y-24231732D01*
X63539860Y-24095059D01*
X63511000Y-23949967D01*
X63511000Y-23802033D01*
X63515850Y-23777652D01*
X63539860Y-23656941D01*
X63596471Y-23520270D01*
X63596472Y-23520268D01*
X63678660Y-23397265D01*
X63783265Y-23292660D01*
X63906268Y-23210472D01*
X63941849Y-23195734D01*
X64042941Y-23153860D01*
X64188032Y-23125000D01*
X64335968Y-23125000D01*
X64481059Y-23153860D01*
G37*
G36*
X51951000Y-21471000D02*
G01*
X50985993Y-21471000D01*
X50961607Y-21473402D01*
X50938158Y-21480515D01*
X50916547Y-21492066D01*
X50897605Y-21507611D01*
X50882060Y-21526553D01*
X50870509Y-21548164D01*
X50863396Y-21571613D01*
X50860994Y-21595999D01*
X50863396Y-21620385D01*
X50870509Y-21643834D01*
X50882060Y-21665445D01*
X50897605Y-21684387D01*
X50916547Y-21699932D01*
X50938158Y-21711483D01*
X50961608Y-21718596D01*
X51135734Y-21753232D01*
X51345203Y-21839997D01*
X51533720Y-21965960D01*
X51694040Y-22126280D01*
X51820003Y-22314797D01*
X51820004Y-22314799D01*
X51845416Y-22376150D01*
X51906768Y-22524266D01*
X51951000Y-22746636D01*
X51951000Y-22973364D01*
X51906768Y-23195734D01*
X51820003Y-23405203D01*
X51694040Y-23593720D01*
X51533720Y-23754040D01*
X51345203Y-23880003D01*
X51135734Y-23966768D01*
X51024549Y-23988884D01*
X50913365Y-24011000D01*
X50686635Y-24011000D01*
X50575451Y-23988884D01*
X50464266Y-23966768D01*
X50254797Y-23880003D01*
X50066280Y-23754040D01*
X49905960Y-23593720D01*
X49779997Y-23405203D01*
X49693232Y-23195734D01*
X49649000Y-22973364D01*
X49649000Y-22746636D01*
X49693232Y-22524266D01*
X49754584Y-22376150D01*
X49779996Y-22314799D01*
X49779997Y-22314797D01*
X49905960Y-22126280D01*
X50066280Y-21965960D01*
X50254797Y-21839997D01*
X50464266Y-21753232D01*
X50638392Y-21718596D01*
X50661842Y-21711483D01*
X50683453Y-21699932D01*
X50702395Y-21684387D01*
X50717940Y-21665445D01*
X50729491Y-21643834D01*
X50736604Y-21620385D01*
X50739006Y-21595999D01*
X50736604Y-21571613D01*
X50729491Y-21548164D01*
X50717940Y-21526553D01*
X50702395Y-21507611D01*
X50683453Y-21492066D01*
X50661842Y-21480515D01*
X50638393Y-21473402D01*
X50614007Y-21471000D01*
X49649000Y-21471000D01*
X49649000Y-19169000D01*
X51951000Y-19169000D01*
X51951000Y-21471000D01*
G37*
G36*
X76754928Y-23146764D02*
G01*
X76776009Y-23153160D01*
X76795445Y-23163548D01*
X76812476Y-23177524D01*
X76826452Y-23194555D01*
X76836840Y-23213991D01*
X76843236Y-23235072D01*
X76846000Y-23263140D01*
X76846000Y-23726860D01*
X76843236Y-23754928D01*
X76836840Y-23776009D01*
X76826452Y-23795445D01*
X76812476Y-23812476D01*
X76795445Y-23826452D01*
X76776009Y-23836840D01*
X76754928Y-23843236D01*
X76726860Y-23846000D01*
X74813140Y-23846000D01*
X74785072Y-23843236D01*
X74763991Y-23836840D01*
X74744555Y-23826452D01*
X74727524Y-23812476D01*
X74713548Y-23795445D01*
X74703160Y-23776009D01*
X74696764Y-23754928D01*
X74694000Y-23726860D01*
X74694000Y-23263140D01*
X74696764Y-23235072D01*
X74703160Y-23213991D01*
X74713548Y-23194555D01*
X74727524Y-23177524D01*
X74744555Y-23163548D01*
X74763991Y-23153160D01*
X74785072Y-23146764D01*
X74813140Y-23144000D01*
X76726860Y-23144000D01*
X76754928Y-23146764D01*
G37*
G36*
X67454928Y-23146764D02*
G01*
X67476009Y-23153160D01*
X67495445Y-23163548D01*
X67512476Y-23177524D01*
X67526452Y-23194555D01*
X67536840Y-23213991D01*
X67543236Y-23235072D01*
X67546000Y-23263140D01*
X67546000Y-23726860D01*
X67543236Y-23754928D01*
X67536840Y-23776009D01*
X67526452Y-23795445D01*
X67512476Y-23812476D01*
X67495445Y-23826452D01*
X67476009Y-23836840D01*
X67454928Y-23843236D01*
X67426860Y-23846000D01*
X65513140Y-23846000D01*
X65485072Y-23843236D01*
X65463991Y-23836840D01*
X65444555Y-23826452D01*
X65427524Y-23812476D01*
X65413548Y-23795445D01*
X65403160Y-23776009D01*
X65396764Y-23754928D01*
X65394000Y-23726860D01*
X65394000Y-23263140D01*
X65396764Y-23235072D01*
X65403160Y-23213991D01*
X65413548Y-23194555D01*
X65427524Y-23177524D01*
X65444555Y-23163548D01*
X65463991Y-23153160D01*
X65485072Y-23146764D01*
X65513140Y-23144000D01*
X67426860Y-23144000D01*
X67454928Y-23146764D01*
G37*
G36*
X54318495Y-22199720D02*
G01*
X54365315Y-22213923D01*
X54408466Y-22236988D01*
X54446291Y-22268029D01*
X54477332Y-22305854D01*
X54500397Y-22349005D01*
X54514600Y-22395825D01*
X54520000Y-22450658D01*
X54520000Y-23563982D01*
X54514600Y-23618815D01*
X54500397Y-23665635D01*
X54477332Y-23708786D01*
X54446291Y-23746611D01*
X54408466Y-23777652D01*
X54365315Y-23800717D01*
X54318495Y-23814920D01*
X54263662Y-23820320D01*
X52924338Y-23820320D01*
X52869505Y-23814920D01*
X52822685Y-23800717D01*
X52779534Y-23777652D01*
X52741709Y-23746611D01*
X52710668Y-23708786D01*
X52687603Y-23665635D01*
X52673400Y-23618815D01*
X52668000Y-23563982D01*
X52668000Y-22450658D01*
X52673400Y-22395825D01*
X52687603Y-22349005D01*
X52710668Y-22305854D01*
X52741709Y-22268029D01*
X52779534Y-22236988D01*
X52822685Y-22213923D01*
X52869505Y-22199720D01*
X52924338Y-22194320D01*
X54263662Y-22194320D01*
X54318495Y-22199720D01*
G37*
G36*
X86626778Y-21980547D02*
G01*
X86793224Y-22049491D01*
X86943022Y-22149583D01*
X87070417Y-22276978D01*
X87170509Y-22426776D01*
X87239453Y-22593222D01*
X87274600Y-22769918D01*
X87274600Y-22950082D01*
X87239453Y-23126778D01*
X87170509Y-23293224D01*
X87070417Y-23443022D01*
X86943022Y-23570417D01*
X86793224Y-23670509D01*
X86626778Y-23739453D01*
X86450082Y-23774600D01*
X86269918Y-23774600D01*
X86093222Y-23739453D01*
X85926776Y-23670509D01*
X85776978Y-23570417D01*
X85649583Y-23443022D01*
X85549491Y-23293224D01*
X85480547Y-23126778D01*
X85445400Y-22950082D01*
X85445400Y-22769918D01*
X85480547Y-22593222D01*
X85549491Y-22426776D01*
X85649583Y-22276978D01*
X85776978Y-22149583D01*
X85926776Y-22049491D01*
X86093222Y-21980547D01*
X86269918Y-21945400D01*
X86450082Y-21945400D01*
X86626778Y-21980547D01*
G37*
G36*
X84086778Y-21980547D02*
G01*
X84253224Y-22049491D01*
X84403022Y-22149583D01*
X84530417Y-22276978D01*
X84630509Y-22426776D01*
X84699453Y-22593222D01*
X84734600Y-22769918D01*
X84734600Y-22950082D01*
X84699453Y-23126778D01*
X84630509Y-23293224D01*
X84530417Y-23443022D01*
X84403022Y-23570417D01*
X84253224Y-23670509D01*
X84086778Y-23739453D01*
X83910082Y-23774600D01*
X83729918Y-23774600D01*
X83553222Y-23739453D01*
X83386776Y-23670509D01*
X83236978Y-23570417D01*
X83109583Y-23443022D01*
X83009491Y-23293224D01*
X82940547Y-23126778D01*
X82905400Y-22950082D01*
X82905400Y-22769918D01*
X82940547Y-22593222D01*
X83009491Y-22426776D01*
X83109583Y-22276978D01*
X83236978Y-22149583D01*
X83386776Y-22049491D01*
X83553222Y-21980547D01*
X83729918Y-21945400D01*
X83910082Y-21945400D01*
X84086778Y-21980547D01*
G37*
G36*
X48382367Y-22271566D02*
G01*
X48435305Y-22282096D01*
X48453346Y-22289569D01*
X48544680Y-22327400D01*
X48643115Y-22393173D01*
X48726827Y-22476885D01*
X48792600Y-22575320D01*
X48837904Y-22684696D01*
X48861000Y-22800805D01*
X48861000Y-22919195D01*
X48837904Y-23035304D01*
X48792600Y-23144680D01*
X48726827Y-23243115D01*
X48643115Y-23326827D01*
X48544680Y-23392600D01*
X48467340Y-23424635D01*
X48435305Y-23437904D01*
X48409575Y-23443022D01*
X48319195Y-23461000D01*
X48200805Y-23461000D01*
X48110425Y-23443022D01*
X48084695Y-23437904D01*
X48052660Y-23424635D01*
X47975320Y-23392600D01*
X47876885Y-23326827D01*
X47793173Y-23243115D01*
X47727400Y-23144680D01*
X47682096Y-23035304D01*
X47659000Y-22919195D01*
X47659000Y-22800805D01*
X47682096Y-22684696D01*
X47727400Y-22575320D01*
X47793173Y-22476885D01*
X47876885Y-22393173D01*
X47975320Y-22327400D01*
X48066654Y-22289569D01*
X48084695Y-22282096D01*
X48137633Y-22271566D01*
X48200805Y-22259000D01*
X48319195Y-22259000D01*
X48382367Y-22271566D01*
G37*
G36*
X76754928Y-21876764D02*
G01*
X76776009Y-21883160D01*
X76795445Y-21893548D01*
X76812476Y-21907524D01*
X76826452Y-21924555D01*
X76836840Y-21943991D01*
X76843236Y-21965072D01*
X76846000Y-21993140D01*
X76846000Y-22456860D01*
X76843236Y-22484928D01*
X76836840Y-22506009D01*
X76826452Y-22525445D01*
X76812476Y-22542476D01*
X76795445Y-22556452D01*
X76776009Y-22566840D01*
X76754928Y-22573236D01*
X76726860Y-22576000D01*
X74813140Y-22576000D01*
X74785072Y-22573236D01*
X74763991Y-22566840D01*
X74744555Y-22556452D01*
X74727524Y-22542476D01*
X74713548Y-22525445D01*
X74703160Y-22506009D01*
X74696764Y-22484928D01*
X74694000Y-22456860D01*
X74694000Y-21993140D01*
X74696764Y-21965072D01*
X74703160Y-21943991D01*
X74713548Y-21924555D01*
X74727524Y-21907524D01*
X74744555Y-21893548D01*
X74763991Y-21883160D01*
X74785072Y-21876764D01*
X74813140Y-21874000D01*
X76726860Y-21874000D01*
X76754928Y-21876764D01*
G37*
G36*
X67454928Y-21876764D02*
G01*
X67476009Y-21883160D01*
X67495445Y-21893548D01*
X67512476Y-21907524D01*
X67526452Y-21924555D01*
X67536840Y-21943991D01*
X67543236Y-21965072D01*
X67546000Y-21993140D01*
X67546000Y-22456860D01*
X67543236Y-22484928D01*
X67536840Y-22506009D01*
X67526452Y-22525445D01*
X67512476Y-22542476D01*
X67495445Y-22556452D01*
X67476009Y-22566840D01*
X67454928Y-22573236D01*
X67426860Y-22576000D01*
X65513140Y-22576000D01*
X65485072Y-22573236D01*
X65463991Y-22566840D01*
X65444555Y-22556452D01*
X65427524Y-22542476D01*
X65413548Y-22525445D01*
X65403160Y-22506009D01*
X65396764Y-22484928D01*
X65394000Y-22456860D01*
X65394000Y-21993140D01*
X65396764Y-21965072D01*
X65403160Y-21943991D01*
X65413548Y-21924555D01*
X65427524Y-21907524D01*
X65444555Y-21893548D01*
X65463991Y-21883160D01*
X65485072Y-21876764D01*
X65513140Y-21874000D01*
X67426860Y-21874000D01*
X67454928Y-21876764D01*
G37*
G36*
X63973059Y-20867860D02*
G01*
X64108743Y-20924062D01*
X64109732Y-20924472D01*
X64232735Y-21006660D01*
X64337340Y-21111265D01*
X64406605Y-21214928D01*
X64419529Y-21234270D01*
X64476140Y-21370941D01*
X64505000Y-21516032D01*
X64505000Y-21663968D01*
X64476140Y-21809059D01*
X64449241Y-21874000D01*
X64419528Y-21945732D01*
X64337340Y-22068735D01*
X64232735Y-22173340D01*
X64109732Y-22255528D01*
X64109731Y-22255529D01*
X64109730Y-22255529D01*
X63973059Y-22312140D01*
X63827968Y-22341000D01*
X63680032Y-22341000D01*
X63534941Y-22312140D01*
X63398270Y-22255529D01*
X63398269Y-22255529D01*
X63398268Y-22255528D01*
X63275265Y-22173340D01*
X63170660Y-22068735D01*
X63088472Y-21945732D01*
X63058760Y-21874000D01*
X63031860Y-21809059D01*
X63003000Y-21663968D01*
X63003000Y-21516032D01*
X63031860Y-21370941D01*
X63088471Y-21234270D01*
X63101395Y-21214928D01*
X63170660Y-21111265D01*
X63275265Y-21006660D01*
X63398268Y-20924472D01*
X63399258Y-20924062D01*
X63534941Y-20867860D01*
X63680032Y-20839000D01*
X63827968Y-20839000D01*
X63973059Y-20867860D01*
G37*
G36*
X79464495Y-20675720D02*
G01*
X79511315Y-20689923D01*
X79554466Y-20712988D01*
X79592291Y-20744029D01*
X79623332Y-20781854D01*
X79646397Y-20825005D01*
X79660600Y-20871825D01*
X79666000Y-20926658D01*
X79666000Y-22039982D01*
X79660600Y-22094815D01*
X79646397Y-22141635D01*
X79623332Y-22184786D01*
X79592291Y-22222611D01*
X79554466Y-22253652D01*
X79511315Y-22276717D01*
X79464495Y-22290920D01*
X79409662Y-22296320D01*
X78070338Y-22296320D01*
X78015505Y-22290920D01*
X77968685Y-22276717D01*
X77925534Y-22253652D01*
X77887709Y-22222611D01*
X77856668Y-22184786D01*
X77833603Y-22141635D01*
X77819400Y-22094815D01*
X77814000Y-22039982D01*
X77814000Y-20926658D01*
X77819400Y-20871825D01*
X77833603Y-20825005D01*
X77856668Y-20781854D01*
X77887709Y-20744029D01*
X77925534Y-20712988D01*
X77968685Y-20689923D01*
X78015505Y-20675720D01*
X78070338Y-20670320D01*
X79409662Y-20670320D01*
X79464495Y-20675720D01*
G37*
G36*
X57675103Y-20872239D02*
G01*
X57727615Y-20888168D01*
X57776000Y-20914031D01*
X57818416Y-20948840D01*
X57853225Y-20991256D01*
X57879088Y-21039641D01*
X57895017Y-21092153D01*
X57901000Y-21152897D01*
X57901000Y-21951615D01*
X57895017Y-22012359D01*
X57879088Y-22064871D01*
X57853225Y-22113256D01*
X57818416Y-22155672D01*
X57776000Y-22190481D01*
X57727615Y-22216344D01*
X57675103Y-22232273D01*
X57614359Y-22238256D01*
X56685641Y-22238256D01*
X56624897Y-22232273D01*
X56572385Y-22216344D01*
X56524000Y-22190481D01*
X56481584Y-22155672D01*
X56446775Y-22113256D01*
X56420912Y-22064871D01*
X56404983Y-22012359D01*
X56399000Y-21951615D01*
X56399000Y-21152897D01*
X56404983Y-21092153D01*
X56420912Y-21039641D01*
X56446775Y-20991256D01*
X56481584Y-20948840D01*
X56524000Y-20914031D01*
X56572385Y-20888168D01*
X56624897Y-20872239D01*
X56685641Y-20866256D01*
X57614359Y-20866256D01*
X57675103Y-20872239D01*
G37*
G36*
X62211000Y-22181000D02*
G01*
X59709000Y-22181000D01*
X59709000Y-18579000D01*
X62211000Y-18579000D01*
X62211000Y-22181000D01*
G37*
G36*
X67454928Y-20606764D02*
G01*
X67476009Y-20613160D01*
X67495445Y-20623548D01*
X67512476Y-20637524D01*
X67526452Y-20654555D01*
X67536840Y-20673991D01*
X67543236Y-20695072D01*
X67546000Y-20723140D01*
X67546000Y-21186860D01*
X67543236Y-21214928D01*
X67536840Y-21236009D01*
X67526452Y-21255445D01*
X67512476Y-21272476D01*
X67495445Y-21286452D01*
X67476009Y-21296840D01*
X67454928Y-21303236D01*
X67426860Y-21306000D01*
X65513140Y-21306000D01*
X65485072Y-21303236D01*
X65463991Y-21296840D01*
X65444555Y-21286452D01*
X65427524Y-21272476D01*
X65413548Y-21255445D01*
X65403160Y-21236009D01*
X65396764Y-21214928D01*
X65394000Y-21186860D01*
X65394000Y-20723140D01*
X65396764Y-20695072D01*
X65403160Y-20673991D01*
X65413548Y-20654555D01*
X65427524Y-20637524D01*
X65444555Y-20623548D01*
X65463991Y-20613160D01*
X65485072Y-20606764D01*
X65513140Y-20604000D01*
X67426860Y-20604000D01*
X67454928Y-20606764D01*
G37*
G36*
X76754928Y-20606764D02*
G01*
X76776009Y-20613160D01*
X76795445Y-20623548D01*
X76812476Y-20637524D01*
X76826452Y-20654555D01*
X76836840Y-20673991D01*
X76843236Y-20695072D01*
X76846000Y-20723140D01*
X76846000Y-21186860D01*
X76843236Y-21214928D01*
X76836840Y-21236009D01*
X76826452Y-21255445D01*
X76812476Y-21272476D01*
X76795445Y-21286452D01*
X76776009Y-21296840D01*
X76754928Y-21303236D01*
X76726860Y-21306000D01*
X74813140Y-21306000D01*
X74785072Y-21303236D01*
X74763991Y-21296840D01*
X74744555Y-21286452D01*
X74727524Y-21272476D01*
X74713548Y-21255445D01*
X74703160Y-21236009D01*
X74696764Y-21214928D01*
X74694000Y-21186860D01*
X74694000Y-20723140D01*
X74696764Y-20695072D01*
X74703160Y-20673991D01*
X74713548Y-20654555D01*
X74727524Y-20637524D01*
X74744555Y-20623548D01*
X74763991Y-20613160D01*
X74785072Y-20606764D01*
X74813140Y-20604000D01*
X76726860Y-20604000D01*
X76754928Y-20606764D01*
G37*
G36*
X86626778Y-19440547D02*
G01*
X86793224Y-19509491D01*
X86943022Y-19609583D01*
X87070417Y-19736978D01*
X87170509Y-19886776D01*
X87239453Y-20053222D01*
X87274600Y-20229918D01*
X87274600Y-20410082D01*
X87239453Y-20586778D01*
X87170509Y-20753224D01*
X87070417Y-20903022D01*
X86943022Y-21030417D01*
X86793224Y-21130509D01*
X86626778Y-21199453D01*
X86450082Y-21234600D01*
X86269918Y-21234600D01*
X86093222Y-21199453D01*
X85926776Y-21130509D01*
X85776978Y-21030417D01*
X85649583Y-20903022D01*
X85549491Y-20753224D01*
X85480547Y-20586778D01*
X85445400Y-20410082D01*
X85445400Y-20229918D01*
X85480547Y-20053222D01*
X85549491Y-19886776D01*
X85649583Y-19736978D01*
X85776978Y-19609583D01*
X85926776Y-19509491D01*
X86093222Y-19440547D01*
X86269918Y-19405400D01*
X86450082Y-19405400D01*
X86626778Y-19440547D01*
G37*
G36*
X84086778Y-19440547D02*
G01*
X84253224Y-19509491D01*
X84403022Y-19609583D01*
X84530417Y-19736978D01*
X84630509Y-19886776D01*
X84699453Y-20053222D01*
X84734600Y-20229918D01*
X84734600Y-20410082D01*
X84699453Y-20586778D01*
X84630509Y-20753224D01*
X84530417Y-20903022D01*
X84403022Y-21030417D01*
X84253224Y-21130509D01*
X84086778Y-21199453D01*
X83910082Y-21234600D01*
X83729918Y-21234600D01*
X83553222Y-21199453D01*
X83386776Y-21130509D01*
X83236978Y-21030417D01*
X83109583Y-20903022D01*
X83009491Y-20753224D01*
X82940547Y-20586778D01*
X82905400Y-20410082D01*
X82905400Y-20229918D01*
X82940547Y-20053222D01*
X83009491Y-19886776D01*
X83109583Y-19736978D01*
X83236978Y-19609583D01*
X83386776Y-19509491D01*
X83553222Y-19440547D01*
X83729918Y-19405400D01*
X83910082Y-19405400D01*
X84086778Y-19440547D01*
G37*
G36*
X48396601Y-19734397D02*
G01*
X48435305Y-19742096D01*
X48467340Y-19755365D01*
X48544680Y-19787400D01*
X48643115Y-19853173D01*
X48726827Y-19936885D01*
X48792600Y-20035320D01*
X48824635Y-20112660D01*
X48837904Y-20144695D01*
X48845603Y-20183399D01*
X48861000Y-20260805D01*
X48861000Y-20379195D01*
X48837904Y-20495304D01*
X48792600Y-20604680D01*
X48726827Y-20703115D01*
X48643115Y-20786827D01*
X48544680Y-20852600D01*
X48467340Y-20884635D01*
X48435305Y-20897904D01*
X48409575Y-20903022D01*
X48319195Y-20921000D01*
X48200805Y-20921000D01*
X48110425Y-20903022D01*
X48084695Y-20897904D01*
X48052660Y-20884635D01*
X47975320Y-20852600D01*
X47876885Y-20786827D01*
X47793173Y-20703115D01*
X47727400Y-20604680D01*
X47682096Y-20495304D01*
X47659000Y-20379195D01*
X47659000Y-20260805D01*
X47674397Y-20183399D01*
X47682096Y-20144695D01*
X47695365Y-20112660D01*
X47727400Y-20035320D01*
X47793173Y-19936885D01*
X47876885Y-19853173D01*
X47975320Y-19787400D01*
X48052660Y-19755365D01*
X48084695Y-19742096D01*
X48123399Y-19734397D01*
X48200805Y-19719000D01*
X48319195Y-19719000D01*
X48396601Y-19734397D01*
G37*
G36*
X54318495Y-18857080D02*
G01*
X54365315Y-18871283D01*
X54408466Y-18894348D01*
X54446291Y-18925389D01*
X54477332Y-18963214D01*
X54500397Y-19006365D01*
X54514600Y-19053185D01*
X54520000Y-19108018D01*
X54520000Y-20221342D01*
X54514600Y-20276175D01*
X54500397Y-20322995D01*
X54477332Y-20366146D01*
X54446291Y-20403971D01*
X54408466Y-20435012D01*
X54365315Y-20458077D01*
X54318495Y-20472280D01*
X54263662Y-20477680D01*
X52924338Y-20477680D01*
X52869505Y-20472280D01*
X52822685Y-20458077D01*
X52779534Y-20435012D01*
X52741709Y-20403971D01*
X52710668Y-20366146D01*
X52687603Y-20322995D01*
X52673400Y-20276175D01*
X52668000Y-20221342D01*
X52668000Y-19108018D01*
X52673400Y-19053185D01*
X52687603Y-19006365D01*
X52710668Y-18963214D01*
X52741709Y-18925389D01*
X52779534Y-18894348D01*
X52822685Y-18871283D01*
X52869505Y-18857080D01*
X52924338Y-18851680D01*
X54263662Y-18851680D01*
X54318495Y-18857080D01*
G37*
G36*
X67454928Y-19336764D02*
G01*
X67476009Y-19343160D01*
X67495445Y-19353548D01*
X67512476Y-19367524D01*
X67526452Y-19384555D01*
X67536840Y-19403991D01*
X67543236Y-19425072D01*
X67546000Y-19453140D01*
X67546000Y-19916860D01*
X67543236Y-19944928D01*
X67536840Y-19966009D01*
X67526452Y-19985445D01*
X67512476Y-20002476D01*
X67495445Y-20016452D01*
X67476009Y-20026840D01*
X67454928Y-20033236D01*
X67426860Y-20036000D01*
X65513140Y-20036000D01*
X65485072Y-20033236D01*
X65463991Y-20026840D01*
X65444555Y-20016452D01*
X65427524Y-20002476D01*
X65413548Y-19985445D01*
X65403160Y-19966009D01*
X65396764Y-19944928D01*
X65394000Y-19916860D01*
X65394000Y-19453140D01*
X65396764Y-19425072D01*
X65403160Y-19403991D01*
X65413548Y-19384555D01*
X65427524Y-19367524D01*
X65444555Y-19353548D01*
X65463991Y-19343160D01*
X65485072Y-19336764D01*
X65513140Y-19334000D01*
X67426860Y-19334000D01*
X67454928Y-19336764D01*
G37*
G36*
X76754928Y-19336764D02*
G01*
X76776009Y-19343160D01*
X76795445Y-19353548D01*
X76812476Y-19367524D01*
X76826452Y-19384555D01*
X76836840Y-19403991D01*
X76843236Y-19425072D01*
X76846000Y-19453140D01*
X76846000Y-19916860D01*
X76843236Y-19944928D01*
X76836840Y-19966009D01*
X76826452Y-19985445D01*
X76812476Y-20002476D01*
X76795445Y-20016452D01*
X76776009Y-20026840D01*
X76754928Y-20033236D01*
X76726860Y-20036000D01*
X74813140Y-20036000D01*
X74785072Y-20033236D01*
X74763991Y-20026840D01*
X74744555Y-20016452D01*
X74727524Y-20002476D01*
X74713548Y-19985445D01*
X74703160Y-19966009D01*
X74696764Y-19944928D01*
X74694000Y-19916860D01*
X74694000Y-19453140D01*
X74696764Y-19425072D01*
X74703160Y-19403991D01*
X74713548Y-19384555D01*
X74727524Y-19367524D01*
X74744555Y-19353548D01*
X74763991Y-19343160D01*
X74785072Y-19336764D01*
X74813140Y-19334000D01*
X76726860Y-19334000D01*
X76754928Y-19336764D01*
G37*
G36*
X57675103Y-18407727D02*
G01*
X57727615Y-18423656D01*
X57776000Y-18449519D01*
X57818416Y-18484328D01*
X57853225Y-18526744D01*
X57879088Y-18575129D01*
X57895017Y-18627641D01*
X57901000Y-18688385D01*
X57901000Y-19487103D01*
X57895017Y-19547847D01*
X57879088Y-19600359D01*
X57853225Y-19648744D01*
X57818416Y-19691160D01*
X57776000Y-19725969D01*
X57727615Y-19751832D01*
X57675103Y-19767761D01*
X57614359Y-19773744D01*
X56685641Y-19773744D01*
X56624897Y-19767761D01*
X56572385Y-19751832D01*
X56524000Y-19725969D01*
X56481584Y-19691160D01*
X56446775Y-19648744D01*
X56420912Y-19600359D01*
X56404983Y-19547847D01*
X56399000Y-19487103D01*
X56399000Y-18688385D01*
X56404983Y-18627641D01*
X56420912Y-18575129D01*
X56446775Y-18526744D01*
X56481584Y-18484328D01*
X56524000Y-18449519D01*
X56572385Y-18423656D01*
X56624897Y-18407727D01*
X56685641Y-18401744D01*
X57614359Y-18401744D01*
X57675103Y-18407727D01*
G37*
G36*
X79464495Y-17333080D02*
G01*
X79511315Y-17347283D01*
X79554466Y-17370348D01*
X79592291Y-17401389D01*
X79623332Y-17439214D01*
X79646397Y-17482365D01*
X79660600Y-17529185D01*
X79666000Y-17584018D01*
X79666000Y-18697342D01*
X79660600Y-18752175D01*
X79646397Y-18798995D01*
X79623332Y-18842146D01*
X79592291Y-18879971D01*
X79554466Y-18911012D01*
X79511315Y-18934077D01*
X79464495Y-18948280D01*
X79409662Y-18953680D01*
X78070338Y-18953680D01*
X78015505Y-18948280D01*
X77968685Y-18934077D01*
X77925534Y-18911012D01*
X77887709Y-18879971D01*
X77856668Y-18842146D01*
X77833603Y-18798995D01*
X77819400Y-18752175D01*
X77814000Y-18697342D01*
X77814000Y-17584018D01*
X77819400Y-17529185D01*
X77833603Y-17482365D01*
X77856668Y-17439214D01*
X77887709Y-17401389D01*
X77925534Y-17370348D01*
X77968685Y-17347283D01*
X78015505Y-17333080D01*
X78070338Y-17327680D01*
X79409662Y-17327680D01*
X79464495Y-17333080D01*
G37*
G36*
X76754928Y-18066764D02*
G01*
X76776009Y-18073160D01*
X76795445Y-18083548D01*
X76812476Y-18097524D01*
X76826452Y-18114555D01*
X76836840Y-18133991D01*
X76843236Y-18155072D01*
X76846000Y-18183140D01*
X76846000Y-18646860D01*
X76843236Y-18674928D01*
X76836840Y-18696009D01*
X76826452Y-18715445D01*
X76812476Y-18732476D01*
X76795445Y-18746452D01*
X76776009Y-18756840D01*
X76754928Y-18763236D01*
X76726860Y-18766000D01*
X74813140Y-18766000D01*
X74785072Y-18763236D01*
X74763991Y-18756840D01*
X74744555Y-18746452D01*
X74727524Y-18732476D01*
X74713548Y-18715445D01*
X74703160Y-18696009D01*
X74696764Y-18674928D01*
X74694000Y-18646860D01*
X74694000Y-18183140D01*
X74696764Y-18155072D01*
X74703160Y-18133991D01*
X74713548Y-18114555D01*
X74727524Y-18097524D01*
X74744555Y-18083548D01*
X74763991Y-18073160D01*
X74785072Y-18066764D01*
X74813140Y-18064000D01*
X76726860Y-18064000D01*
X76754928Y-18066764D01*
G37*
G36*
X67454928Y-18066764D02*
G01*
X67476009Y-18073160D01*
X67495445Y-18083548D01*
X67512476Y-18097524D01*
X67526452Y-18114555D01*
X67536840Y-18133991D01*
X67543236Y-18155072D01*
X67546000Y-18183140D01*
X67546000Y-18646860D01*
X67543236Y-18674928D01*
X67536840Y-18696009D01*
X67526452Y-18715445D01*
X67512476Y-18732476D01*
X67495445Y-18746452D01*
X67476009Y-18756840D01*
X67454928Y-18763236D01*
X67426860Y-18766000D01*
X65513140Y-18766000D01*
X65485072Y-18763236D01*
X65463991Y-18756840D01*
X65444555Y-18746452D01*
X65427524Y-18732476D01*
X65413548Y-18715445D01*
X65403160Y-18696009D01*
X65396764Y-18674928D01*
X65394000Y-18646860D01*
X65394000Y-18183140D01*
X65396764Y-18155072D01*
X65403160Y-18133991D01*
X65413548Y-18114555D01*
X65427524Y-18097524D01*
X65444555Y-18083548D01*
X65463991Y-18073160D01*
X65485072Y-18066764D01*
X65513140Y-18064000D01*
X67426860Y-18064000D01*
X67454928Y-18066764D01*
G37*
G36*
X86626778Y-16900547D02*
G01*
X86793224Y-16969491D01*
X86943022Y-17069583D01*
X87070417Y-17196978D01*
X87170509Y-17346776D01*
X87239453Y-17513222D01*
X87274600Y-17689918D01*
X87274600Y-17870082D01*
X87239453Y-18046778D01*
X87170509Y-18213224D01*
X87070417Y-18363022D01*
X86943022Y-18490417D01*
X86793224Y-18590509D01*
X86626778Y-18659453D01*
X86450082Y-18694600D01*
X86269918Y-18694600D01*
X86093222Y-18659453D01*
X85926776Y-18590509D01*
X85776978Y-18490417D01*
X85649583Y-18363022D01*
X85549491Y-18213224D01*
X85480547Y-18046778D01*
X85445400Y-17870082D01*
X85445400Y-17689918D01*
X85480547Y-17513222D01*
X85549491Y-17346776D01*
X85649583Y-17196978D01*
X85776978Y-17069583D01*
X85926776Y-16969491D01*
X86093222Y-16900547D01*
X86269918Y-16865400D01*
X86450082Y-16865400D01*
X86626778Y-16900547D01*
G37*
G36*
X84086778Y-16900547D02*
G01*
X84253224Y-16969491D01*
X84403022Y-17069583D01*
X84530417Y-17196978D01*
X84630509Y-17346776D01*
X84699453Y-17513222D01*
X84734600Y-17689918D01*
X84734600Y-17870082D01*
X84699453Y-18046778D01*
X84630509Y-18213224D01*
X84530417Y-18363022D01*
X84403022Y-18490417D01*
X84253224Y-18590509D01*
X84086778Y-18659453D01*
X83910082Y-18694600D01*
X83729918Y-18694600D01*
X83553222Y-18659453D01*
X83386776Y-18590509D01*
X83236978Y-18490417D01*
X83109583Y-18363022D01*
X83009491Y-18213224D01*
X82940547Y-18046778D01*
X82905400Y-17870082D01*
X82905400Y-17689918D01*
X82940547Y-17513222D01*
X83009491Y-17346776D01*
X83109583Y-17196978D01*
X83236978Y-17069583D01*
X83386776Y-16969491D01*
X83553222Y-16900547D01*
X83729918Y-16865400D01*
X83910082Y-16865400D01*
X84086778Y-16900547D01*
G37*
G36*
X69052727Y-17057794D02*
G01*
X69053059Y-17057860D01*
X69189732Y-17114472D01*
X69312735Y-17196660D01*
X69417340Y-17301265D01*
X69486605Y-17404928D01*
X69499529Y-17424270D01*
X69556140Y-17560941D01*
X69585000Y-17706032D01*
X69585000Y-17853968D01*
X69556140Y-17999059D01*
X69529241Y-18064000D01*
X69499528Y-18135732D01*
X69417340Y-18258735D01*
X69312735Y-18363340D01*
X69189732Y-18445528D01*
X69189731Y-18445529D01*
X69189730Y-18445529D01*
X69053059Y-18502140D01*
X68907968Y-18531000D01*
X68760032Y-18531000D01*
X68614941Y-18502140D01*
X68478270Y-18445529D01*
X68478269Y-18445529D01*
X68478268Y-18445528D01*
X68355265Y-18363340D01*
X68250660Y-18258735D01*
X68168472Y-18135732D01*
X68138760Y-18064000D01*
X68111860Y-17999059D01*
X68083000Y-17853968D01*
X68083000Y-17706032D01*
X68111860Y-17560941D01*
X68168471Y-17424270D01*
X68181395Y-17404928D01*
X68250660Y-17301265D01*
X68355265Y-17196660D01*
X68478268Y-17114472D01*
X68614941Y-17057860D01*
X68615273Y-17057794D01*
X68760032Y-17029000D01*
X68907968Y-17029000D01*
X69052727Y-17057794D01*
G37*
G36*
X67454928Y-16796764D02*
G01*
X67476009Y-16803160D01*
X67495445Y-16813548D01*
X67512476Y-16827524D01*
X67526452Y-16844555D01*
X67536840Y-16863991D01*
X67543236Y-16885072D01*
X67546000Y-16913140D01*
X67546000Y-17376860D01*
X67543236Y-17404928D01*
X67536840Y-17426009D01*
X67526452Y-17445445D01*
X67512476Y-17462476D01*
X67495445Y-17476452D01*
X67476009Y-17486840D01*
X67454928Y-17493236D01*
X67426860Y-17496000D01*
X65513140Y-17496000D01*
X65485072Y-17493236D01*
X65463991Y-17486840D01*
X65444555Y-17476452D01*
X65427524Y-17462476D01*
X65413548Y-17445445D01*
X65403160Y-17426009D01*
X65396764Y-17404928D01*
X65394000Y-17376860D01*
X65394000Y-16913140D01*
X65396764Y-16885072D01*
X65403160Y-16863991D01*
X65413548Y-16844555D01*
X65427524Y-16827524D01*
X65444555Y-16813548D01*
X65463991Y-16803160D01*
X65485072Y-16796764D01*
X65513140Y-16794000D01*
X67426860Y-16794000D01*
X67454928Y-16796764D01*
G37*
G36*
X76754928Y-16796764D02*
G01*
X76776009Y-16803160D01*
X76795445Y-16813548D01*
X76812476Y-16827524D01*
X76826452Y-16844555D01*
X76836840Y-16863991D01*
X76843236Y-16885072D01*
X76846000Y-16913140D01*
X76846000Y-17376860D01*
X76843236Y-17404928D01*
X76836840Y-17426009D01*
X76826452Y-17445445D01*
X76812476Y-17462476D01*
X76795445Y-17476452D01*
X76776009Y-17486840D01*
X76754928Y-17493236D01*
X76726860Y-17496000D01*
X74813140Y-17496000D01*
X74785072Y-17493236D01*
X74763991Y-17486840D01*
X74744555Y-17476452D01*
X74727524Y-17462476D01*
X74713548Y-17445445D01*
X74703160Y-17426009D01*
X74696764Y-17404928D01*
X74694000Y-17376860D01*
X74694000Y-16913140D01*
X74696764Y-16885072D01*
X74703160Y-16863991D01*
X74713548Y-16844555D01*
X74727524Y-16827524D01*
X74744555Y-16813548D01*
X74763991Y-16803160D01*
X74785072Y-16796764D01*
X74813140Y-16794000D01*
X76726860Y-16794000D01*
X76754928Y-16796764D01*
G37*
G36*
X57675103Y-15792239D02*
G01*
X57727615Y-15808168D01*
X57776000Y-15834031D01*
X57818416Y-15868840D01*
X57853225Y-15911256D01*
X57879088Y-15959641D01*
X57895017Y-16012153D01*
X57901000Y-16072897D01*
X57901000Y-16871615D01*
X57895017Y-16932359D01*
X57879088Y-16984871D01*
X57853225Y-17033256D01*
X57818416Y-17075672D01*
X57776000Y-17110481D01*
X57727615Y-17136344D01*
X57675103Y-17152273D01*
X57614359Y-17158256D01*
X56685641Y-17158256D01*
X56624897Y-17152273D01*
X56572385Y-17136344D01*
X56524000Y-17110481D01*
X56481584Y-17075672D01*
X56446775Y-17033256D01*
X56420912Y-16984871D01*
X56404983Y-16932359D01*
X56399000Y-16871615D01*
X56399000Y-16072897D01*
X56404983Y-16012153D01*
X56420912Y-15959641D01*
X56446775Y-15911256D01*
X56481584Y-15868840D01*
X56524000Y-15834031D01*
X56572385Y-15808168D01*
X56624897Y-15792239D01*
X56685641Y-15786256D01*
X57614359Y-15786256D01*
X57675103Y-15792239D01*
G37*
G36*
X78705059Y-15533860D02*
G01*
X78805353Y-15575403D01*
X78841732Y-15590472D01*
X78964735Y-15672660D01*
X79069340Y-15777265D01*
X79092793Y-15812365D01*
X79151529Y-15900270D01*
X79208140Y-16036941D01*
X79227631Y-16134928D01*
X79237000Y-16182033D01*
X79237000Y-16329967D01*
X79208140Y-16475059D01*
X79151528Y-16611732D01*
X79069340Y-16734735D01*
X78964735Y-16839340D01*
X78841732Y-16921528D01*
X78841731Y-16921529D01*
X78841730Y-16921529D01*
X78705059Y-16978140D01*
X78559968Y-17007000D01*
X78412032Y-17007000D01*
X78266941Y-16978140D01*
X78130270Y-16921529D01*
X78130269Y-16921529D01*
X78130268Y-16921528D01*
X78007265Y-16839340D01*
X77902660Y-16734735D01*
X77820472Y-16611732D01*
X77763860Y-16475059D01*
X77735000Y-16329967D01*
X77735000Y-16182033D01*
X77744370Y-16134928D01*
X77763860Y-16036941D01*
X77820471Y-15900270D01*
X77879207Y-15812365D01*
X77902660Y-15777265D01*
X78007265Y-15672660D01*
X78130268Y-15590472D01*
X78166648Y-15575403D01*
X78266941Y-15533860D01*
X78412032Y-15505000D01*
X78559968Y-15505000D01*
X78705059Y-15533860D01*
G37*
G36*
X62211000Y-16981000D02*
G01*
X59709000Y-16981000D01*
X59709000Y-13379000D01*
X62211000Y-13379000D01*
X62211000Y-16981000D01*
G37*
G36*
X67454928Y-15526764D02*
G01*
X67476009Y-15533160D01*
X67495445Y-15543548D01*
X67512476Y-15557524D01*
X67526452Y-15574555D01*
X67536840Y-15593991D01*
X67543236Y-15615072D01*
X67546000Y-15643140D01*
X67546000Y-16106860D01*
X67543236Y-16134928D01*
X67536840Y-16156009D01*
X67526452Y-16175445D01*
X67512476Y-16192476D01*
X67495445Y-16206452D01*
X67476009Y-16216840D01*
X67454928Y-16223236D01*
X67426860Y-16226000D01*
X65513140Y-16226000D01*
X65485072Y-16223236D01*
X65463991Y-16216840D01*
X65444555Y-16206452D01*
X65427524Y-16192476D01*
X65413548Y-16175445D01*
X65403160Y-16156009D01*
X65396764Y-16134928D01*
X65394000Y-16106860D01*
X65394000Y-15643140D01*
X65396764Y-15615072D01*
X65403160Y-15593991D01*
X65413548Y-15574555D01*
X65427524Y-15557524D01*
X65444555Y-15543548D01*
X65463991Y-15533160D01*
X65485072Y-15526764D01*
X65513140Y-15524000D01*
X67426860Y-15524000D01*
X67454928Y-15526764D01*
G37*
G36*
X76754928Y-15526764D02*
G01*
X76776009Y-15533160D01*
X76795445Y-15543548D01*
X76812476Y-15557524D01*
X76826452Y-15574555D01*
X76836840Y-15593991D01*
X76843236Y-15615072D01*
X76846000Y-15643140D01*
X76846000Y-16106860D01*
X76843236Y-16134928D01*
X76836840Y-16156009D01*
X76826452Y-16175445D01*
X76812476Y-16192476D01*
X76795445Y-16206452D01*
X76776009Y-16216840D01*
X76754928Y-16223236D01*
X76726860Y-16226000D01*
X74813140Y-16226000D01*
X74785072Y-16223236D01*
X74763991Y-16216840D01*
X74744555Y-16206452D01*
X74727524Y-16192476D01*
X74713548Y-16175445D01*
X74703160Y-16156009D01*
X74696764Y-16134928D01*
X74694000Y-16106860D01*
X74694000Y-15643140D01*
X74696764Y-15615072D01*
X74703160Y-15593991D01*
X74713548Y-15574555D01*
X74727524Y-15557524D01*
X74744555Y-15543548D01*
X74763991Y-15533160D01*
X74785072Y-15526764D01*
X74813140Y-15524000D01*
X76726860Y-15524000D01*
X76754928Y-15526764D01*
G37*
G36*
X76754928Y-14256764D02*
G01*
X76776009Y-14263160D01*
X76795445Y-14273548D01*
X76812476Y-14287524D01*
X76826452Y-14304555D01*
X76836840Y-14323991D01*
X76843236Y-14345072D01*
X76846000Y-14373140D01*
X76846000Y-14836860D01*
X76843236Y-14864928D01*
X76836840Y-14886009D01*
X76826452Y-14905445D01*
X76812476Y-14922476D01*
X76795445Y-14936452D01*
X76776009Y-14946840D01*
X76754928Y-14953236D01*
X76726860Y-14956000D01*
X74813140Y-14956000D01*
X74785072Y-14953236D01*
X74763991Y-14946840D01*
X74744555Y-14936452D01*
X74727524Y-14922476D01*
X74713548Y-14905445D01*
X74703160Y-14886009D01*
X74696764Y-14864928D01*
X74694000Y-14836860D01*
X74694000Y-14373140D01*
X74696764Y-14345072D01*
X74703160Y-14323991D01*
X74713548Y-14304555D01*
X74727524Y-14287524D01*
X74744555Y-14273548D01*
X74763991Y-14263160D01*
X74785072Y-14256764D01*
X74813140Y-14254000D01*
X76726860Y-14254000D01*
X76754928Y-14256764D01*
G37*
G36*
X67454928Y-14256764D02*
G01*
X67476009Y-14263160D01*
X67495445Y-14273548D01*
X67512476Y-14287524D01*
X67526452Y-14304555D01*
X67536840Y-14323991D01*
X67543236Y-14345072D01*
X67546000Y-14373140D01*
X67546000Y-14836860D01*
X67543236Y-14864928D01*
X67536840Y-14886009D01*
X67526452Y-14905445D01*
X67512476Y-14922476D01*
X67495445Y-14936452D01*
X67476009Y-14946840D01*
X67454928Y-14953236D01*
X67426860Y-14956000D01*
X65513140Y-14956000D01*
X65485072Y-14953236D01*
X65463991Y-14946840D01*
X65444555Y-14936452D01*
X65427524Y-14922476D01*
X65413548Y-14905445D01*
X65403160Y-14886009D01*
X65396764Y-14864928D01*
X65394000Y-14836860D01*
X65394000Y-14373140D01*
X65396764Y-14345072D01*
X65403160Y-14323991D01*
X65413548Y-14304555D01*
X65427524Y-14287524D01*
X65444555Y-14273548D01*
X65463991Y-14263160D01*
X65485072Y-14256764D01*
X65513140Y-14254000D01*
X67426860Y-14254000D01*
X67454928Y-14256764D01*
G37*
G36*
X63973059Y-13247860D02*
G01*
X64109732Y-13304472D01*
X64232735Y-13386660D01*
X64337340Y-13491265D01*
X64365550Y-13533484D01*
X64419529Y-13614270D01*
X64476140Y-13750941D01*
X64505000Y-13896032D01*
X64505000Y-14043968D01*
X64476140Y-14189059D01*
X64449241Y-14254000D01*
X64419528Y-14325732D01*
X64337340Y-14448735D01*
X64232735Y-14553340D01*
X64109732Y-14635528D01*
X64109731Y-14635529D01*
X64109730Y-14635529D01*
X63973059Y-14692140D01*
X63827968Y-14721000D01*
X63680032Y-14721000D01*
X63534941Y-14692140D01*
X63398270Y-14635529D01*
X63398269Y-14635529D01*
X63398268Y-14635528D01*
X63275265Y-14553340D01*
X63170660Y-14448735D01*
X63088472Y-14325732D01*
X63058760Y-14254000D01*
X63031860Y-14189059D01*
X63003000Y-14043968D01*
X63003000Y-13896032D01*
X63031860Y-13750941D01*
X63088471Y-13614270D01*
X63142450Y-13533484D01*
X63170660Y-13491265D01*
X63275265Y-13386660D01*
X63398268Y-13304472D01*
X63534941Y-13247860D01*
X63680032Y-13219000D01*
X63827968Y-13219000D01*
X63973059Y-13247860D01*
G37*
G36*
X57675103Y-13327727D02*
G01*
X57727615Y-13343656D01*
X57776000Y-13369519D01*
X57818416Y-13404328D01*
X57853225Y-13446744D01*
X57879088Y-13495129D01*
X57895017Y-13547641D01*
X57901000Y-13608385D01*
X57901000Y-14407103D01*
X57895017Y-14467847D01*
X57879088Y-14520359D01*
X57853225Y-14568744D01*
X57818416Y-14611160D01*
X57776000Y-14645969D01*
X57727615Y-14671832D01*
X57675103Y-14687761D01*
X57614359Y-14693744D01*
X56685641Y-14693744D01*
X56624897Y-14687761D01*
X56572385Y-14671832D01*
X56524000Y-14645969D01*
X56481584Y-14611160D01*
X56446775Y-14568744D01*
X56420912Y-14520359D01*
X56404983Y-14467847D01*
X56399000Y-14407103D01*
X56399000Y-13608385D01*
X56404983Y-13547641D01*
X56420912Y-13495129D01*
X56446775Y-13446744D01*
X56481584Y-13404328D01*
X56524000Y-13369519D01*
X56572385Y-13343656D01*
X56624897Y-13327727D01*
X56685641Y-13321744D01*
X57614359Y-13321744D01*
X57675103Y-13327727D01*
G37*
G36*
X78959059Y-12993860D02*
G01*
X79095732Y-13050472D01*
X79218735Y-13132660D01*
X79323340Y-13237265D01*
X79405528Y-13360268D01*
X79462140Y-13496941D01*
X79491000Y-13642033D01*
X79491000Y-13789967D01*
X79462140Y-13935059D01*
X79405528Y-14071732D01*
X79323340Y-14194735D01*
X79218735Y-14299340D01*
X79095732Y-14381528D01*
X79095731Y-14381529D01*
X79095730Y-14381529D01*
X78959059Y-14438140D01*
X78813968Y-14467000D01*
X78666032Y-14467000D01*
X78520941Y-14438140D01*
X78384270Y-14381529D01*
X78384269Y-14381529D01*
X78384268Y-14381528D01*
X78261265Y-14299340D01*
X78156660Y-14194735D01*
X78074472Y-14071732D01*
X78017860Y-13935059D01*
X77989000Y-13789967D01*
X77989000Y-13642033D01*
X78017860Y-13496941D01*
X78074472Y-13360268D01*
X78156660Y-13237265D01*
X78261265Y-13132660D01*
X78384268Y-13050472D01*
X78520941Y-12993860D01*
X78666032Y-12965000D01*
X78813968Y-12965000D01*
X78959059Y-12993860D01*
G37*
G36*
X46224549Y-7871116D02*
G01*
X46335734Y-7893232D01*
X46545203Y-7979997D01*
X46733720Y-8105960D01*
X46894040Y-8266280D01*
X47020003Y-8454797D01*
X47106768Y-8664266D01*
X47151000Y-8886636D01*
X47151000Y-9113364D01*
X47106768Y-9335734D01*
X47020003Y-9545203D01*
X46894040Y-9733720D01*
X46733720Y-9894040D01*
X46545203Y-10020003D01*
X46335734Y-10106768D01*
X46224549Y-10128884D01*
X46113365Y-10151000D01*
X45886635Y-10151000D01*
X45775451Y-10128884D01*
X45664266Y-10106768D01*
X45454797Y-10020003D01*
X45266280Y-9894040D01*
X45105960Y-9733720D01*
X44979997Y-9545203D01*
X44893232Y-9335734D01*
X44849000Y-9113364D01*
X44849000Y-8886636D01*
X44893232Y-8664266D01*
X44979997Y-8454797D01*
X45105960Y-8266280D01*
X45266280Y-8105960D01*
X45454797Y-7979997D01*
X45664266Y-7893232D01*
X45775451Y-7871116D01*
X45886635Y-7849000D01*
X46113365Y-7849000D01*
X46224549Y-7871116D01*
G37*
G36*
X91224549Y-7871116D02*
G01*
X91335734Y-7893232D01*
X91545203Y-7979997D01*
X91733720Y-8105960D01*
X91894040Y-8266280D01*
X92020003Y-8454797D01*
X92106768Y-8664266D01*
X92151000Y-8886636D01*
X92151000Y-9113364D01*
X92106768Y-9335734D01*
X92020003Y-9545203D01*
X91894040Y-9733720D01*
X91733720Y-9894040D01*
X91545203Y-10020003D01*
X91335734Y-10106768D01*
X91224549Y-10128884D01*
X91113365Y-10151000D01*
X90886635Y-10151000D01*
X90775451Y-10128884D01*
X90664266Y-10106768D01*
X90454797Y-10020003D01*
X90266280Y-9894040D01*
X90105960Y-9733720D01*
X89979997Y-9545203D01*
X89893232Y-9335734D01*
X89849000Y-9113364D01*
X89849000Y-8886636D01*
X89893232Y-8664266D01*
X89979997Y-8454797D01*
X90105960Y-8266280D01*
X90266280Y-8105960D01*
X90454797Y-7979997D01*
X90664266Y-7893232D01*
X90775451Y-7871116D01*
X90886635Y-7849000D01*
X91113365Y-7849000D01*
X91224549Y-7871116D01*
G37*
M02*
