M48
; DRILL file {KiCad 5.1.5-1.fc31} date 2020-05-10T16:43:56 CEST
; FORMAT={-:-/ absolute / metric / decimal}
; #@! TF.CreationDate,2020-05-10T16:43:56+02:00
; #@! TF.GenerationSoftware,Kicad,Pcbnew,5.1.5-1.fc31
FMAT,2
METRIC
T1C0.600
T2C0.750
T3C0.900
T4C1.000
T5C1.016
T6C1.100
T7C1.100
T8C2.200
%
G90
G05
T1
X-13.771Y25.996
X-13.771Y-29.004
X-13.517Y31.711
X-13.517Y-23.289
X-12.374Y17.36
X-12.374Y13.55
X-12.374Y-37.64
X-12.374Y-41.45
X-6.278Y29.552
X-6.278Y-25.448
X-5.77Y32.092
X-5.77Y-22.908
X-4.246Y44.03
X-4.246Y36.41
X-4.246Y-10.97
X-4.246Y-18.59
X-3.738Y34.124
X-3.738Y31.965
X-3.738Y30.365
X-3.738Y-20.876
X-3.738Y-23.035
X-3.738Y-24.635
X-1.706Y24.98
X-1.706Y-30.02
X0.834Y40.22
X0.834Y-14.78
X1.345Y22.44
X1.345Y-32.56
X7.692Y23.71
X7.692Y-31.29
X10.486Y41.744
X10.486Y-13.256
X10.74Y44.284
X10.74Y25.361
X10.74Y23.71
X10.74Y22.11
X10.74Y-10.716
X10.74Y-29.639
X10.74Y-31.29
X10.74Y-32.89
X12.01Y9.359
X12.01Y-45.641
T2
X-11.612Y32.854
X-10.342Y32.854
X-9.072Y32.854
X-6.786Y21.678
X-5.516Y21.678
X-4.246Y21.678
X-11.612Y-22.146
X-10.342Y-22.146
X-9.072Y-22.146
X-6.786Y-33.322
X-5.516Y-33.322
X-4.246Y-33.322
T3
X-19.74Y-37.72
X-19.74Y-42.72
X-14.74Y-40.22
X-19.74Y17.28
X-19.74Y12.28
X-14.74Y14.78
T4
X-18.978Y-25.194
X-18.978Y-27.734
X-18.978Y-30.274
X-18.978Y-32.814
X20.138Y-32.814
X20.138Y-35.354
X20.138Y-37.894
X20.138Y-40.434
X20.138Y-42.974
X20.138Y-45.514
X20.138Y22.186
X20.138Y19.646
X20.138Y17.106
X20.138Y14.566
X20.138Y12.026
X20.138Y9.486
X-18.978Y29.806
X-18.978Y27.266
X-18.978Y24.726
X-18.978Y22.186
T5
X15.82Y40.22
X15.82Y37.68
X15.82Y35.14
X15.82Y32.6
X15.82Y30.06
X18.36Y40.22
X18.36Y37.68
X18.36Y35.14
X18.36Y32.6
X18.36Y30.06
X-5.77Y16.09
X-5.77Y13.55
X-3.23Y16.09
X-3.23Y13.55
X-0.69Y16.09
X-0.69Y13.55
X1.85Y16.09
X1.85Y13.55
X4.39Y16.09
X4.39Y13.55
X6.93Y16.09
X6.93Y13.55
X9.47Y16.09
X9.47Y13.55
X12.01Y16.09
X12.01Y13.55
X-5.77Y-38.91
X-5.77Y-41.45
X-3.23Y-38.91
X-3.23Y-41.45
X-0.69Y-38.91
X-0.69Y-41.45
X1.85Y-38.91
X1.85Y-41.45
X4.39Y-38.91
X4.39Y-41.45
X6.93Y-38.91
X6.93Y-41.45
X9.47Y-38.91
X9.47Y-41.45
X12.01Y-38.91
X12.01Y-41.45
X15.82Y-14.78
X15.82Y-17.32
X15.82Y-19.86
X15.82Y-22.4
X15.82Y-24.94
X18.36Y-14.78
X18.36Y-17.32
X18.36Y-19.86
X18.36Y-22.4
X18.36Y-24.94
T6
X-17.2Y-17.32
X-17.2Y-19.86
X-17.2Y37.68
X-17.2Y35.14
T7
X-19.74Y-17.32
X-19.74Y-19.86
X-19.74Y37.68
X-19.74Y35.14
T8
X-22.0Y-6.0
X-22.0Y-51.0
X23.0Y-51.0
X23.0Y-6.0
X-22.0Y4.0
X-22.0Y49.0
X23.0Y4.0
X23.0Y49.0
T0
M30
